<svg xmlns="http://www.w3.org/2000/svg" viewBox="0 0 1600 1000" width="1600" height="1000" font-family="Inter, Helvetica, Arial, sans-serif">
  <defs>
    <style>
      text { fill: #1E293B; }
      .title { font-size: 18px; font-weight: 700; fill: #1E293B; }
      .subtitle { font-size: 13px; font-weight: 600; fill: #64748B; }
      .label { font-size: 12px; font-weight: 600; }
      .desc { font-size: 10px; fill: #64748B; }
      .addr { font-family: 'JetBrains Mono', 'Courier New', monospace; font-size: 9px; fill: #94A3B8; }
      .badge { font-size: 8px; font-weight: 600; }
      .layer-label { font-size: 11px; font-weight: 700; letter-spacing: 1.5px; text-transform: uppercase; }
    </style>
  </defs>

  <!-- Background -->
  <rect width="1600" height="1000" fill="#FFFFFF" rx="0"/>

  <!-- Title -->
  <text x="800" y="40" text-anchor="middle" class="title">Figure 1. System Architecture — FSL Decentralized Health Data Infrastructure</text>
  <text x="800" y="58" text-anchor="middle" class="desc">Five interconnected platforms share a unified EIP-191 authentication layer connecting to nine on-chain smart contracts</text>

  <!-- ═══ PLATFORM LAYER ═══ -->
  <text x="40" y="100" class="layer-label" fill="#475569">PLATFORM LAYER</text>
  <line x1="185" y1="96" x2="1560" y2="96" stroke="#CBD5E1" stroke-width="1"/>

  <!-- EncryptHealth -->
  <rect x="60" y="115" width="280" height="110" rx="8" fill="#F8FAFC" stroke="#CBD5E1" stroke-width="1.5"/>
  <rect x="60" y="115" width="280" height="28" rx="8" fill="#475569"/>
  <rect x="60" y="130" width="280" height="13" fill="#475569"/>
  <text x="200" y="135" text-anchor="middle" class="label" fill="#FFFFFF">EncryptHealth</text>
  <text x="200" y="160" text-anchor="middle" class="desc">Sovereign health records</text>
  <text x="200" y="175" text-anchor="middle" class="desc">Wallet-gated consent architecture</text>
  <text x="200" y="195" text-anchor="middle" class="addr">encrypthealth.io</text>
  <rect x="75" y="206" width="70" height="14" rx="3" fill="#E0F2FE" stroke="#00B4D8" stroke-width="0.5"/>
  <text x="110" y="215" text-anchor="middle" class="badge" fill="#00B4D8">EHT Token</text>
  <rect x="153" y="206" width="85" height="14" rx="3" fill="#E0F2FE" stroke="#00B4D8" stroke-width="0.5"/>
  <text x="195" y="215" text-anchor="middle" class="badge" fill="#00B4D8">PostgreSQL</text>
  <rect x="246" y="206" width="80" height="14" rx="3" fill="#E0F2FE" stroke="#00B4D8" stroke-width="0.5"/>
  <text x="286" y="215" text-anchor="middle" class="badge" fill="#00B4D8">FHIR R4</text>

  <!-- HypnoNeuro -->
  <rect x="370" y="115" width="280" height="110" rx="8" fill="#F8FAFC" stroke="#CBD5E1" stroke-width="1.5"/>
  <rect x="370" y="115" width="280" height="28" rx="8" fill="#475569"/>
  <rect x="370" y="130" width="280" height="13" fill="#475569"/>
  <text x="510" y="135" text-anchor="middle" class="label" fill="#FFFFFF">HypnoNeuro</text>
  <text x="510" y="160" text-anchor="middle" class="desc">3 flagship therapeutic game demos</text>
  <text x="510" y="175" text-anchor="middle" class="desc">L1 Hypnosis / L2 Orthomolecular / L3 Inner Child</text>
  <text x="510" y="195" text-anchor="middle" class="addr">hypnoneuro.io</text>
  <rect x="385" y="206" width="70" height="14" rx="3" fill="#E0F2FE" stroke="#00B4D8" stroke-width="0.5"/>
  <text x="420" y="215" text-anchor="middle" class="badge" fill="#00B4D8">HNT Token</text>
  <rect x="463" y="206" width="90" height="14" rx="3" fill="#E0F2FE" stroke="#00B4D8" stroke-width="0.5"/>
  <text x="508" y="215" text-anchor="middle" class="badge" fill="#00B4D8">MindMastery</text>
  <rect x="561" y="206" width="75" height="14" rx="3" fill="#E0F2FE" stroke="#00B4D8" stroke-width="0.5"/>
  <text x="598" y="215" text-anchor="middle" class="badge" fill="#00B4D8">NFT Gating</text>

  <!-- SovereignLedger -->
  <rect x="680" y="115" width="280" height="110" rx="8" fill="#F8FAFC" stroke="#CBD5E1" stroke-width="1.5"/>
  <rect x="680" y="115" width="280" height="28" rx="8" fill="#475569"/>
  <rect x="680" y="130" width="280" height="13" fill="#475569"/>
  <text x="820" y="135" text-anchor="middle" class="label" fill="#FFFFFF">SovereignLedger</text>
  <text x="820" y="160" text-anchor="middle" class="desc">Session governance &amp; attestation</text>
  <text x="820" y="175" text-anchor="middle" class="desc">Dual-chain anchor: Sepolia + XRPL</text>
  <text x="820" y="195" text-anchor="middle" class="addr">sovereignledger.io</text>
  <rect x="700" y="206" width="110" height="14" rx="3" fill="#E0F2FE" stroke="#00B4D8" stroke-width="0.5"/>
  <text x="755" y="215" text-anchor="middle" class="badge" fill="#00B4D8">Session Billing</text>
  <rect x="818" y="206" width="125" height="14" rx="3" fill="#E0F2FE" stroke="#00B4D8" stroke-width="0.5"/>
  <text x="880" y="215" text-anchor="middle" class="badge" fill="#00B4D8">XRPL Anchor</text>

  <!-- AlchemistForge -->
  <rect x="990" y="115" width="280" height="110" rx="8" fill="#F8FAFC" stroke="#CBD5E1" stroke-width="1.5"/>
  <rect x="990" y="115" width="280" height="28" rx="8" fill="#475569"/>
  <rect x="990" y="130" width="280" height="13" fill="#475569"/>
  <text x="1130" y="135" text-anchor="middle" class="label" fill="#FFFFFF">AlchemistForge</text>
  <text x="1130" y="160" text-anchor="middle" class="desc">Jungian shadow integration on-chain</text>
  <text x="1130" y="175" text-anchor="middle" class="desc">Fully permissionless — no owner, no pause</text>
  <text x="1130" y="195" text-anchor="middle" class="addr">alchemistforge.io</text>
  <rect x="1015" y="206" width="105" height="14" rx="3" fill="#E0F2FE" stroke="#00B4D8" stroke-width="0.5"/>
  <text x="1067" y="215" text-anchor="middle" class="badge" fill="#00B4D8">Permissionless</text>
  <rect x="1128" y="206" width="125" height="14" rx="3" fill="#E0F2FE" stroke="#00B4D8" stroke-width="0.5"/>
  <text x="1190" y="215" text-anchor="middle" class="badge" fill="#00B4D8">Shadow Work</text>

  <!-- NeuroBalance -->
  <rect x="1300" y="115" width="260" height="110" rx="8" fill="#F8FAFC" stroke="#CBD5E1" stroke-width="1.5"/>
  <rect x="1300" y="115" width="260" height="28" rx="8" fill="#94A3B8"/>
  <rect x="1300" y="130" width="260" height="13" fill="#94A3B8"/>
  <text x="1430" y="135" text-anchor="middle" class="label" fill="#FFFFFF">NeuroBalance</text>
  <text x="1430" y="160" text-anchor="middle" class="desc">Biosensor integration layer</text>
  <text x="1430" y="175" text-anchor="middle" class="desc">Consent toggles + wearable pipeline</text>
  <text x="1430" y="195" text-anchor="middle" class="addr">Scaffolded</text>
  <rect x="1340" y="206" width="140" height="14" rx="3" fill="#FEF3C7" stroke="#F59E0B" stroke-width="0.5"/>
  <text x="1410" y="215" text-anchor="middle" class="badge" fill="#92400E">Backend Only</text>

  <!-- ═══ EIP-191 AUTH BUS ═══ -->
  <rect x="40" y="248" width="1520" height="42" rx="6" fill="#FEF3C7" stroke="#F59E0B" stroke-width="2"/>
  <text x="800" y="265" text-anchor="middle" font-size="13" font-weight="700" fill="#92400E">EIP-191 WALLET-SIGNED CONSENT — UNIFIED AUTHENTICATION PRIMITIVE</text>
  <text x="800" y="280" text-anchor="middle" font-size="10" fill="#92400E">Single cryptographic signature serves as identity verification + informed consent + session authorization (Patent Pending 64/063,037)</text>

  <!-- Connection lines from platforms to auth bus -->
  <line x1="200" y1="225" x2="200" y2="248" stroke="#F59E0B" stroke-width="1.5" stroke-dasharray="4,3"/>
  <line x1="510" y1="225" x2="510" y2="248" stroke="#F59E0B" stroke-width="1.5" stroke-dasharray="4,3"/>
  <line x1="820" y1="225" x2="820" y2="248" stroke="#F59E0B" stroke-width="1.5" stroke-dasharray="4,3"/>
  <line x1="1130" y1="225" x2="1130" y2="248" stroke="#F59E0B" stroke-width="1.5" stroke-dasharray="4,3"/>
  <line x1="1430" y1="225" x2="1430" y2="248" stroke="#94A3B8" stroke-width="1" stroke-dasharray="4,3"/>

  <!-- ═══ ON-CHAIN LAYER ═══ -->
  <rect x="40" y="310" width="1520" height="310" rx="8" fill="#F0FDFA" stroke="#00B4D8" stroke-width="1.5"/>
  <text x="60" y="335" class="layer-label" fill="#00B4D8">ON-CHAIN LAYER — ETHEREUM SEPOLIA TESTNET</text>

  <!-- Owner-Controlled Contracts -->
  <text x="80" y="360" font-size="10" font-weight="600" fill="#475569">OWNER-CONTROLLED</text>

  <rect x="80" y="370" width="220" height="65" rx="6" fill="#FFFFFF" stroke="#00B4D8" stroke-width="1"/>
  <text x="190" y="388" text-anchor="middle" class="label" fill="#0E7490">HypnoNeuroToken (HNT)</text>
  <text x="190" y="402" text-anchor="middle" class="desc">ERC-20 wellness engagement token</text>
  <text x="190" y="418" text-anchor="middle" class="addr">0x1ae1...86084e2</text>
  <rect x="152" y="422" width="76" height="12" rx="2" fill="#CCFBF1" stroke="#00B4D8" stroke-width="0.5"/>
  <text x="190" y="431" text-anchor="middle" font-size="7" font-weight="600" fill="#0E7490">Owner-minted</text>

  <rect x="320" y="370" width="220" height="65" rx="6" fill="#FFFFFF" stroke="#00B4D8" stroke-width="1"/>
  <text x="430" y="388" text-anchor="middle" class="label" fill="#0E7490">EHTv2</text>
  <text x="430" y="402" text-anchor="middle" class="desc">ERC-20 platform token — 144K cap</text>
  <text x="430" y="418" text-anchor="middle" class="addr">0x9358...0bd88</text>
  <rect x="392" y="422" width="76" height="12" rx="2" fill="#CCFBF1" stroke="#00B4D8" stroke-width="0.5"/>
  <text x="430" y="431" text-anchor="middle" font-size="7" font-weight="600" fill="#0E7490">Owner-minted</text>

  <rect x="560" y="370" width="220" height="65" rx="6" fill="#FFFFFF" stroke="#00B4D8" stroke-width="1"/>
  <text x="670" y="388" text-anchor="middle" class="label" fill="#0E7490">MindMasteryNFT</text>
  <text x="670" y="402" text-anchor="middle" class="desc">ERC-1155 achievement credentials</text>
  <text x="670" y="418" text-anchor="middle" class="addr">0xCb9E...C7771</text>
  <rect x="632" y="422" width="76" height="12" rx="2" fill="#CCFBF1" stroke="#00B4D8" stroke-width="0.5"/>
  <text x="670" y="431" text-anchor="middle" font-size="7" font-weight="600" fill="#0E7490">Owner-minted</text>

  <rect x="800" y="370" width="220" height="65" rx="6" fill="#FFFFFF" stroke="#00B4D8" stroke-width="1"/>
  <text x="910" y="388" text-anchor="middle" class="label" fill="#0E7490">BenevolenceFund v2</text>
  <text x="910" y="402" text-anchor="middle" class="desc">3% session fee — community treasury</text>
  <text x="910" y="418" text-anchor="middle" class="addr">0x96E8...0251B</text>
  <rect x="862" y="422" width="96" height="12" rx="2" fill="#CCFBF1" stroke="#00B4D8" stroke-width="0.5"/>
  <text x="910" y="431" text-anchor="middle" font-size="7" font-weight="600" fill="#0E7490">Owner-distributed</text>

  <rect x="1040" y="370" width="220" height="65" rx="6" fill="#FFFFFF" stroke="#00B4D8" stroke-width="1"/>
  <text x="1150" y="388" text-anchor="middle" class="label" fill="#0E7490">SovereignAchievement</text>
  <text x="1150" y="402" text-anchor="middle" class="desc">ERC-1155 soulbound — 20 tiers</text>
  <text x="1150" y="418" text-anchor="middle" class="addr">0xC3F1...9B8D</text>
  <rect x="1112" y="422" width="76" height="12" rx="2" fill="#CCFBF1" stroke="#00B4D8" stroke-width="0.5"/>
  <text x="1150" y="431" text-anchor="middle" font-size="7" font-weight="600" fill="#0E7490">Owner-minted</text>

  <rect x="1280" y="370" width="260" height="65" rx="6" fill="#FFFFFF" stroke="#94A3B8" stroke-width="1" stroke-dasharray="4,3"/>
  <text x="1410" y="388" text-anchor="middle" class="label" fill="#94A3B8">NeuroBalanceConsent</text>
  <text x="1410" y="402" text-anchor="middle" class="desc" fill="#94A3B8">Biosensor consent scaffold</text>
  <text x="1410" y="418" text-anchor="middle" class="addr">0x2157...96b8</text>
  <rect x="1372" y="422" width="76" height="12" rx="2" fill="#F1F5F9" stroke="#94A3B8" stroke-width="0.5"/>
  <text x="1410" y="431" text-anchor="middle" font-size="7" font-weight="600" fill="#94A3B8">Scaffolded</text>

  <!-- Open/Permissionless Contracts -->
  <text x="80" y="470" font-size="10" font-weight="600" fill="#475569">OPEN REGISTRATION / PERMISSIONLESS</text>

  <rect x="80" y="480" width="280" height="65" rx="6" fill="#FFFFFF" stroke="#00B4D8" stroke-width="1.5"/>
  <text x="220" y="498" text-anchor="middle" class="label" fill="#0E7490">SovereignLedger v2</text>
  <text x="220" y="512" text-anchor="middle" class="desc">Session governance — claims, verification, pause</text>
  <text x="220" y="528" text-anchor="middle" class="addr">0x4afA...aCc4</text>
  <rect x="160" y="532" width="120" height="12" rx="2" fill="#CCFBF1" stroke="#00B4D8" stroke-width="0.5"/>
  <text x="220" y="541" text-anchor="middle" font-size="7" font-weight="600" fill="#0E7490">Open registration</text>

  <rect x="390" y="480" width="280" height="65" rx="6" fill="#FFFFFF" stroke="#059669" stroke-width="1.5"/>
  <text x="530" y="498" text-anchor="middle" class="label" fill="#065F46">AlchemistForge</text>
  <text x="530" y="512" text-anchor="middle" class="desc">Fully permissionless — no owner, no admin, no pause</text>
  <text x="530" y="528" text-anchor="middle" class="addr">0xE092...A324</text>
  <rect x="467" y="532" width="126" height="12" rx="2" fill="#D1FAE5" stroke="#059669" stroke-width="0.5"/>
  <text x="530" y="541" text-anchor="middle" font-size="7" font-weight="600" fill="#065F46">Fully permissionless</text>

  <!-- SovereignSession with Phase 5 annotation -->
  <rect x="700" y="480" width="280" height="65" rx="6" fill="#FFFFFF" stroke="#00B4D8" stroke-width="1"/>
  <text x="840" y="498" text-anchor="middle" class="label" fill="#0E7490">SovereignSession</text>
  <text x="840" y="512" text-anchor="middle" class="desc">Session attestation — guide-initiated (single-party)</text>
  <text x="840" y="528" text-anchor="middle" class="addr">0xbeb1...65A1</text>
  <rect x="780" y="532" width="120" height="12" rx="2" fill="#CCFBF1" stroke="#00B4D8" stroke-width="0.5"/>
  <text x="840" y="541" text-anchor="middle" font-size="7" font-weight="600" fill="#0E7490">Guide-initiated</text>

  <!-- Phase 5 callout -->
  <rect x="1010" y="480" width="530" height="65" rx="6" fill="#FFFBEB" stroke="#F59E0B" stroke-width="1.5" stroke-dasharray="6,3"/>
  <text x="1275" y="498" text-anchor="middle" font-size="11" font-weight="700" fill="#92400E">PHASE 5 — DOCTORAL CAPSTONE (planned)</text>
  <text x="1275" y="514" text-anchor="middle" font-size="10" fill="#92400E">Two-party mutual EIP-191 authentication + client-side encrypted recording</text>
  <text x="1275" y="530" text-anchor="middle" font-size="9" fill="#B45309">Advances SovereignSession from single-party to bilateral cryptographic consent</text>

  <!-- ═══ DASHED BOUNDARY ═══ -->
  <line x1="40" y1="640" x2="1560" y2="640" stroke="#CBD5E1" stroke-width="2" stroke-dasharray="8,4"/>
  <text x="800" y="655" text-anchor="middle" font-size="10" font-weight="600" fill="#94A3B8">ON-CHAIN / OFF-CHAIN BOUNDARY</text>

  <!-- ═══ OFF-CHAIN LAYER ═══ -->
  <rect x="40" y="670" width="1520" height="310" rx="8" fill="#F8FAFC" stroke="#475569" stroke-width="1.5"/>
  <text x="60" y="695" class="layer-label" fill="#475569">OFF-CHAIN LAYER — ENGAGEMENT METADATA ONLY</text>

  <!-- PostgreSQL -->
  <rect x="80" y="710" width="450" height="120" rx="6" fill="#FFFFFF" stroke="#475569" stroke-width="1"/>
  <rect x="80" y="710" width="450" height="26" rx="6" fill="#475569"/>
  <rect x="80" y="723" width="450" height="13" fill="#475569"/>
  <text x="305" y="728" text-anchor="middle" class="label" fill="#FFFFFF">PostgreSQL 17 — Engagement Metadata</text>
  <text x="305" y="755" text-anchor="middle" class="desc">session_logs: wallet_address, session_type, timestamp, duration, content_hash</text>
  <text x="305" y="770" text-anchor="middle" class="desc">consent_grants: wallet_address, grant_type, signature_hash, expiry</text>
  <text x="305" y="785" text-anchor="middle" class="desc">achievement_log: wallet_address, tier, mint_tx_hash</text>
  <rect x="100" y="800" width="410" height="20" rx="4" fill="#FEF2F2" stroke="#EF4444" stroke-width="1"/>
  <text x="305" y="814" text-anchor="middle" font-size="10" font-weight="700" fill="#DC2626">ZERO PHI — No names, DOB, SSN, diagnosis, clinical content</text>

  <!-- IPFS -->
  <rect x="570" y="710" width="350" height="120" rx="6" fill="#FFFFFF" stroke="#475569" stroke-width="1"/>
  <rect x="570" y="710" width="350" height="26" rx="6" fill="#475569"/>
  <rect x="570" y="723" width="350" height="13" fill="#475569"/>
  <text x="745" y="728" text-anchor="middle" class="label" fill="#FFFFFF">IPFS — Encrypted Documents</text>
  <text x="745" y="755" text-anchor="middle" class="desc">Pinata primary pin (Lighthouse secondary)</text>
  <text x="745" y="770" text-anchor="middle" class="desc">Wallet-authenticated access only</text>
  <text x="745" y="785" text-anchor="middle" class="desc">Weekly recovery bundle + academic outputs</text>
  <rect x="590" y="800" width="310" height="20" rx="4" fill="#FEF2F2" stroke="#EF4444" stroke-width="1"/>
  <text x="745" y="814" text-anchor="middle" font-size="10" font-weight="700" fill="#DC2626">Content encrypted — key held by participant</text>

  <!-- VPS -->
  <rect x="960" y="710" width="290" height="120" rx="6" fill="#FFFFFF" stroke="#475569" stroke-width="1"/>
  <rect x="960" y="710" width="290" height="26" rx="6" fill="#475569"/>
  <rect x="960" y="723" width="290" height="13" fill="#475569"/>
  <text x="1105" y="728" text-anchor="middle" class="label" fill="#FFFFFF">VPS — API + Agent Gateway</text>
  <text x="1105" y="755" text-anchor="middle" class="desc">PM2 process manager (4 services)</text>
  <text x="1105" y="770" text-anchor="middle" class="desc">17-agent AI council pipeline</text>
  <text x="1105" y="785" text-anchor="middle" class="desc">Telegram notification gateway</text>
  <rect x="975" y="798" width="96" height="14" rx="3" fill="#FEF3C7" stroke="#F59E0B" stroke-width="0.5"/>
  <text x="1023" y="808" text-anchor="middle" class="badge" fill="#92400E">Centralized</text>
  <rect x="1079" y="798" width="155" height="14" rx="3" fill="#FEF3C7" stroke="#F59E0B" stroke-width="0.5"/>
  <text x="1156" y="808" text-anchor="middle" class="badge" fill="#92400E">Migrate to Akash/Flux</text>

  <!-- XRPL -->
  <rect x="1290" y="710" width="250" height="120" rx="6" fill="#FFFFFF" stroke="#475569" stroke-width="1"/>
  <rect x="1290" y="710" width="250" height="26" rx="6" fill="#475569"/>
  <rect x="1290" y="723" width="250" height="13" fill="#475569"/>
  <text x="1415" y="728" text-anchor="middle" class="label" fill="#FFFFFF">XRPL Testnet</text>
  <text x="1415" y="755" text-anchor="middle" class="desc">Dual-chain session anchor</text>
  <text x="1415" y="770" text-anchor="middle" class="desc">SHA-256 hash committed per session</text>
  <text x="1415" y="785" text-anchor="middle" class="desc">ISO 20022 payment rails (future)</text>
  <rect x="1340" y="798" width="150" height="14" rx="3" fill="#E0F2FE" stroke="#00B4D8" stroke-width="0.5"/>
  <text x="1415" y="808" text-anchor="middle" class="badge" fill="#0E7490">Secondary Anchor</text>

  <!-- Zero-PHI banner at bottom -->
  <rect x="40" y="960" width="1520" height="30" rx="6" fill="#FEF2F2" stroke="#EF4444" stroke-width="1.5"/>
  <text x="800" y="980" text-anchor="middle" font-size="12" font-weight="700" fill="#DC2626">ZERO-PHI ARCHITECTURE — FSL operates outside HIPAA scope by holding no Protected Health Information in any layer</text>
</svg>
