<svg xmlns="http://www.w3.org/2000/svg" viewBox="0 0 1600 1000" width="1600" height="1000" font-family="Inter, Helvetica, Arial, sans-serif">
  <defs>
    <style>
      text { fill: #1E293B; }
      .title { font-size: 24px; font-weight: 700; }
      .subtitle { font-size: 15px; fill: #475569; }
      .lane { font-size: 14px; font-weight: 700; fill: #FFFFFF; }
      .step-num { font-size: 18px; font-weight: 700; }
      .step-label { font-size: 15px; font-weight: 600; }
      .step-desc { font-size: 13px; fill: #475569; }
      .code { font-family: 'JetBrains Mono', 'Courier New', monospace; font-size: 14px; fill: #475569; }
      .code-sm { font-family: 'JetBrains Mono', 'Courier New', monospace; font-size: 13px; fill: #475569; }
      .annot { font-size: 14px; fill: #475569; }
    </style>
    <marker id="arr" markerWidth="8" markerHeight="6" refX="8" refY="3" orient="auto"><path d="M0,0 L8,3 L0,6 Z" fill="#475569"/></marker>
    <marker id="arr-g" markerWidth="8" markerHeight="6" refX="8" refY="3" orient="auto"><path d="M0,0 L8,3 L0,6 Z" fill="#FFD700"/></marker>
  </defs>

  <rect width="1600" height="1000" fill="#FFFFFF"/>

  <!-- Title -->
  <text x="800" y="35" text-anchor="middle" class="title">Figure 2. EIP-191 Wallet-Signed Consent Attestation Flow</text>
  <text x="800" y="56" text-anchor="middle" class="subtitle">The consent event IS the authentication event — a single cryptographic act</text>

  <!-- Swimlane headers -->
  <rect x="40" y="75" width="220" height="34" rx="6" fill="#475569"/>
  <text x="150" y="97" text-anchor="middle" class="lane">PARTICIPANT</text>
  <rect x="290" y="75" width="300" height="34" rx="6" fill="#475569"/>
  <text x="440" y="97" text-anchor="middle" class="lane">BROWSER / BRAVE WALLET</text>
  <rect x="620" y="75" width="300" height="34" rx="6" fill="#475569"/>
  <text x="770" y="97" text-anchor="middle" class="lane">VERCEL SERVERLESS API</text>
  <rect x="950" y="75" width="220" height="34" rx="6" fill="#00D9FF"/>
  <text x="1060" y="97" text-anchor="middle" class="lane">ETHEREUM (SEPOLIA)</text>

  <!-- Lane lines -->
  <line x1="150" y1="115" x2="150" y2="880" stroke="#E2E8F0" stroke-width="1" stroke-dasharray="4,4"/>
  <line x1="440" y1="115" x2="440" y2="880" stroke="#E2E8F0" stroke-width="1" stroke-dasharray="4,4"/>
  <line x1="770" y1="115" x2="770" y2="880" stroke="#E2E8F0" stroke-width="1" stroke-dasharray="4,4"/>
  <line x1="1060" y1="115" x2="1060" y2="880" stroke="#00D9FF" stroke-width="1" stroke-dasharray="4,4" opacity="0.3"/>

  <!-- STEP 1 -->
  <rect x="30" y="130" width="44" height="28" rx="5" fill="#475569"/>
  <text x="52" y="150" text-anchor="middle" class="step-num" fill="#FFFFFF">1</text>
  <text x="84" y="150" class="step-label">Wallet Detection (EIP-6963)</text>
  <line x1="150" y1="165" x2="430" y2="165" stroke="#475569" stroke-width="1.5" marker-end="url(#arr)"/>
  <text x="290" y="183" text-anchor="middle" class="code-sm">window.ethereum via EIP-6963</text>
  <rect x="310" y="190" width="260" height="26" rx="4" fill="#F8FAFC" stroke="#E2E8F0"/>
  <text x="440" y="208" text-anchor="middle" class="annot">Brave Wallet, Rainbow, Rabby, any EIP-1193</text>

  <!-- STEP 2 -->
  <rect x="30" y="235" width="44" height="28" rx="5" fill="#475569"/>
  <text x="52" y="255" text-anchor="middle" class="step-num" fill="#FFFFFF">2</text>
  <text x="84" y="255" class="step-label">Account Request</text>
  <rect x="310" y="270" width="260" height="28" rx="4" fill="#F1F5F9" stroke="#475569" stroke-width="0.8"/>
  <text x="440" y="290" text-anchor="middle" class="code-sm">eth_requestAccounts → [address]</text>
  <text x="1200" y="285" text-anchor="middle" class="annot" fill="#DC2626">No name, email, or PII transmitted</text>

  <!-- STEP 3 -->
  <rect x="30" y="315" width="44" height="28" rx="5" fill="#475569"/>
  <text x="52" y="335" text-anchor="middle" class="step-num" fill="#FFFFFF">3</text>
  <text x="84" y="335" class="step-label">Nonce Generation</text>
  <line x1="440" y1="350" x2="760" y2="350" stroke="#475569" stroke-width="1.5" marker-end="url(#arr)"/>
  <text x="600" y="368" text-anchor="middle" class="code-sm">128-bit nonce (NIST SP 800-63B)</text>
  <line x1="760" y1="378" x2="440" y2="378" stroke="#475569" stroke-width="1.5" marker-end="url(#arr)"/>
  <text x="600" y="396" text-anchor="middle" class="code-sm">Nonce bound to wallet + TTL</text>

  <!-- STEP 4 -->
  <rect x="30" y="415" width="44" height="28" rx="5" fill="#475569"/>
  <text x="52" y="435" text-anchor="middle" class="step-num" fill="#FFFFFF">4</text>
  <text x="84" y="435" class="step-label">Consent Message Construction</text>
  <rect x="330" y="450" width="420" height="55" rx="4" fill="#F1F5F9" stroke="#475569" stroke-width="0.8"/>
  <text x="540" y="470" text-anchor="middle" class="code">"FSL Auth | Wallet: 0xf22c...F248"</text>
  <text x="540" y="490" text-anchor="middle" class="code">"Nonce: a7b3.. | Timestamp | Disclaimer"</text>
  <text x="1200" y="475" text-anchor="middle" class="annot">Contains ONLY wallet address + nonce</text>
  <text x="1200" y="493" text-anchor="middle" class="annot" fill="#DC2626">Zero PHI / Zero PII</text>

  <!-- STEP 5 — GOLD HERO -->
  <rect x="20" y="525" width="1145" height="130" rx="8" fill="#FFD700" stroke="#B8860B" stroke-width="2"/>

  <rect x="30" y="535" width="44" height="28" rx="5" fill="#FFD700"/>
  <text x="52" y="555" text-anchor="middle" class="step-num" fill="#FFFFFF">5</text>
  <text x="84" y="555" font-size="17" font-weight="700" fill="#92400E">CRYPTOGRAPHIC CONSENT — personal_sign (EIP-191)</text>

  <line x1="150" y1="575" x2="430" y2="575" stroke="#FFD700" stroke-width="2.5" marker-end="url(#arr-g)"/>
  <text x="290" y="593" text-anchor="middle" font-size="13" font-weight="600" fill="#92400E">Participant signs consent message</text>

  <rect x="310" y="600" width="280" height="28" rx="4" fill="#FEF3C7" stroke="#FFD700" stroke-width="1"/>
  <text x="450" y="619" text-anchor="middle" class="code" fill="#92400E">personal_sign(msg, addr) → sig</text>

  <text x="84" y="643" font-size="12" fill="#92400E">→ POST /api/auth { address, signature, message }</text>

  <!-- Three-in-one callout (moved down 80px) -->
  <rect x="1190" y="610" width="380" height="120" rx="8" fill="#FEF3C7" stroke="#B8860B" stroke-width="2"/>
  <text x="1380" y="635" text-anchor="middle" font-size="16" font-weight="700" fill="#92400E">THIS SINGLE SIGNATURE IS:</text>
  <text x="1210" y="660" font-size="14" fill="#92400E">1. Identity verification</text>
  <text x="1410" y="660" font-size="12" fill="#B45309">(wallet owns this address)</text>
  <text x="1210" y="682" font-size="14" fill="#92400E">2. Informed consent</text>
  <text x="1390" y="682" font-size="12" fill="#B45309">(signed the consent text)</text>
  <text x="1210" y="704" font-size="14" fill="#92400E">3. Session authorization</text>
  <text x="1420" y="704" font-size="12" fill="#B45309">(JWT issued from this)</text>
  <text x="1380" y="724" text-anchor="middle" font-size="12" font-weight="600" fill="#B45309">Patent Pending — 64/063,037</text>

  <!-- STEP 6 -->
  <rect x="30" y="675" width="44" height="28" rx="5" fill="#475569"/>
  <text x="52" y="695" text-anchor="middle" class="step-num" fill="#FFFFFF">6</text>
  <text x="84" y="695" class="step-label">Server Verification and JWT Issuance</text>

  <rect x="610" y="715" width="380" height="70" rx="4" fill="#F1F5F9" stroke="#475569" stroke-width="0.8"/>
  <text x="800" y="735" text-anchor="middle" class="code-sm">ethers.verifyMessage(message, signature)</text>
  <text x="800" y="753" text-anchor="middle" class="code-sm">→ recovered address === claimed address</text>
  <text x="800" y="771" text-anchor="middle" class="code-sm">→ issue JWT (HS256, httpOnly, SameSite=Strict)</text>

  <!-- Result -->
  <rect x="80" y="805" width="1080" height="38" rx="6" fill="#22CC66" stroke="#16A34A" stroke-width="2"/>
  <text x="620" y="830" text-anchor="middle" font-size="14" font-weight="700" fill="#FFFFFF">AUTHENTICATED — JWT cookie set, wallet-gated content unlocked, consent cryptographically recorded</text>

  <!-- Bottom note -->
  <text x="800" y="880" text-anchor="middle" font-size="13" fill="#475569">Wallet addresses are pseudonymous — not linked to real-world identity by FSL. The consent signature is the only credential.</text>
</svg>
