<?xml version="1.0" encoding="utf-8" standalone="no"?>
<!DOCTYPE svg PUBLIC "-//W3C//DTD SVG 1.1//EN"
  "http://www.w3.org/Graphics/SVG/1.1/DTD/svg11.dtd">
<svg xmlns:xlink="http://www.w3.org/1999/xlink" width="405pt" height="457.92pt" viewBox="0 0 405 457.92" xmlns="http://www.w3.org/2000/svg" version="1.1">
 <metadata>
  <rdf:RDF xmlns:dc="http://purl.org/dc/elements/1.1/" xmlns:cc="http://creativecommons.org/ns#" xmlns:rdf="http://www.w3.org/1999/02/22-rdf-syntax-ns#">
   <cc:Work>
    <dc:type rdf:resource="http://purl.org/dc/dcmitype/StillImage"/>
    <dc:date>2026-05-12T06:12:21.628519</dc:date>
    <dc:format>image/svg+xml</dc:format>
    <dc:creator>
     <cc:Agent>
      <dc:title>Matplotlib v3.9.4, https://matplotlib.org/</dc:title>
     </cc:Agent>
    </dc:creator>
   </cc:Work>
  </rdf:RDF>
 </metadata>
 <defs>
  <style type="text/css">*{stroke-linejoin: round; stroke-linecap: butt}</style>
 </defs>
 <g id="figure_1">
  <g id="patch_1">
   <path d="M 0 457.92 
L 405 457.92 
L 405 0 
L 0 0 
z
" style="fill: #ffffff"/>
  </g>
  <g id="axes_1">
   <g id="patch_2">
    <path d="M 12.78 316.5552 
L 129.96 316.5552 
Q 134.424 316.5552 134.424 312.12 
L 134.424 62.64 
Q 134.424 58.2048 129.96 58.2048 
L 12.78 58.2048 
Q 8.316 58.2048 8.316 62.64 
L 8.316 312.12 
Q 8.316 316.5552 12.78 316.5552 
z
" clip-path="url(#pf8b7c4fba3)" style="fill: #3498db; opacity: 0.12; stroke: #000000; stroke-width: 0.8; stroke-linejoin: miter"/>
   </g>
   <g id="patch_3">
    <path d="M 141.12 316.5552 
L 258.3 316.5552 
Q 262.764 316.5552 262.764 312.12 
L 262.764 62.64 
Q 262.764 58.2048 258.3 58.2048 
L 141.12 58.2048 
Q 136.656 58.2048 136.656 62.64 
L 136.656 312.12 
Q 136.656 316.5552 141.12 316.5552 
z
" clip-path="url(#pf8b7c4fba3)" style="fill: #e67e22; opacity: 0.12; stroke: #000000; stroke-width: 0.8; stroke-linejoin: miter"/>
   </g>
   <g id="patch_4">
    <path d="M 269.46 316.5552 
L 386.64 316.5552 
Q 391.104 316.5552 391.104 312.12 
L 391.104 62.64 
Q 391.104 58.2048 386.64 58.2048 
L 269.46 58.2048 
Q 264.996 58.2048 264.996 62.64 
L 264.996 312.12 
Q 264.996 316.5552 269.46 316.5552 
z
" clip-path="url(#pf8b7c4fba3)" style="fill: #e74c3c; opacity: 0.12; stroke: #000000; stroke-width: 0.8; stroke-linejoin: miter"/>
   </g>
   <g id="line2d_1">
    <path d="M 7.2 334.296 
L 397.8 334.296 
" clip-path="url(#pf8b7c4fba3)" style="fill: none; stroke-dasharray: 5.55,2.4; stroke-dashoffset: 0; stroke: #000000; stroke-width: 1.5"/>
   </g>
   <g id="text_1">
    <!-- Figure 3. Zero-PHI data classification across system layers. -->
    <g transform="translate(84.213125 29.376) scale(0.08 -0.08)">
     <defs>
      <path id="DejaVuSans-Oblique-46" d="M 1081 4666 
L 3756 4666 
L 3653 4134 
L 1606 4134 
L 1338 2759 
L 3188 2759 
L 3084 2228 
L 1234 2228 
L 800 0 
L 172 0 
L 1081 4666 
z
" transform="scale(0.015625)"/>
      <path id="DejaVuSans-Oblique-69" d="M 1172 4863 
L 1747 4863 
L 1606 4134 
L 1031 4134 
L 1172 4863 
z
M 909 3500 
L 1484 3500 
L 800 0 
L 225 0 
L 909 3500 
z
" transform="scale(0.015625)"/>
      <path id="DejaVuSans-Oblique-67" d="M 3816 3500 
L 3219 434 
Q 3047 -456 2561 -893 
Q 2075 -1331 1253 -1331 
Q 950 -1331 690 -1286 
Q 431 -1241 206 -1147 
L 313 -588 
Q 525 -725 762 -790 
Q 1000 -856 1269 -856 
Q 1816 -856 2167 -557 
Q 2519 -259 2631 300 
L 2681 563 
Q 2441 288 2122 144 
Q 1803 0 1434 0 
Q 903 0 598 351 
Q 294 703 294 1319 
Q 294 1803 478 2267 
Q 663 2731 997 3091 
Q 1219 3328 1514 3456 
Q 1809 3584 2131 3584 
Q 2484 3584 2746 3420 
Q 3009 3256 3138 2956 
L 3238 3500 
L 3816 3500 
z
M 2950 2216 
Q 2950 2641 2750 2872 
Q 2550 3103 2181 3103 
Q 1953 3103 1747 3012 
Q 1541 2922 1394 2759 
Q 1156 2491 1023 2127 
Q 891 1763 891 1375 
Q 891 944 1092 712 
Q 1294 481 1672 481 
Q 2219 481 2584 976 
Q 2950 1472 2950 2216 
z
" transform="scale(0.015625)"/>
      <path id="DejaVuSans-Oblique-75" d="M 428 1388 
L 838 3500 
L 1416 3500 
L 1006 1409 
Q 975 1256 961 1147 
Q 947 1038 947 966 
Q 947 700 1109 554 
Q 1272 409 1569 409 
Q 2031 409 2368 721 
Q 2706 1034 2809 1563 
L 3194 3500 
L 3769 3500 
L 3091 0 
L 2516 0 
L 2631 550 
Q 2388 244 2052 76 
Q 1716 -91 1338 -91 
Q 878 -91 622 161 
Q 366 413 366 863 
Q 366 956 381 1097 
Q 397 1238 428 1388 
z
" transform="scale(0.015625)"/>
      <path id="DejaVuSans-Oblique-72" d="M 2853 2969 
Q 2766 3016 2653 3041 
Q 2541 3066 2413 3066 
Q 1953 3066 1609 2717 
Q 1266 2369 1153 1784 
L 800 0 
L 225 0 
L 909 3500 
L 1484 3500 
L 1375 2956 
Q 1603 3259 1920 3421 
Q 2238 3584 2597 3584 
Q 2691 3584 2781 3573 
Q 2872 3563 2963 3538 
L 2853 2969 
z
" transform="scale(0.015625)"/>
      <path id="DejaVuSans-Oblique-65" d="M 3078 2063 
Q 3088 2113 3092 2166 
Q 3097 2219 3097 2272 
Q 3097 2653 2873 2875 
Q 2650 3097 2266 3097 
Q 1838 3097 1509 2826 
Q 1181 2556 1013 2059 
L 3078 2063 
z
M 3578 1613 
L 903 1613 
Q 884 1494 878 1425 
Q 872 1356 872 1306 
Q 872 872 1139 634 
Q 1406 397 1894 397 
Q 2269 397 2603 481 
Q 2938 566 3225 728 
L 3116 159 
Q 2806 34 2476 -28 
Q 2147 -91 1806 -91 
Q 1078 -91 686 257 
Q 294 606 294 1247 
Q 294 1794 489 2264 
Q 684 2734 1063 3103 
Q 1306 3334 1642 3459 
Q 1978 3584 2356 3584 
Q 2950 3584 3301 3228 
Q 3653 2872 3653 2272 
Q 3653 2128 3634 1964 
Q 3616 1800 3578 1613 
z
" transform="scale(0.015625)"/>
      <path id="DejaVuSans-Oblique-20" transform="scale(0.015625)"/>
      <path id="DejaVuSans-Oblique-33" d="M 1013 4550 
Q 1356 4650 1679 4700 
Q 2003 4750 2316 4750 
Q 2934 4750 3296 4475 
Q 3659 4200 3659 3738 
Q 3659 3284 3373 2959 
Q 3088 2634 2584 2516 
Q 2978 2403 3162 2165 
Q 3347 1928 3347 1538 
Q 3347 1163 3167 834 
Q 2988 506 2650 269 
Q 2394 88 2037 -1 
Q 1681 -91 1216 -91 
Q 922 -91 622 -33 
Q 322 25 13 141 
L 128 738 
Q 422 575 720 495 
Q 1019 416 1331 416 
Q 1947 416 2330 733 
Q 2713 1050 2713 1556 
Q 2713 1881 2469 2057 
Q 2225 2234 1772 2234 
L 1228 2234 
L 1325 2747 
L 1900 2747 
Q 2419 2747 2717 2984 
Q 3016 3222 3016 3628 
Q 3016 3922 2797 4083 
Q 2578 4244 2181 4244 
Q 1881 4244 1567 4180 
Q 1253 4116 916 3988 
L 1013 4550 
z
" transform="scale(0.015625)"/>
      <path id="DejaVuSans-Oblique-2e" d="M 525 794 
L 1184 794 
L 1031 0 
L 372 0 
L 525 794 
z
" transform="scale(0.015625)"/>
      <path id="DejaVuSans-Oblique-5a" d="M 838 4666 
L 4500 4666 
L 4409 4184 
L 794 531 
L 3769 531 
L 3669 0 
L -141 0 
L -50 481 
L 3566 4134 
L 738 4134 
L 838 4666 
z
" transform="scale(0.015625)"/>
      <path id="DejaVuSans-Oblique-6f" d="M 1625 -91 
Q 1009 -91 651 289 
Q 294 669 294 1325 
Q 294 1706 417 2101 
Q 541 2497 738 2766 
Q 1047 3184 1428 3384 
Q 1809 3584 2291 3584 
Q 2888 3584 3255 3212 
Q 3622 2841 3622 2241 
Q 3622 1825 3500 1412 
Q 3378 1000 3181 728 
Q 2875 309 2494 109 
Q 2113 -91 1625 -91 
z
M 891 1344 
Q 891 869 1089 633 
Q 1288 397 1691 397 
Q 2269 397 2648 901 
Q 3028 1406 3028 2181 
Q 3028 2634 2825 2865 
Q 2622 3097 2228 3097 
Q 1903 3097 1650 2945 
Q 1397 2794 1197 2484 
Q 1050 2253 970 1956 
Q 891 1659 891 1344 
z
" transform="scale(0.015625)"/>
      <path id="DejaVuSans-Oblique-2d" d="M 391 2009 
L 2075 2009 
L 1978 1497 
L 288 1497 
L 391 2009 
z
" transform="scale(0.015625)"/>
      <path id="DejaVuSans-Oblique-50" d="M 1081 4666 
L 2541 4666 
Q 3178 4666 3512 4369 
Q 3847 4072 3847 3500 
Q 3847 2731 3353 2303 
Q 2859 1875 1966 1875 
L 1172 1875 
L 806 0 
L 172 0 
L 1081 4666 
z
M 1613 4147 
L 1275 2394 
L 2069 2394 
Q 2606 2394 2893 2669 
Q 3181 2944 3181 3456 
Q 3181 3784 2986 3965 
Q 2791 4147 2438 4147 
L 1613 4147 
z
" transform="scale(0.015625)"/>
      <path id="DejaVuSans-Oblique-48" d="M 1081 4666 
L 1716 4666 
L 1344 2753 
L 3634 2753 
L 4006 4666 
L 4641 4666 
L 3731 0 
L 3097 0 
L 3531 2222 
L 1241 2222 
L 806 0 
L 172 0 
L 1081 4666 
z
" transform="scale(0.015625)"/>
      <path id="DejaVuSans-Oblique-49" d="M 1081 4666 
L 1716 4666 
L 806 0 
L 172 0 
L 1081 4666 
z
" transform="scale(0.015625)"/>
      <path id="DejaVuSans-Oblique-64" d="M 2675 525 
Q 2444 222 2128 65 
Q 1813 -91 1428 -91 
Q 903 -91 598 267 
Q 294 625 294 1247 
Q 294 1766 478 2236 
Q 663 2706 1013 3078 
Q 1244 3325 1534 3454 
Q 1825 3584 2144 3584 
Q 2481 3584 2739 3421 
Q 2997 3259 3138 2956 
L 3513 4863 
L 4091 4863 
L 3144 0 
L 2566 0 
L 2675 525 
z
M 891 1350 
Q 891 897 1095 644 
Q 1300 391 1663 391 
Q 1931 391 2161 520 
Q 2391 650 2566 903 
Q 2750 1166 2856 1509 
Q 2963 1853 2963 2188 
Q 2963 2622 2758 2865 
Q 2553 3109 2194 3109 
Q 1922 3109 1687 2981 
Q 1453 2853 1288 2613 
Q 1106 2353 998 2009 
Q 891 1666 891 1350 
z
" transform="scale(0.015625)"/>
      <path id="DejaVuSans-Oblique-61" d="M 3438 1997 
L 3047 0 
L 2472 0 
L 2578 531 
Q 2325 219 2001 64 
Q 1678 -91 1281 -91 
Q 834 -91 548 182 
Q 263 456 263 884 
Q 263 1497 752 1853 
Q 1241 2209 2100 2209 
L 2900 2209 
L 2931 2363 
Q 2938 2388 2941 2417 
Q 2944 2447 2944 2509 
Q 2944 2788 2717 2942 
Q 2491 3097 2081 3097 
Q 1800 3097 1504 3025 
Q 1209 2953 897 2809 
L 997 3341 
Q 1322 3463 1633 3523 
Q 1944 3584 2234 3584 
Q 2853 3584 3176 3315 
Q 3500 3047 3500 2534 
Q 3500 2431 3484 2292 
Q 3469 2153 3438 1997 
z
M 2816 1759 
L 2241 1759 
Q 1534 1759 1195 1570 
Q 856 1381 856 984 
Q 856 709 1029 553 
Q 1203 397 1509 397 
Q 1978 397 2328 733 
Q 2678 1069 2791 1631 
L 2816 1759 
z
" transform="scale(0.015625)"/>
      <path id="DejaVuSans-Oblique-74" d="M 2706 3500 
L 2619 3053 
L 1472 3053 
L 1100 1153 
Q 1081 1047 1072 975 
Q 1063 903 1063 863 
Q 1063 663 1183 572 
Q 1303 481 1569 481 
L 2150 481 
L 2053 0 
L 1503 0 
Q 991 0 739 200 
Q 488 400 488 806 
Q 488 878 497 964 
Q 506 1050 525 1153 
L 897 3053 
L 409 3053 
L 500 3500 
L 978 3500 
L 1172 4494 
L 1747 4494 
L 1556 3500 
L 2706 3500 
z
" transform="scale(0.015625)"/>
      <path id="DejaVuSans-Oblique-63" d="M 3431 3366 
L 3316 2797 
Q 3109 2947 2876 3022 
Q 2644 3097 2394 3097 
Q 2119 3097 1870 3000 
Q 1622 2903 1453 2725 
Q 1184 2453 1037 2087 
Q 891 1722 891 1331 
Q 891 859 1127 628 
Q 1363 397 1844 397 
Q 2081 397 2348 469 
Q 2616 541 2906 684 
L 2797 116 
Q 2547 13 2283 -39 
Q 2019 -91 1741 -91 
Q 1044 -91 669 257 
Q 294 606 294 1253 
Q 294 1797 489 2255 
Q 684 2713 1069 3078 
Q 1331 3328 1684 3456 
Q 2038 3584 2456 3584 
Q 2700 3584 2940 3529 
Q 3181 3475 3431 3366 
z
" transform="scale(0.015625)"/>
      <path id="DejaVuSans-Oblique-6c" d="M 1172 4863 
L 1747 4863 
L 800 0 
L 225 0 
L 1172 4863 
z
" transform="scale(0.015625)"/>
      <path id="DejaVuSans-Oblique-73" d="M 3200 3397 
L 3091 2853 
Q 2863 2978 2609 3040 
Q 2356 3103 2088 3103 
Q 1634 3103 1373 2948 
Q 1113 2794 1113 2528 
Q 1113 2219 1719 2053 
Q 1766 2041 1788 2034 
L 1972 1978 
Q 2547 1819 2739 1644 
Q 2931 1469 2931 1166 
Q 2931 609 2489 259 
Q 2047 -91 1331 -91 
Q 1053 -91 747 -37 
Q 441 16 72 128 
L 184 722 
Q 500 559 806 475 
Q 1113 391 1394 391 
Q 1816 391 2080 572 
Q 2344 753 2344 1031 
Q 2344 1331 1650 1516 
L 1591 1531 
L 1394 1581 
Q 956 1697 753 1886 
Q 550 2075 550 2369 
Q 550 2928 970 3256 
Q 1391 3584 2113 3584 
Q 2397 3584 2667 3537 
Q 2938 3491 3200 3397 
z
" transform="scale(0.015625)"/>
      <path id="DejaVuSans-Oblique-66" d="M 3059 4863 
L 2969 4384 
L 2419 4384 
Q 2106 4384 1964 4261 
Q 1822 4138 1753 3809 
L 1691 3500 
L 2638 3500 
L 2553 3053 
L 1606 3053 
L 1013 0 
L 434 0 
L 1031 3053 
L 481 3053 
L 563 3500 
L 1113 3500 
L 1159 3744 
Q 1278 4363 1576 4613 
Q 1875 4863 2516 4863 
L 3059 4863 
z
" transform="scale(0.015625)"/>
      <path id="DejaVuSans-Oblique-6e" d="M 3566 2113 
L 3156 0 
L 2578 0 
L 2988 2091 
Q 3016 2238 3031 2350 
Q 3047 2463 3047 2528 
Q 3047 2791 2881 2937 
Q 2716 3084 2419 3084 
Q 1956 3084 1622 2776 
Q 1288 2469 1184 1941 
L 800 0 
L 225 0 
L 903 3500 
L 1478 3500 
L 1363 2950 
Q 1603 3253 1940 3418 
Q 2278 3584 2650 3584 
Q 3113 3584 3367 3334 
Q 3622 3084 3622 2631 
Q 3622 2519 3608 2391 
Q 3594 2263 3566 2113 
z
" transform="scale(0.015625)"/>
      <path id="DejaVuSans-Oblique-79" d="M 1588 -325 
Q 1188 -997 936 -1164 
Q 684 -1331 294 -1331 
L -159 -1331 
L -63 -850 
L 269 -850 
Q 509 -850 678 -719 
Q 847 -588 1056 -206 
L 1234 128 
L 459 3500 
L 1069 3500 
L 1650 819 
L 3256 3500 
L 3859 3500 
L 1588 -325 
z
" transform="scale(0.015625)"/>
      <path id="DejaVuSans-Oblique-6d" d="M 5747 2113 
L 5338 0 
L 4763 0 
L 5166 2094 
Q 5191 2228 5203 2325 
Q 5216 2422 5216 2491 
Q 5216 2772 5059 2928 
Q 4903 3084 4622 3084 
Q 4203 3084 3875 2770 
Q 3547 2456 3450 1953 
L 3066 0 
L 2491 0 
L 2900 2094 
Q 2925 2209 2937 2307 
Q 2950 2406 2950 2484 
Q 2950 2769 2794 2926 
Q 2638 3084 2363 3084 
Q 1938 3084 1609 2770 
Q 1281 2456 1184 1953 
L 800 0 
L 225 0 
L 909 3500 
L 1484 3500 
L 1375 2956 
Q 1609 3263 1923 3423 
Q 2238 3584 2597 3584 
Q 2978 3584 3223 3384 
Q 3469 3184 3519 2828 
Q 3781 3197 4126 3390 
Q 4472 3584 4856 3584 
Q 5306 3584 5551 3325 
Q 5797 3066 5797 2591 
Q 5797 2488 5784 2364 
Q 5772 2241 5747 2113 
z
" transform="scale(0.015625)"/>
     </defs>
     <use xlink:href="#DejaVuSans-Oblique-46"/>
     <use xlink:href="#DejaVuSans-Oblique-69" x="57.519531"/>
     <use xlink:href="#DejaVuSans-Oblique-67" x="85.302734"/>
     <use xlink:href="#DejaVuSans-Oblique-75" x="148.779297"/>
     <use xlink:href="#DejaVuSans-Oblique-72" x="212.158203"/>
     <use xlink:href="#DejaVuSans-Oblique-65" x="253.271484"/>
     <use xlink:href="#DejaVuSans-Oblique-20" x="314.794922"/>
     <use xlink:href="#DejaVuSans-Oblique-33" x="346.582031"/>
     <use xlink:href="#DejaVuSans-Oblique-2e" x="410.205078"/>
     <use xlink:href="#DejaVuSans-Oblique-20" x="441.992188"/>
     <use xlink:href="#DejaVuSans-Oblique-5a" x="473.779297"/>
     <use xlink:href="#DejaVuSans-Oblique-65" x="542.285156"/>
     <use xlink:href="#DejaVuSans-Oblique-72" x="603.808594"/>
     <use xlink:href="#DejaVuSans-Oblique-6f" x="644.921875"/>
     <use xlink:href="#DejaVuSans-Oblique-2d" x="706.103516"/>
     <use xlink:href="#DejaVuSans-Oblique-50" x="742.1875"/>
     <use xlink:href="#DejaVuSans-Oblique-48" x="802.490234"/>
     <use xlink:href="#DejaVuSans-Oblique-49" x="877.685547"/>
     <use xlink:href="#DejaVuSans-Oblique-20" x="907.177734"/>
     <use xlink:href="#DejaVuSans-Oblique-64" x="938.964844"/>
     <use xlink:href="#DejaVuSans-Oblique-61" x="1002.441406"/>
     <use xlink:href="#DejaVuSans-Oblique-74" x="1063.720703"/>
     <use xlink:href="#DejaVuSans-Oblique-61" x="1102.929688"/>
     <use xlink:href="#DejaVuSans-Oblique-20" x="1164.208984"/>
     <use xlink:href="#DejaVuSans-Oblique-63" x="1195.996094"/>
     <use xlink:href="#DejaVuSans-Oblique-6c" x="1250.976562"/>
     <use xlink:href="#DejaVuSans-Oblique-61" x="1278.759766"/>
     <use xlink:href="#DejaVuSans-Oblique-73" x="1340.039062"/>
     <use xlink:href="#DejaVuSans-Oblique-73" x="1392.138672"/>
     <use xlink:href="#DejaVuSans-Oblique-69" x="1444.238281"/>
     <use xlink:href="#DejaVuSans-Oblique-66" x="1472.021484"/>
     <use xlink:href="#DejaVuSans-Oblique-69" x="1507.226562"/>
     <use xlink:href="#DejaVuSans-Oblique-63" x="1535.009766"/>
     <use xlink:href="#DejaVuSans-Oblique-61" x="1589.990234"/>
     <use xlink:href="#DejaVuSans-Oblique-74" x="1651.269531"/>
     <use xlink:href="#DejaVuSans-Oblique-69" x="1690.478516"/>
     <use xlink:href="#DejaVuSans-Oblique-6f" x="1718.261719"/>
     <use xlink:href="#DejaVuSans-Oblique-6e" x="1779.443359"/>
     <use xlink:href="#DejaVuSans-Oblique-20" x="1842.822266"/>
     <use xlink:href="#DejaVuSans-Oblique-61" x="1874.609375"/>
     <use xlink:href="#DejaVuSans-Oblique-63" x="1935.888672"/>
     <use xlink:href="#DejaVuSans-Oblique-72" x="1990.869141"/>
     <use xlink:href="#DejaVuSans-Oblique-6f" x="2031.982422"/>
     <use xlink:href="#DejaVuSans-Oblique-73" x="2093.164062"/>
     <use xlink:href="#DejaVuSans-Oblique-73" x="2145.263672"/>
     <use xlink:href="#DejaVuSans-Oblique-20" x="2197.363281"/>
     <use xlink:href="#DejaVuSans-Oblique-73" x="2229.150391"/>
     <use xlink:href="#DejaVuSans-Oblique-79" x="2281.25"/>
     <use xlink:href="#DejaVuSans-Oblique-73" x="2340.429688"/>
     <use xlink:href="#DejaVuSans-Oblique-74" x="2392.529297"/>
     <use xlink:href="#DejaVuSans-Oblique-65" x="2431.738281"/>
     <use xlink:href="#DejaVuSans-Oblique-6d" x="2493.261719"/>
     <use xlink:href="#DejaVuSans-Oblique-20" x="2590.673828"/>
     <use xlink:href="#DejaVuSans-Oblique-6c" x="2622.460938"/>
     <use xlink:href="#DejaVuSans-Oblique-61" x="2650.244141"/>
     <use xlink:href="#DejaVuSans-Oblique-79" x="2711.523438"/>
     <use xlink:href="#DejaVuSans-Oblique-65" x="2770.703125"/>
     <use xlink:href="#DejaVuSans-Oblique-72" x="2832.226562"/>
     <use xlink:href="#DejaVuSans-Oblique-73" x="2873.339844"/>
     <use xlink:href="#DejaVuSans-Oblique-2e" x="2925.439453"/>
    </g>
   </g>
   <g id="text_2">
    <!-- ON-CHAIN -->
    <g transform="translate(52.989219 82.970305) scale(0.065 -0.065)">
     <defs>
      <path id="DejaVuSans-Bold-4f" d="M 2719 3878 
Q 2169 3878 1866 3472 
Q 1563 3066 1563 2328 
Q 1563 1594 1866 1187 
Q 2169 781 2719 781 
Q 3272 781 3575 1187 
Q 3878 1594 3878 2328 
Q 3878 3066 3575 3472 
Q 3272 3878 2719 3878 
z
M 2719 4750 
Q 3844 4750 4481 4106 
Q 5119 3463 5119 2328 
Q 5119 1197 4481 553 
Q 3844 -91 2719 -91 
Q 1597 -91 958 553 
Q 319 1197 319 2328 
Q 319 3463 958 4106 
Q 1597 4750 2719 4750 
z
" transform="scale(0.015625)"/>
      <path id="DejaVuSans-Bold-4e" d="M 588 4666 
L 1931 4666 
L 3628 1466 
L 3628 4666 
L 4769 4666 
L 4769 0 
L 3425 0 
L 1728 3200 
L 1728 0 
L 588 0 
L 588 4666 
z
" transform="scale(0.015625)"/>
      <path id="DejaVuSans-Bold-2d" d="M 347 2297 
L 2309 2297 
L 2309 1388 
L 347 1388 
L 347 2297 
z
" transform="scale(0.015625)"/>
      <path id="DejaVuSans-Bold-43" d="M 4288 256 
Q 3956 84 3597 -3 
Q 3238 -91 2847 -91 
Q 1681 -91 1000 561 
Q 319 1213 319 2328 
Q 319 3447 1000 4098 
Q 1681 4750 2847 4750 
Q 3238 4750 3597 4662 
Q 3956 4575 4288 4403 
L 4288 3438 
Q 3953 3666 3628 3772 
Q 3303 3878 2944 3878 
Q 2300 3878 1931 3465 
Q 1563 3053 1563 2328 
Q 1563 1606 1931 1193 
Q 2300 781 2944 781 
Q 3303 781 3628 887 
Q 3953 994 4288 1222 
L 4288 256 
z
" transform="scale(0.015625)"/>
      <path id="DejaVuSans-Bold-48" d="M 588 4666 
L 1791 4666 
L 1791 2888 
L 3566 2888 
L 3566 4666 
L 4769 4666 
L 4769 0 
L 3566 0 
L 3566 1978 
L 1791 1978 
L 1791 0 
L 588 0 
L 588 4666 
z
" transform="scale(0.015625)"/>
      <path id="DejaVuSans-Bold-41" d="M 3419 850 
L 1538 850 
L 1241 0 
L 31 0 
L 1759 4666 
L 3194 4666 
L 4922 0 
L 3713 0 
L 3419 850 
z
M 1838 1716 
L 3116 1716 
L 2478 3572 
L 1838 1716 
z
" transform="scale(0.015625)"/>
      <path id="DejaVuSans-Bold-49" d="M 588 4666 
L 1791 4666 
L 1791 0 
L 588 0 
L 588 4666 
z
" transform="scale(0.015625)"/>
     </defs>
     <use xlink:href="#DejaVuSans-Bold-4f"/>
     <use xlink:href="#DejaVuSans-Bold-4e" x="85.009766"/>
     <use xlink:href="#DejaVuSans-Bold-2d" x="168.701172"/>
     <use xlink:href="#DejaVuSans-Bold-43" x="210.205078"/>
     <use xlink:href="#DejaVuSans-Bold-48" x="283.59375"/>
     <use xlink:href="#DejaVuSans-Bold-41" x="367.285156"/>
     <use xlink:href="#DejaVuSans-Bold-49" x="444.677734"/>
     <use xlink:href="#DejaVuSans-Bold-4e" x="481.884766"/>
    </g>
    <!-- (Public, Immutable) -->
    <g transform="translate(35.169063 90.248883) scale(0.065 -0.065)">
     <defs>
      <path id="DejaVuSans-Bold-28" d="M 2413 -844 
L 1484 -844 
Q 1006 -72 778 623 
Q 550 1319 550 2003 
Q 550 2688 779 3389 
Q 1009 4091 1484 4856 
L 2413 4856 
Q 2013 4116 1813 3408 
Q 1613 2700 1613 2009 
Q 1613 1319 1811 609 
Q 2009 -100 2413 -844 
z
" transform="scale(0.015625)"/>
      <path id="DejaVuSans-Bold-50" d="M 588 4666 
L 2584 4666 
Q 3475 4666 3951 4270 
Q 4428 3875 4428 3144 
Q 4428 2409 3951 2014 
Q 3475 1619 2584 1619 
L 1791 1619 
L 1791 0 
L 588 0 
L 588 4666 
z
M 1791 3794 
L 1791 2491 
L 2456 2491 
Q 2806 2491 2997 2661 
Q 3188 2831 3188 3144 
Q 3188 3456 2997 3625 
Q 2806 3794 2456 3794 
L 1791 3794 
z
" transform="scale(0.015625)"/>
      <path id="DejaVuSans-Bold-75" d="M 500 1363 
L 500 3500 
L 1625 3500 
L 1625 3150 
Q 1625 2866 1622 2436 
Q 1619 2006 1619 1863 
Q 1619 1441 1641 1255 
Q 1663 1069 1716 984 
Q 1784 875 1895 815 
Q 2006 756 2150 756 
Q 2500 756 2700 1025 
Q 2900 1294 2900 1772 
L 2900 3500 
L 4019 3500 
L 4019 0 
L 2900 0 
L 2900 506 
Q 2647 200 2364 54 
Q 2081 -91 1741 -91 
Q 1134 -91 817 281 
Q 500 653 500 1363 
z
" transform="scale(0.015625)"/>
      <path id="DejaVuSans-Bold-62" d="M 2400 722 
Q 2759 722 2948 984 
Q 3138 1247 3138 1747 
Q 3138 2247 2948 2509 
Q 2759 2772 2400 2772 
Q 2041 2772 1848 2508 
Q 1656 2244 1656 1747 
Q 1656 1250 1848 986 
Q 2041 722 2400 722 
z
M 1656 2988 
Q 1888 3294 2169 3439 
Q 2450 3584 2816 3584 
Q 3463 3584 3878 3070 
Q 4294 2556 4294 1747 
Q 4294 938 3878 423 
Q 3463 -91 2816 -91 
Q 2450 -91 2169 54 
Q 1888 200 1656 506 
L 1656 0 
L 538 0 
L 538 4863 
L 1656 4863 
L 1656 2988 
z
" transform="scale(0.015625)"/>
      <path id="DejaVuSans-Bold-6c" d="M 538 4863 
L 1656 4863 
L 1656 0 
L 538 0 
L 538 4863 
z
" transform="scale(0.015625)"/>
      <path id="DejaVuSans-Bold-69" d="M 538 3500 
L 1656 3500 
L 1656 0 
L 538 0 
L 538 3500 
z
M 538 4863 
L 1656 4863 
L 1656 3950 
L 538 3950 
L 538 4863 
z
" transform="scale(0.015625)"/>
      <path id="DejaVuSans-Bold-63" d="M 3366 3391 
L 3366 2478 
Q 3138 2634 2908 2709 
Q 2678 2784 2431 2784 
Q 1963 2784 1702 2511 
Q 1441 2238 1441 1747 
Q 1441 1256 1702 982 
Q 1963 709 2431 709 
Q 2694 709 2930 787 
Q 3166 866 3366 1019 
L 3366 103 
Q 3103 6 2833 -42 
Q 2563 -91 2291 -91 
Q 1344 -91 809 395 
Q 275 881 275 1747 
Q 275 2613 809 3098 
Q 1344 3584 2291 3584 
Q 2566 3584 2833 3536 
Q 3100 3488 3366 3391 
z
" transform="scale(0.015625)"/>
      <path id="DejaVuSans-Bold-2c" d="M 653 1209 
L 1778 1209 
L 1778 256 
L 1006 -909 
L 341 -909 
L 653 256 
L 653 1209 
z
" transform="scale(0.015625)"/>
      <path id="DejaVuSans-Bold-20" transform="scale(0.015625)"/>
      <path id="DejaVuSans-Bold-6d" d="M 3781 2919 
Q 3994 3244 4286 3414 
Q 4578 3584 4928 3584 
Q 5531 3584 5847 3212 
Q 6163 2841 6163 2131 
L 6163 0 
L 5038 0 
L 5038 1825 
Q 5041 1866 5042 1909 
Q 5044 1953 5044 2034 
Q 5044 2406 4934 2573 
Q 4825 2741 4581 2741 
Q 4263 2741 4089 2478 
Q 3916 2216 3909 1719 
L 3909 0 
L 2784 0 
L 2784 1825 
Q 2784 2406 2684 2573 
Q 2584 2741 2328 2741 
Q 2006 2741 1831 2477 
Q 1656 2213 1656 1722 
L 1656 0 
L 531 0 
L 531 3500 
L 1656 3500 
L 1656 2988 
Q 1863 3284 2130 3434 
Q 2397 3584 2719 3584 
Q 3081 3584 3359 3409 
Q 3638 3234 3781 2919 
z
" transform="scale(0.015625)"/>
      <path id="DejaVuSans-Bold-74" d="M 1759 4494 
L 1759 3500 
L 2913 3500 
L 2913 2700 
L 1759 2700 
L 1759 1216 
Q 1759 972 1856 886 
Q 1953 800 2241 800 
L 2816 800 
L 2816 0 
L 1856 0 
Q 1194 0 917 276 
Q 641 553 641 1216 
L 641 2700 
L 84 2700 
L 84 3500 
L 641 3500 
L 641 4494 
L 1759 4494 
z
" transform="scale(0.015625)"/>
      <path id="DejaVuSans-Bold-61" d="M 2106 1575 
Q 1756 1575 1579 1456 
Q 1403 1338 1403 1106 
Q 1403 894 1545 773 
Q 1688 653 1941 653 
Q 2256 653 2472 879 
Q 2688 1106 2688 1447 
L 2688 1575 
L 2106 1575 
z
M 3816 1997 
L 3816 0 
L 2688 0 
L 2688 519 
Q 2463 200 2181 54 
Q 1900 -91 1497 -91 
Q 953 -91 614 226 
Q 275 544 275 1050 
Q 275 1666 698 1953 
Q 1122 2241 2028 2241 
L 2688 2241 
L 2688 2328 
Q 2688 2594 2478 2717 
Q 2269 2841 1825 2841 
Q 1466 2841 1156 2769 
Q 847 2697 581 2553 
L 581 3406 
Q 941 3494 1303 3539 
Q 1666 3584 2028 3584 
Q 2975 3584 3395 3211 
Q 3816 2838 3816 1997 
z
" transform="scale(0.015625)"/>
      <path id="DejaVuSans-Bold-65" d="M 4031 1759 
L 4031 1441 
L 1416 1441 
Q 1456 1047 1700 850 
Q 1944 653 2381 653 
Q 2734 653 3104 758 
Q 3475 863 3866 1075 
L 3866 213 
Q 3469 63 3072 -14 
Q 2675 -91 2278 -91 
Q 1328 -91 801 392 
Q 275 875 275 1747 
Q 275 2603 792 3093 
Q 1309 3584 2216 3584 
Q 3041 3584 3536 3087 
Q 4031 2591 4031 1759 
z
M 2881 2131 
Q 2881 2450 2695 2645 
Q 2509 2841 2209 2841 
Q 1884 2841 1681 2658 
Q 1478 2475 1428 2131 
L 2881 2131 
z
" transform="scale(0.015625)"/>
      <path id="DejaVuSans-Bold-29" d="M 513 -844 
Q 913 -100 1113 609 
Q 1313 1319 1313 2009 
Q 1313 2700 1113 3408 
Q 913 4116 513 4856 
L 1441 4856 
Q 1916 4091 2145 3389 
Q 2375 2688 2375 2003 
Q 2375 1319 2147 623 
Q 1919 -72 1441 -844 
L 513 -844 
z
" transform="scale(0.015625)"/>
     </defs>
     <use xlink:href="#DejaVuSans-Bold-28"/>
     <use xlink:href="#DejaVuSans-Bold-50" x="45.703125"/>
     <use xlink:href="#DejaVuSans-Bold-75" x="118.994141"/>
     <use xlink:href="#DejaVuSans-Bold-62" x="190.185547"/>
     <use xlink:href="#DejaVuSans-Bold-6c" x="261.767578"/>
     <use xlink:href="#DejaVuSans-Bold-69" x="296.044922"/>
     <use xlink:href="#DejaVuSans-Bold-63" x="330.322266"/>
     <use xlink:href="#DejaVuSans-Bold-2c" x="389.599609"/>
     <use xlink:href="#DejaVuSans-Bold-20" x="427.587891"/>
     <use xlink:href="#DejaVuSans-Bold-49" x="462.402344"/>
     <use xlink:href="#DejaVuSans-Bold-6d" x="499.609375"/>
     <use xlink:href="#DejaVuSans-Bold-6d" x="603.808594"/>
     <use xlink:href="#DejaVuSans-Bold-75" x="708.007812"/>
     <use xlink:href="#DejaVuSans-Bold-74" x="779.199219"/>
     <use xlink:href="#DejaVuSans-Bold-61" x="827.001953"/>
     <use xlink:href="#DejaVuSans-Bold-62" x="894.482422"/>
     <use xlink:href="#DejaVuSans-Bold-6c" x="966.064453"/>
     <use xlink:href="#DejaVuSans-Bold-65" x="1000.341797"/>
     <use xlink:href="#DejaVuSans-Bold-29" x="1068.164062"/>
    </g>
   </g>
   <g id="text_3">
    <!-- • Wallet addresses -->
    <g transform="translate(21.15 122.259141) scale(0.055 -0.055)">
     <defs>
      <path id="DejaVuSans-2022" d="M 959 2381 
Q 959 2769 1229 3036 
Q 1500 3303 1894 3303 
Q 2281 3303 2548 3036 
Q 2816 2769 2816 2381 
Q 2816 1991 2547 1722 
Q 2278 1453 1888 1453 
Q 1497 1453 1228 1722 
Q 959 1991 959 2381 
z
" transform="scale(0.015625)"/>
      <path id="DejaVuSans-20" transform="scale(0.015625)"/>
      <path id="DejaVuSans-57" d="M 213 4666 
L 850 4666 
L 1831 722 
L 2809 4666 
L 3519 4666 
L 4500 722 
L 5478 4666 
L 6119 4666 
L 4947 0 
L 4153 0 
L 3169 4050 
L 2175 0 
L 1381 0 
L 213 4666 
z
" transform="scale(0.015625)"/>
      <path id="DejaVuSans-61" d="M 2194 1759 
Q 1497 1759 1228 1600 
Q 959 1441 959 1056 
Q 959 750 1161 570 
Q 1363 391 1709 391 
Q 2188 391 2477 730 
Q 2766 1069 2766 1631 
L 2766 1759 
L 2194 1759 
z
M 3341 1997 
L 3341 0 
L 2766 0 
L 2766 531 
Q 2569 213 2275 61 
Q 1981 -91 1556 -91 
Q 1019 -91 701 211 
Q 384 513 384 1019 
Q 384 1609 779 1909 
Q 1175 2209 1959 2209 
L 2766 2209 
L 2766 2266 
Q 2766 2663 2505 2880 
Q 2244 3097 1772 3097 
Q 1472 3097 1187 3025 
Q 903 2953 641 2809 
L 641 3341 
Q 956 3463 1253 3523 
Q 1550 3584 1831 3584 
Q 2591 3584 2966 3190 
Q 3341 2797 3341 1997 
z
" transform="scale(0.015625)"/>
      <path id="DejaVuSans-6c" d="M 603 4863 
L 1178 4863 
L 1178 0 
L 603 0 
L 603 4863 
z
" transform="scale(0.015625)"/>
      <path id="DejaVuSans-65" d="M 3597 1894 
L 3597 1613 
L 953 1613 
Q 991 1019 1311 708 
Q 1631 397 2203 397 
Q 2534 397 2845 478 
Q 3156 559 3463 722 
L 3463 178 
Q 3153 47 2828 -22 
Q 2503 -91 2169 -91 
Q 1331 -91 842 396 
Q 353 884 353 1716 
Q 353 2575 817 3079 
Q 1281 3584 2069 3584 
Q 2775 3584 3186 3129 
Q 3597 2675 3597 1894 
z
M 3022 2063 
Q 3016 2534 2758 2815 
Q 2500 3097 2075 3097 
Q 1594 3097 1305 2825 
Q 1016 2553 972 2059 
L 3022 2063 
z
" transform="scale(0.015625)"/>
      <path id="DejaVuSans-74" d="M 1172 4494 
L 1172 3500 
L 2356 3500 
L 2356 3053 
L 1172 3053 
L 1172 1153 
Q 1172 725 1289 603 
Q 1406 481 1766 481 
L 2356 481 
L 2356 0 
L 1766 0 
Q 1100 0 847 248 
Q 594 497 594 1153 
L 594 3053 
L 172 3053 
L 172 3500 
L 594 3500 
L 594 4494 
L 1172 4494 
z
" transform="scale(0.015625)"/>
      <path id="DejaVuSans-64" d="M 2906 2969 
L 2906 4863 
L 3481 4863 
L 3481 0 
L 2906 0 
L 2906 525 
Q 2725 213 2448 61 
Q 2172 -91 1784 -91 
Q 1150 -91 751 415 
Q 353 922 353 1747 
Q 353 2572 751 3078 
Q 1150 3584 1784 3584 
Q 2172 3584 2448 3432 
Q 2725 3281 2906 2969 
z
M 947 1747 
Q 947 1113 1208 752 
Q 1469 391 1925 391 
Q 2381 391 2643 752 
Q 2906 1113 2906 1747 
Q 2906 2381 2643 2742 
Q 2381 3103 1925 3103 
Q 1469 3103 1208 2742 
Q 947 2381 947 1747 
z
" transform="scale(0.015625)"/>
      <path id="DejaVuSans-72" d="M 2631 2963 
Q 2534 3019 2420 3045 
Q 2306 3072 2169 3072 
Q 1681 3072 1420 2755 
Q 1159 2438 1159 1844 
L 1159 0 
L 581 0 
L 581 3500 
L 1159 3500 
L 1159 2956 
Q 1341 3275 1631 3429 
Q 1922 3584 2338 3584 
Q 2397 3584 2469 3576 
Q 2541 3569 2628 3553 
L 2631 2963 
z
" transform="scale(0.015625)"/>
      <path id="DejaVuSans-73" d="M 2834 3397 
L 2834 2853 
Q 2591 2978 2328 3040 
Q 2066 3103 1784 3103 
Q 1356 3103 1142 2972 
Q 928 2841 928 2578 
Q 928 2378 1081 2264 
Q 1234 2150 1697 2047 
L 1894 2003 
Q 2506 1872 2764 1633 
Q 3022 1394 3022 966 
Q 3022 478 2636 193 
Q 2250 -91 1575 -91 
Q 1294 -91 989 -36 
Q 684 19 347 128 
L 347 722 
Q 666 556 975 473 
Q 1284 391 1588 391 
Q 1994 391 2212 530 
Q 2431 669 2431 922 
Q 2431 1156 2273 1281 
Q 2116 1406 1581 1522 
L 1381 1569 
Q 847 1681 609 1914 
Q 372 2147 372 2553 
Q 372 3047 722 3315 
Q 1072 3584 1716 3584 
Q 2034 3584 2315 3537 
Q 2597 3491 2834 3397 
z
" transform="scale(0.015625)"/>
     </defs>
     <use xlink:href="#DejaVuSans-2022"/>
     <use xlink:href="#DejaVuSans-20" x="58.984375"/>
     <use xlink:href="#DejaVuSans-57" x="90.771484"/>
     <use xlink:href="#DejaVuSans-61" x="183.273438"/>
     <use xlink:href="#DejaVuSans-6c" x="244.552734"/>
     <use xlink:href="#DejaVuSans-6c" x="272.335938"/>
     <use xlink:href="#DejaVuSans-65" x="300.119141"/>
     <use xlink:href="#DejaVuSans-74" x="361.642578"/>
     <use xlink:href="#DejaVuSans-20" x="400.851562"/>
     <use xlink:href="#DejaVuSans-61" x="432.638672"/>
     <use xlink:href="#DejaVuSans-64" x="493.917969"/>
     <use xlink:href="#DejaVuSans-64" x="557.394531"/>
     <use xlink:href="#DejaVuSans-72" x="620.871094"/>
     <use xlink:href="#DejaVuSans-65" x="659.734375"/>
     <use xlink:href="#DejaVuSans-73" x="721.257812"/>
     <use xlink:href="#DejaVuSans-73" x="773.357422"/>
     <use xlink:href="#DejaVuSans-65" x="825.457031"/>
     <use xlink:href="#DejaVuSans-73" x="886.980469"/>
    </g>
    <!--   (pseudonymous) -->
    <g transform="translate(21.15 129.253766) scale(0.055 -0.055)">
     <defs>
      <path id="DejaVuSans-28" d="M 1984 4856 
Q 1566 4138 1362 3434 
Q 1159 2731 1159 2009 
Q 1159 1288 1364 580 
Q 1569 -128 1984 -844 
L 1484 -844 
Q 1016 -109 783 600 
Q 550 1309 550 2009 
Q 550 2706 781 3412 
Q 1013 4119 1484 4856 
L 1984 4856 
z
" transform="scale(0.015625)"/>
      <path id="DejaVuSans-70" d="M 1159 525 
L 1159 -1331 
L 581 -1331 
L 581 3500 
L 1159 3500 
L 1159 2969 
Q 1341 3281 1617 3432 
Q 1894 3584 2278 3584 
Q 2916 3584 3314 3078 
Q 3713 2572 3713 1747 
Q 3713 922 3314 415 
Q 2916 -91 2278 -91 
Q 1894 -91 1617 61 
Q 1341 213 1159 525 
z
M 3116 1747 
Q 3116 2381 2855 2742 
Q 2594 3103 2138 3103 
Q 1681 3103 1420 2742 
Q 1159 2381 1159 1747 
Q 1159 1113 1420 752 
Q 1681 391 2138 391 
Q 2594 391 2855 752 
Q 3116 1113 3116 1747 
z
" transform="scale(0.015625)"/>
      <path id="DejaVuSans-75" d="M 544 1381 
L 544 3500 
L 1119 3500 
L 1119 1403 
Q 1119 906 1312 657 
Q 1506 409 1894 409 
Q 2359 409 2629 706 
Q 2900 1003 2900 1516 
L 2900 3500 
L 3475 3500 
L 3475 0 
L 2900 0 
L 2900 538 
Q 2691 219 2414 64 
Q 2138 -91 1772 -91 
Q 1169 -91 856 284 
Q 544 659 544 1381 
z
M 1991 3584 
L 1991 3584 
z
" transform="scale(0.015625)"/>
      <path id="DejaVuSans-6f" d="M 1959 3097 
Q 1497 3097 1228 2736 
Q 959 2375 959 1747 
Q 959 1119 1226 758 
Q 1494 397 1959 397 
Q 2419 397 2687 759 
Q 2956 1122 2956 1747 
Q 2956 2369 2687 2733 
Q 2419 3097 1959 3097 
z
M 1959 3584 
Q 2709 3584 3137 3096 
Q 3566 2609 3566 1747 
Q 3566 888 3137 398 
Q 2709 -91 1959 -91 
Q 1206 -91 779 398 
Q 353 888 353 1747 
Q 353 2609 779 3096 
Q 1206 3584 1959 3584 
z
" transform="scale(0.015625)"/>
      <path id="DejaVuSans-6e" d="M 3513 2113 
L 3513 0 
L 2938 0 
L 2938 2094 
Q 2938 2591 2744 2837 
Q 2550 3084 2163 3084 
Q 1697 3084 1428 2787 
Q 1159 2491 1159 1978 
L 1159 0 
L 581 0 
L 581 3500 
L 1159 3500 
L 1159 2956 
Q 1366 3272 1645 3428 
Q 1925 3584 2291 3584 
Q 2894 3584 3203 3211 
Q 3513 2838 3513 2113 
z
" transform="scale(0.015625)"/>
      <path id="DejaVuSans-79" d="M 2059 -325 
Q 1816 -950 1584 -1140 
Q 1353 -1331 966 -1331 
L 506 -1331 
L 506 -850 
L 844 -850 
Q 1081 -850 1212 -737 
Q 1344 -625 1503 -206 
L 1606 56 
L 191 3500 
L 800 3500 
L 1894 763 
L 2988 3500 
L 3597 3500 
L 2059 -325 
z
" transform="scale(0.015625)"/>
      <path id="DejaVuSans-6d" d="M 3328 2828 
Q 3544 3216 3844 3400 
Q 4144 3584 4550 3584 
Q 5097 3584 5394 3201 
Q 5691 2819 5691 2113 
L 5691 0 
L 5113 0 
L 5113 2094 
Q 5113 2597 4934 2840 
Q 4756 3084 4391 3084 
Q 3944 3084 3684 2787 
Q 3425 2491 3425 1978 
L 3425 0 
L 2847 0 
L 2847 2094 
Q 2847 2600 2669 2842 
Q 2491 3084 2119 3084 
Q 1678 3084 1418 2786 
Q 1159 2488 1159 1978 
L 1159 0 
L 581 0 
L 581 3500 
L 1159 3500 
L 1159 2956 
Q 1356 3278 1631 3431 
Q 1906 3584 2284 3584 
Q 2666 3584 2933 3390 
Q 3200 3197 3328 2828 
z
" transform="scale(0.015625)"/>
      <path id="DejaVuSans-29" d="M 513 4856 
L 1013 4856 
Q 1481 4119 1714 3412 
Q 1947 2706 1947 2009 
Q 1947 1309 1714 600 
Q 1481 -109 1013 -844 
L 513 -844 
Q 928 -128 1133 580 
Q 1338 1288 1338 2009 
Q 1338 2731 1133 3434 
Q 928 4138 513 4856 
z
" transform="scale(0.015625)"/>
     </defs>
     <use xlink:href="#DejaVuSans-20"/>
     <use xlink:href="#DejaVuSans-20" x="31.787109"/>
     <use xlink:href="#DejaVuSans-28" x="63.574219"/>
     <use xlink:href="#DejaVuSans-70" x="102.587891"/>
     <use xlink:href="#DejaVuSans-73" x="166.064453"/>
     <use xlink:href="#DejaVuSans-65" x="218.164062"/>
     <use xlink:href="#DejaVuSans-75" x="279.6875"/>
     <use xlink:href="#DejaVuSans-64" x="343.066406"/>
     <use xlink:href="#DejaVuSans-6f" x="406.542969"/>
     <use xlink:href="#DejaVuSans-6e" x="467.724609"/>
     <use xlink:href="#DejaVuSans-79" x="531.103516"/>
     <use xlink:href="#DejaVuSans-6d" x="590.283203"/>
     <use xlink:href="#DejaVuSans-6f" x="687.695312"/>
     <use xlink:href="#DejaVuSans-75" x="748.876953"/>
     <use xlink:href="#DejaVuSans-73" x="812.255859"/>
     <use xlink:href="#DejaVuSans-29" x="864.355469"/>
    </g>
    <!-- • Consent event hashes -->
    <g transform="translate(21.15 136.248391) scale(0.055 -0.055)">
     <defs>
      <path id="DejaVuSans-43" d="M 4122 4306 
L 4122 3641 
Q 3803 3938 3442 4084 
Q 3081 4231 2675 4231 
Q 1875 4231 1450 3742 
Q 1025 3253 1025 2328 
Q 1025 1406 1450 917 
Q 1875 428 2675 428 
Q 3081 428 3442 575 
Q 3803 722 4122 1019 
L 4122 359 
Q 3791 134 3420 21 
Q 3050 -91 2638 -91 
Q 1578 -91 968 557 
Q 359 1206 359 2328 
Q 359 3453 968 4101 
Q 1578 4750 2638 4750 
Q 3056 4750 3426 4639 
Q 3797 4528 4122 4306 
z
" transform="scale(0.015625)"/>
      <path id="DejaVuSans-76" d="M 191 3500 
L 800 3500 
L 1894 563 
L 2988 3500 
L 3597 3500 
L 2284 0 
L 1503 0 
L 191 3500 
z
" transform="scale(0.015625)"/>
      <path id="DejaVuSans-68" d="M 3513 2113 
L 3513 0 
L 2938 0 
L 2938 2094 
Q 2938 2591 2744 2837 
Q 2550 3084 2163 3084 
Q 1697 3084 1428 2787 
Q 1159 2491 1159 1978 
L 1159 0 
L 581 0 
L 581 4863 
L 1159 4863 
L 1159 2956 
Q 1366 3272 1645 3428 
Q 1925 3584 2291 3584 
Q 2894 3584 3203 3211 
Q 3513 2838 3513 2113 
z
" transform="scale(0.015625)"/>
     </defs>
     <use xlink:href="#DejaVuSans-2022"/>
     <use xlink:href="#DejaVuSans-20" x="58.984375"/>
     <use xlink:href="#DejaVuSans-43" x="90.771484"/>
     <use xlink:href="#DejaVuSans-6f" x="160.595703"/>
     <use xlink:href="#DejaVuSans-6e" x="221.777344"/>
     <use xlink:href="#DejaVuSans-73" x="285.15625"/>
     <use xlink:href="#DejaVuSans-65" x="337.255859"/>
     <use xlink:href="#DejaVuSans-6e" x="398.779297"/>
     <use xlink:href="#DejaVuSans-74" x="462.158203"/>
     <use xlink:href="#DejaVuSans-20" x="501.367188"/>
     <use xlink:href="#DejaVuSans-65" x="533.154297"/>
     <use xlink:href="#DejaVuSans-76" x="594.677734"/>
     <use xlink:href="#DejaVuSans-65" x="653.857422"/>
     <use xlink:href="#DejaVuSans-6e" x="715.380859"/>
     <use xlink:href="#DejaVuSans-74" x="778.759766"/>
     <use xlink:href="#DejaVuSans-20" x="817.96875"/>
     <use xlink:href="#DejaVuSans-68" x="849.755859"/>
     <use xlink:href="#DejaVuSans-61" x="913.134766"/>
     <use xlink:href="#DejaVuSans-73" x="974.414062"/>
     <use xlink:href="#DejaVuSans-68" x="1026.513672"/>
     <use xlink:href="#DejaVuSans-65" x="1089.892578"/>
     <use xlink:href="#DejaVuSans-73" x="1151.416016"/>
    </g>
    <!-- • Session timestamps -->
    <g transform="translate(21.15 143.243016) scale(0.055 -0.055)">
     <defs>
      <path id="DejaVuSans-53" d="M 3425 4513 
L 3425 3897 
Q 3066 4069 2747 4153 
Q 2428 4238 2131 4238 
Q 1616 4238 1336 4038 
Q 1056 3838 1056 3469 
Q 1056 3159 1242 3001 
Q 1428 2844 1947 2747 
L 2328 2669 
Q 3034 2534 3370 2195 
Q 3706 1856 3706 1288 
Q 3706 609 3251 259 
Q 2797 -91 1919 -91 
Q 1588 -91 1214 -16 
Q 841 59 441 206 
L 441 856 
Q 825 641 1194 531 
Q 1563 422 1919 422 
Q 2459 422 2753 634 
Q 3047 847 3047 1241 
Q 3047 1584 2836 1778 
Q 2625 1972 2144 2069 
L 1759 2144 
Q 1053 2284 737 2584 
Q 422 2884 422 3419 
Q 422 4038 858 4394 
Q 1294 4750 2059 4750 
Q 2388 4750 2728 4690 
Q 3069 4631 3425 4513 
z
" transform="scale(0.015625)"/>
      <path id="DejaVuSans-69" d="M 603 3500 
L 1178 3500 
L 1178 0 
L 603 0 
L 603 3500 
z
M 603 4863 
L 1178 4863 
L 1178 4134 
L 603 4134 
L 603 4863 
z
" transform="scale(0.015625)"/>
     </defs>
     <use xlink:href="#DejaVuSans-2022"/>
     <use xlink:href="#DejaVuSans-20" x="58.984375"/>
     <use xlink:href="#DejaVuSans-53" x="90.771484"/>
     <use xlink:href="#DejaVuSans-65" x="154.248047"/>
     <use xlink:href="#DejaVuSans-73" x="215.771484"/>
     <use xlink:href="#DejaVuSans-73" x="267.871094"/>
     <use xlink:href="#DejaVuSans-69" x="319.970703"/>
     <use xlink:href="#DejaVuSans-6f" x="347.753906"/>
     <use xlink:href="#DejaVuSans-6e" x="408.935547"/>
     <use xlink:href="#DejaVuSans-20" x="472.314453"/>
     <use xlink:href="#DejaVuSans-74" x="504.101562"/>
     <use xlink:href="#DejaVuSans-69" x="543.310547"/>
     <use xlink:href="#DejaVuSans-6d" x="571.09375"/>
     <use xlink:href="#DejaVuSans-65" x="668.505859"/>
     <use xlink:href="#DejaVuSans-73" x="730.029297"/>
     <use xlink:href="#DejaVuSans-74" x="782.128906"/>
     <use xlink:href="#DejaVuSans-61" x="821.337891"/>
     <use xlink:href="#DejaVuSans-6d" x="882.617188"/>
     <use xlink:href="#DejaVuSans-70" x="980.029297"/>
     <use xlink:href="#DejaVuSans-73" x="1043.505859"/>
    </g>
    <!-- • Achievement credentials -->
    <g transform="translate(21.15 150.237641) scale(0.055 -0.055)">
     <defs>
      <path id="DejaVuSans-41" d="M 2188 4044 
L 1331 1722 
L 3047 1722 
L 2188 4044 
z
M 1831 4666 
L 2547 4666 
L 4325 0 
L 3669 0 
L 3244 1197 
L 1141 1197 
L 716 0 
L 50 0 
L 1831 4666 
z
" transform="scale(0.015625)"/>
      <path id="DejaVuSans-63" d="M 3122 3366 
L 3122 2828 
Q 2878 2963 2633 3030 
Q 2388 3097 2138 3097 
Q 1578 3097 1268 2742 
Q 959 2388 959 1747 
Q 959 1106 1268 751 
Q 1578 397 2138 397 
Q 2388 397 2633 464 
Q 2878 531 3122 666 
L 3122 134 
Q 2881 22 2623 -34 
Q 2366 -91 2075 -91 
Q 1284 -91 818 406 
Q 353 903 353 1747 
Q 353 2603 823 3093 
Q 1294 3584 2113 3584 
Q 2378 3584 2631 3529 
Q 2884 3475 3122 3366 
z
" transform="scale(0.015625)"/>
     </defs>
     <use xlink:href="#DejaVuSans-2022"/>
     <use xlink:href="#DejaVuSans-20" x="58.984375"/>
     <use xlink:href="#DejaVuSans-41" x="90.771484"/>
     <use xlink:href="#DejaVuSans-63" x="157.429688"/>
     <use xlink:href="#DejaVuSans-68" x="212.410156"/>
     <use xlink:href="#DejaVuSans-69" x="275.789062"/>
     <use xlink:href="#DejaVuSans-65" x="303.572266"/>
     <use xlink:href="#DejaVuSans-76" x="365.095703"/>
     <use xlink:href="#DejaVuSans-65" x="424.275391"/>
     <use xlink:href="#DejaVuSans-6d" x="485.798828"/>
     <use xlink:href="#DejaVuSans-65" x="583.210938"/>
     <use xlink:href="#DejaVuSans-6e" x="644.734375"/>
     <use xlink:href="#DejaVuSans-74" x="708.113281"/>
     <use xlink:href="#DejaVuSans-20" x="747.322266"/>
     <use xlink:href="#DejaVuSans-63" x="779.109375"/>
     <use xlink:href="#DejaVuSans-72" x="834.089844"/>
     <use xlink:href="#DejaVuSans-65" x="872.953125"/>
     <use xlink:href="#DejaVuSans-64" x="934.476562"/>
     <use xlink:href="#DejaVuSans-65" x="997.953125"/>
     <use xlink:href="#DejaVuSans-6e" x="1059.476562"/>
     <use xlink:href="#DejaVuSans-74" x="1122.855469"/>
     <use xlink:href="#DejaVuSans-69" x="1162.064453"/>
     <use xlink:href="#DejaVuSans-61" x="1189.847656"/>
     <use xlink:href="#DejaVuSans-6c" x="1251.126953"/>
     <use xlink:href="#DejaVuSans-73" x="1278.910156"/>
    </g>
    <!--   (soulbound) -->
    <g transform="translate(21.15 157.232266) scale(0.055 -0.055)">
     <defs>
      <path id="DejaVuSans-62" d="M 3116 1747 
Q 3116 2381 2855 2742 
Q 2594 3103 2138 3103 
Q 1681 3103 1420 2742 
Q 1159 2381 1159 1747 
Q 1159 1113 1420 752 
Q 1681 391 2138 391 
Q 2594 391 2855 752 
Q 3116 1113 3116 1747 
z
M 1159 2969 
Q 1341 3281 1617 3432 
Q 1894 3584 2278 3584 
Q 2916 3584 3314 3078 
Q 3713 2572 3713 1747 
Q 3713 922 3314 415 
Q 2916 -91 2278 -91 
Q 1894 -91 1617 61 
Q 1341 213 1159 525 
L 1159 0 
L 581 0 
L 581 4863 
L 1159 4863 
L 1159 2969 
z
" transform="scale(0.015625)"/>
     </defs>
     <use xlink:href="#DejaVuSans-20"/>
     <use xlink:href="#DejaVuSans-20" x="31.787109"/>
     <use xlink:href="#DejaVuSans-28" x="63.574219"/>
     <use xlink:href="#DejaVuSans-73" x="102.587891"/>
     <use xlink:href="#DejaVuSans-6f" x="154.6875"/>
     <use xlink:href="#DejaVuSans-75" x="215.869141"/>
     <use xlink:href="#DejaVuSans-6c" x="279.248047"/>
     <use xlink:href="#DejaVuSans-62" x="307.03125"/>
     <use xlink:href="#DejaVuSans-6f" x="370.507812"/>
     <use xlink:href="#DejaVuSans-75" x="431.689453"/>
     <use xlink:href="#DejaVuSans-6e" x="495.068359"/>
     <use xlink:href="#DejaVuSans-64" x="558.447266"/>
     <use xlink:href="#DejaVuSans-29" x="621.923828"/>
    </g>
    <!-- • Engagement records -->
    <g transform="translate(21.15 164.226891) scale(0.055 -0.055)">
     <defs>
      <path id="DejaVuSans-45" d="M 628 4666 
L 3578 4666 
L 3578 4134 
L 1259 4134 
L 1259 2753 
L 3481 2753 
L 3481 2222 
L 1259 2222 
L 1259 531 
L 3634 531 
L 3634 0 
L 628 0 
L 628 4666 
z
" transform="scale(0.015625)"/>
      <path id="DejaVuSans-67" d="M 2906 1791 
Q 2906 2416 2648 2759 
Q 2391 3103 1925 3103 
Q 1463 3103 1205 2759 
Q 947 2416 947 1791 
Q 947 1169 1205 825 
Q 1463 481 1925 481 
Q 2391 481 2648 825 
Q 2906 1169 2906 1791 
z
M 3481 434 
Q 3481 -459 3084 -895 
Q 2688 -1331 1869 -1331 
Q 1566 -1331 1297 -1286 
Q 1028 -1241 775 -1147 
L 775 -588 
Q 1028 -725 1275 -790 
Q 1522 -856 1778 -856 
Q 2344 -856 2625 -561 
Q 2906 -266 2906 331 
L 2906 616 
Q 2728 306 2450 153 
Q 2172 0 1784 0 
Q 1141 0 747 490 
Q 353 981 353 1791 
Q 353 2603 747 3093 
Q 1141 3584 1784 3584 
Q 2172 3584 2450 3431 
Q 2728 3278 2906 2969 
L 2906 3500 
L 3481 3500 
L 3481 434 
z
" transform="scale(0.015625)"/>
     </defs>
     <use xlink:href="#DejaVuSans-2022"/>
     <use xlink:href="#DejaVuSans-20" x="58.984375"/>
     <use xlink:href="#DejaVuSans-45" x="90.771484"/>
     <use xlink:href="#DejaVuSans-6e" x="153.955078"/>
     <use xlink:href="#DejaVuSans-67" x="217.333984"/>
     <use xlink:href="#DejaVuSans-61" x="280.810547"/>
     <use xlink:href="#DejaVuSans-67" x="342.089844"/>
     <use xlink:href="#DejaVuSans-65" x="405.566406"/>
     <use xlink:href="#DejaVuSans-6d" x="467.089844"/>
     <use xlink:href="#DejaVuSans-65" x="564.501953"/>
     <use xlink:href="#DejaVuSans-6e" x="626.025391"/>
     <use xlink:href="#DejaVuSans-74" x="689.404297"/>
     <use xlink:href="#DejaVuSans-20" x="728.613281"/>
     <use xlink:href="#DejaVuSans-72" x="760.400391"/>
     <use xlink:href="#DejaVuSans-65" x="799.263672"/>
     <use xlink:href="#DejaVuSans-63" x="860.787109"/>
     <use xlink:href="#DejaVuSans-6f" x="915.767578"/>
     <use xlink:href="#DejaVuSans-72" x="976.949219"/>
     <use xlink:href="#DejaVuSans-64" x="1016.3125"/>
     <use xlink:href="#DejaVuSans-73" x="1079.789062"/>
    </g>
    <!--   (voluntary) -->
    <g transform="translate(21.15 171.221516) scale(0.055 -0.055)">
     <use xlink:href="#DejaVuSans-20"/>
     <use xlink:href="#DejaVuSans-20" x="31.787109"/>
     <use xlink:href="#DejaVuSans-28" x="63.574219"/>
     <use xlink:href="#DejaVuSans-76" x="102.587891"/>
     <use xlink:href="#DejaVuSans-6f" x="161.767578"/>
     <use xlink:href="#DejaVuSans-6c" x="222.949219"/>
     <use xlink:href="#DejaVuSans-75" x="250.732422"/>
     <use xlink:href="#DejaVuSans-6e" x="314.111328"/>
     <use xlink:href="#DejaVuSans-74" x="377.490234"/>
     <use xlink:href="#DejaVuSans-61" x="416.699219"/>
     <use xlink:href="#DejaVuSans-72" x="477.978516"/>
     <use xlink:href="#DejaVuSans-79" x="519.091797"/>
     <use xlink:href="#DejaVuSans-29" x="578.271484"/>
    </g>
   </g>
   <g id="text_4">
    <!-- OFF-CHAIN -->
    <g transform="translate(179.710312 82.944914) scale(0.065 -0.065)">
     <defs>
      <path id="DejaVuSans-Bold-46" d="M 588 4666 
L 3834 4666 
L 3834 3756 
L 1791 3756 
L 1791 2888 
L 3713 2888 
L 3713 1978 
L 1791 1978 
L 1791 0 
L 588 0 
L 588 4666 
z
" transform="scale(0.015625)"/>
     </defs>
     <use xlink:href="#DejaVuSans-Bold-4f"/>
     <use xlink:href="#DejaVuSans-Bold-46" x="85.009766"/>
     <use xlink:href="#DejaVuSans-Bold-46" x="153.320312"/>
     <use xlink:href="#DejaVuSans-Bold-2d" x="218.505859"/>
     <use xlink:href="#DejaVuSans-Bold-43" x="260.009766"/>
     <use xlink:href="#DejaVuSans-Bold-48" x="333.398438"/>
     <use xlink:href="#DejaVuSans-Bold-41" x="417.089844"/>
     <use xlink:href="#DejaVuSans-Bold-49" x="494.482422"/>
     <use xlink:href="#DejaVuSans-Bold-4e" x="531.689453"/>
    </g>
    <!-- (Encrypted, Deletable) -->
    <g transform="translate(158.168906 90.223492) scale(0.065 -0.065)">
     <defs>
      <path id="DejaVuSans-Bold-45" d="M 588 4666 
L 3834 4666 
L 3834 3756 
L 1791 3756 
L 1791 2888 
L 3713 2888 
L 3713 1978 
L 1791 1978 
L 1791 909 
L 3903 909 
L 3903 0 
L 588 0 
L 588 4666 
z
" transform="scale(0.015625)"/>
      <path id="DejaVuSans-Bold-6e" d="M 4056 2131 
L 4056 0 
L 2931 0 
L 2931 347 
L 2931 1631 
Q 2931 2084 2911 2256 
Q 2891 2428 2841 2509 
Q 2775 2619 2662 2680 
Q 2550 2741 2406 2741 
Q 2056 2741 1856 2470 
Q 1656 2200 1656 1722 
L 1656 0 
L 538 0 
L 538 3500 
L 1656 3500 
L 1656 2988 
Q 1909 3294 2193 3439 
Q 2478 3584 2822 3584 
Q 3428 3584 3742 3212 
Q 4056 2841 4056 2131 
z
" transform="scale(0.015625)"/>
      <path id="DejaVuSans-Bold-72" d="M 3138 2547 
Q 2991 2616 2845 2648 
Q 2700 2681 2553 2681 
Q 2122 2681 1889 2404 
Q 1656 2128 1656 1613 
L 1656 0 
L 538 0 
L 538 3500 
L 1656 3500 
L 1656 2925 
Q 1872 3269 2151 3426 
Q 2431 3584 2822 3584 
Q 2878 3584 2943 3579 
Q 3009 3575 3134 3559 
L 3138 2547 
z
" transform="scale(0.015625)"/>
      <path id="DejaVuSans-Bold-79" d="M 78 3500 
L 1197 3500 
L 2138 1125 
L 2938 3500 
L 4056 3500 
L 2584 -331 
Q 2363 -916 2067 -1148 
Q 1772 -1381 1288 -1381 
L 641 -1381 
L 641 -647 
L 991 -647 
Q 1275 -647 1404 -556 
Q 1534 -466 1606 -231 
L 1638 -134 
L 78 3500 
z
" transform="scale(0.015625)"/>
      <path id="DejaVuSans-Bold-70" d="M 1656 506 
L 1656 -1331 
L 538 -1331 
L 538 3500 
L 1656 3500 
L 1656 2988 
Q 1888 3294 2169 3439 
Q 2450 3584 2816 3584 
Q 3463 3584 3878 3070 
Q 4294 2556 4294 1747 
Q 4294 938 3878 423 
Q 3463 -91 2816 -91 
Q 2450 -91 2169 54 
Q 1888 200 1656 506 
z
M 2400 2772 
Q 2041 2772 1848 2508 
Q 1656 2244 1656 1747 
Q 1656 1250 1848 986 
Q 2041 722 2400 722 
Q 2759 722 2948 984 
Q 3138 1247 3138 1747 
Q 3138 2247 2948 2509 
Q 2759 2772 2400 2772 
z
" transform="scale(0.015625)"/>
      <path id="DejaVuSans-Bold-64" d="M 2919 2988 
L 2919 4863 
L 4044 4863 
L 4044 0 
L 2919 0 
L 2919 506 
Q 2688 197 2409 53 
Q 2131 -91 1766 -91 
Q 1119 -91 703 423 
Q 288 938 288 1747 
Q 288 2556 703 3070 
Q 1119 3584 1766 3584 
Q 2128 3584 2408 3439 
Q 2688 3294 2919 2988 
z
M 2181 722 
Q 2541 722 2730 984 
Q 2919 1247 2919 1747 
Q 2919 2247 2730 2509 
Q 2541 2772 2181 2772 
Q 1825 2772 1636 2509 
Q 1447 2247 1447 1747 
Q 1447 1247 1636 984 
Q 1825 722 2181 722 
z
" transform="scale(0.015625)"/>
      <path id="DejaVuSans-Bold-44" d="M 1791 3756 
L 1791 909 
L 2222 909 
Q 2959 909 3348 1275 
Q 3738 1641 3738 2338 
Q 3738 3031 3350 3393 
Q 2963 3756 2222 3756 
L 1791 3756 
z
M 588 4666 
L 1856 4666 
Q 2919 4666 3439 4514 
Q 3959 4363 4331 4000 
Q 4659 3684 4818 3271 
Q 4978 2859 4978 2338 
Q 4978 1809 4818 1395 
Q 4659 981 4331 666 
Q 3956 303 3431 151 
Q 2906 0 1856 0 
L 588 0 
L 588 4666 
z
" transform="scale(0.015625)"/>
     </defs>
     <use xlink:href="#DejaVuSans-Bold-28"/>
     <use xlink:href="#DejaVuSans-Bold-45" x="45.703125"/>
     <use xlink:href="#DejaVuSans-Bold-6e" x="114.013672"/>
     <use xlink:href="#DejaVuSans-Bold-63" x="185.205078"/>
     <use xlink:href="#DejaVuSans-Bold-72" x="244.482422"/>
     <use xlink:href="#DejaVuSans-Bold-79" x="293.798828"/>
     <use xlink:href="#DejaVuSans-Bold-70" x="358.984375"/>
     <use xlink:href="#DejaVuSans-Bold-74" x="430.566406"/>
     <use xlink:href="#DejaVuSans-Bold-65" x="478.369141"/>
     <use xlink:href="#DejaVuSans-Bold-64" x="546.191406"/>
     <use xlink:href="#DejaVuSans-Bold-2c" x="617.773438"/>
     <use xlink:href="#DejaVuSans-Bold-20" x="655.761719"/>
     <use xlink:href="#DejaVuSans-Bold-44" x="690.576172"/>
     <use xlink:href="#DejaVuSans-Bold-65" x="773.583984"/>
     <use xlink:href="#DejaVuSans-Bold-6c" x="841.40625"/>
     <use xlink:href="#DejaVuSans-Bold-65" x="875.683594"/>
     <use xlink:href="#DejaVuSans-Bold-74" x="943.505859"/>
     <use xlink:href="#DejaVuSans-Bold-61" x="991.308594"/>
     <use xlink:href="#DejaVuSans-Bold-62" x="1058.789062"/>
     <use xlink:href="#DejaVuSans-Bold-6c" x="1130.371094"/>
     <use xlink:href="#DejaVuSans-Bold-65" x="1164.648438"/>
     <use xlink:href="#DejaVuSans-Bold-29" x="1232.470703"/>
    </g>
   </g>
   <g id="text_5">
    <!-- • Session metadata -->
    <g transform="translate(149.49 122.259141) scale(0.055 -0.055)">
     <use xlink:href="#DejaVuSans-2022"/>
     <use xlink:href="#DejaVuSans-20" x="58.984375"/>
     <use xlink:href="#DejaVuSans-53" x="90.771484"/>
     <use xlink:href="#DejaVuSans-65" x="154.248047"/>
     <use xlink:href="#DejaVuSans-73" x="215.771484"/>
     <use xlink:href="#DejaVuSans-73" x="267.871094"/>
     <use xlink:href="#DejaVuSans-69" x="319.970703"/>
     <use xlink:href="#DejaVuSans-6f" x="347.753906"/>
     <use xlink:href="#DejaVuSans-6e" x="408.935547"/>
     <use xlink:href="#DejaVuSans-20" x="472.314453"/>
     <use xlink:href="#DejaVuSans-6d" x="504.101562"/>
     <use xlink:href="#DejaVuSans-65" x="601.513672"/>
     <use xlink:href="#DejaVuSans-74" x="663.037109"/>
     <use xlink:href="#DejaVuSans-61" x="702.246094"/>
     <use xlink:href="#DejaVuSans-64" x="763.525391"/>
     <use xlink:href="#DejaVuSans-61" x="827.001953"/>
     <use xlink:href="#DejaVuSans-74" x="888.28125"/>
     <use xlink:href="#DejaVuSans-61" x="927.490234"/>
    </g>
    <!--   (aggregate) -->
    <g transform="translate(149.49 129.253766) scale(0.055 -0.055)">
     <use xlink:href="#DejaVuSans-20"/>
     <use xlink:href="#DejaVuSans-20" x="31.787109"/>
     <use xlink:href="#DejaVuSans-28" x="63.574219"/>
     <use xlink:href="#DejaVuSans-61" x="102.587891"/>
     <use xlink:href="#DejaVuSans-67" x="163.867188"/>
     <use xlink:href="#DejaVuSans-67" x="227.34375"/>
     <use xlink:href="#DejaVuSans-72" x="290.820312"/>
     <use xlink:href="#DejaVuSans-65" x="329.683594"/>
     <use xlink:href="#DejaVuSans-67" x="391.207031"/>
     <use xlink:href="#DejaVuSans-61" x="454.683594"/>
     <use xlink:href="#DejaVuSans-74" x="515.962891"/>
     <use xlink:href="#DejaVuSans-65" x="555.171875"/>
     <use xlink:href="#DejaVuSans-29" x="616.695312"/>
    </g>
    <!-- • Wellness metrics -->
    <g transform="translate(149.49 136.248391) scale(0.055 -0.055)">
     <use xlink:href="#DejaVuSans-2022"/>
     <use xlink:href="#DejaVuSans-20" x="58.984375"/>
     <use xlink:href="#DejaVuSans-57" x="90.771484"/>
     <use xlink:href="#DejaVuSans-65" x="183.773438"/>
     <use xlink:href="#DejaVuSans-6c" x="245.296875"/>
     <use xlink:href="#DejaVuSans-6c" x="273.080078"/>
     <use xlink:href="#DejaVuSans-6e" x="300.863281"/>
     <use xlink:href="#DejaVuSans-65" x="364.242188"/>
     <use xlink:href="#DejaVuSans-73" x="425.765625"/>
     <use xlink:href="#DejaVuSans-73" x="477.865234"/>
     <use xlink:href="#DejaVuSans-20" x="529.964844"/>
     <use xlink:href="#DejaVuSans-6d" x="561.751953"/>
     <use xlink:href="#DejaVuSans-65" x="659.164062"/>
     <use xlink:href="#DejaVuSans-74" x="720.6875"/>
     <use xlink:href="#DejaVuSans-72" x="759.896484"/>
     <use xlink:href="#DejaVuSans-69" x="801.009766"/>
     <use xlink:href="#DejaVuSans-63" x="828.792969"/>
     <use xlink:href="#DejaVuSans-73" x="883.773438"/>
    </g>
    <!--   (non-clinical) -->
    <g transform="translate(149.49 143.243016) scale(0.055 -0.055)">
     <defs>
      <path id="DejaVuSans-2d" d="M 313 2009 
L 1997 2009 
L 1997 1497 
L 313 1497 
L 313 2009 
z
" transform="scale(0.015625)"/>
     </defs>
     <use xlink:href="#DejaVuSans-20"/>
     <use xlink:href="#DejaVuSans-20" x="31.787109"/>
     <use xlink:href="#DejaVuSans-28" x="63.574219"/>
     <use xlink:href="#DejaVuSans-6e" x="102.587891"/>
     <use xlink:href="#DejaVuSans-6f" x="165.966797"/>
     <use xlink:href="#DejaVuSans-6e" x="227.148438"/>
     <use xlink:href="#DejaVuSans-2d" x="290.527344"/>
     <use xlink:href="#DejaVuSans-63" x="326.611328"/>
     <use xlink:href="#DejaVuSans-6c" x="381.591797"/>
     <use xlink:href="#DejaVuSans-69" x="409.375"/>
     <use xlink:href="#DejaVuSans-6e" x="437.158203"/>
     <use xlink:href="#DejaVuSans-69" x="500.537109"/>
     <use xlink:href="#DejaVuSans-63" x="528.320312"/>
     <use xlink:href="#DejaVuSans-61" x="583.300781"/>
     <use xlink:href="#DejaVuSans-6c" x="644.580078"/>
     <use xlink:href="#DejaVuSans-29" x="672.363281"/>
    </g>
    <!-- • Encrypted docs (IPFS) -->
    <g transform="translate(149.49 150.237641) scale(0.055 -0.055)">
     <defs>
      <path id="DejaVuSans-49" d="M 628 4666 
L 1259 4666 
L 1259 0 
L 628 0 
L 628 4666 
z
" transform="scale(0.015625)"/>
      <path id="DejaVuSans-50" d="M 1259 4147 
L 1259 2394 
L 2053 2394 
Q 2494 2394 2734 2622 
Q 2975 2850 2975 3272 
Q 2975 3691 2734 3919 
Q 2494 4147 2053 4147 
L 1259 4147 
z
M 628 4666 
L 2053 4666 
Q 2838 4666 3239 4311 
Q 3641 3956 3641 3272 
Q 3641 2581 3239 2228 
Q 2838 1875 2053 1875 
L 1259 1875 
L 1259 0 
L 628 0 
L 628 4666 
z
" transform="scale(0.015625)"/>
      <path id="DejaVuSans-46" d="M 628 4666 
L 3309 4666 
L 3309 4134 
L 1259 4134 
L 1259 2759 
L 3109 2759 
L 3109 2228 
L 1259 2228 
L 1259 0 
L 628 0 
L 628 4666 
z
" transform="scale(0.015625)"/>
     </defs>
     <use xlink:href="#DejaVuSans-2022"/>
     <use xlink:href="#DejaVuSans-20" x="58.984375"/>
     <use xlink:href="#DejaVuSans-45" x="90.771484"/>
     <use xlink:href="#DejaVuSans-6e" x="153.955078"/>
     <use xlink:href="#DejaVuSans-63" x="217.333984"/>
     <use xlink:href="#DejaVuSans-72" x="272.314453"/>
     <use xlink:href="#DejaVuSans-79" x="313.427734"/>
     <use xlink:href="#DejaVuSans-70" x="372.607422"/>
     <use xlink:href="#DejaVuSans-74" x="436.083984"/>
     <use xlink:href="#DejaVuSans-65" x="475.292969"/>
     <use xlink:href="#DejaVuSans-64" x="536.816406"/>
     <use xlink:href="#DejaVuSans-20" x="600.292969"/>
     <use xlink:href="#DejaVuSans-64" x="632.080078"/>
     <use xlink:href="#DejaVuSans-6f" x="695.556641"/>
     <use xlink:href="#DejaVuSans-63" x="756.738281"/>
     <use xlink:href="#DejaVuSans-73" x="811.71875"/>
     <use xlink:href="#DejaVuSans-20" x="863.818359"/>
     <use xlink:href="#DejaVuSans-28" x="895.605469"/>
     <use xlink:href="#DejaVuSans-49" x="934.619141"/>
     <use xlink:href="#DejaVuSans-50" x="964.111328"/>
     <use xlink:href="#DejaVuSans-46" x="1024.414062"/>
     <use xlink:href="#DejaVuSans-53" x="1080.183594"/>
     <use xlink:href="#DejaVuSans-29" x="1143.660156"/>
    </g>
    <!-- • Consent grant records -->
    <g transform="translate(149.49 157.232266) scale(0.055 -0.055)">
     <use xlink:href="#DejaVuSans-2022"/>
     <use xlink:href="#DejaVuSans-20" x="58.984375"/>
     <use xlink:href="#DejaVuSans-43" x="90.771484"/>
     <use xlink:href="#DejaVuSans-6f" x="160.595703"/>
     <use xlink:href="#DejaVuSans-6e" x="221.777344"/>
     <use xlink:href="#DejaVuSans-73" x="285.15625"/>
     <use xlink:href="#DejaVuSans-65" x="337.255859"/>
     <use xlink:href="#DejaVuSans-6e" x="398.779297"/>
     <use xlink:href="#DejaVuSans-74" x="462.158203"/>
     <use xlink:href="#DejaVuSans-20" x="501.367188"/>
     <use xlink:href="#DejaVuSans-67" x="533.154297"/>
     <use xlink:href="#DejaVuSans-72" x="596.630859"/>
     <use xlink:href="#DejaVuSans-61" x="637.744141"/>
     <use xlink:href="#DejaVuSans-6e" x="699.023438"/>
     <use xlink:href="#DejaVuSans-74" x="762.402344"/>
     <use xlink:href="#DejaVuSans-20" x="801.611328"/>
     <use xlink:href="#DejaVuSans-72" x="833.398438"/>
     <use xlink:href="#DejaVuSans-65" x="872.261719"/>
     <use xlink:href="#DejaVuSans-63" x="933.785156"/>
     <use xlink:href="#DejaVuSans-6f" x="988.765625"/>
     <use xlink:href="#DejaVuSans-72" x="1049.947266"/>
     <use xlink:href="#DejaVuSans-64" x="1089.310547"/>
     <use xlink:href="#DejaVuSans-73" x="1152.787109"/>
    </g>
    <!-- • Wallet-gated keys -->
    <g transform="translate(149.49 164.226891) scale(0.055 -0.055)">
     <defs>
      <path id="DejaVuSans-6b" d="M 581 4863 
L 1159 4863 
L 1159 1991 
L 2875 3500 
L 3609 3500 
L 1753 1863 
L 3688 0 
L 2938 0 
L 1159 1709 
L 1159 0 
L 581 0 
L 581 4863 
z
" transform="scale(0.015625)"/>
     </defs>
     <use xlink:href="#DejaVuSans-2022"/>
     <use xlink:href="#DejaVuSans-20" x="58.984375"/>
     <use xlink:href="#DejaVuSans-57" x="90.771484"/>
     <use xlink:href="#DejaVuSans-61" x="183.273438"/>
     <use xlink:href="#DejaVuSans-6c" x="244.552734"/>
     <use xlink:href="#DejaVuSans-6c" x="272.335938"/>
     <use xlink:href="#DejaVuSans-65" x="300.119141"/>
     <use xlink:href="#DejaVuSans-74" x="361.642578"/>
     <use xlink:href="#DejaVuSans-2d" x="400.851562"/>
     <use xlink:href="#DejaVuSans-67" x="436.935547"/>
     <use xlink:href="#DejaVuSans-61" x="500.412109"/>
     <use xlink:href="#DejaVuSans-74" x="561.691406"/>
     <use xlink:href="#DejaVuSans-65" x="600.900391"/>
     <use xlink:href="#DejaVuSans-64" x="662.423828"/>
     <use xlink:href="#DejaVuSans-20" x="725.900391"/>
     <use xlink:href="#DejaVuSans-6b" x="757.6875"/>
     <use xlink:href="#DejaVuSans-65" x="811.972656"/>
     <use xlink:href="#DejaVuSans-79" x="873.496094"/>
     <use xlink:href="#DejaVuSans-73" x="932.675781"/>
    </g>
   </g>
   <g id="text_6">
    <!-- NEVER STORED -->
    <g transform="translate(299.999453 82.944914) scale(0.065 -0.065)">
     <defs>
      <path id="DejaVuSans-Bold-56" d="M 31 4666 
L 1241 4666 
L 2478 1222 
L 3713 4666 
L 4922 4666 
L 3194 0 
L 1759 0 
L 31 4666 
z
" transform="scale(0.015625)"/>
      <path id="DejaVuSans-Bold-52" d="M 2297 2597 
Q 2675 2597 2839 2737 
Q 3003 2878 3003 3200 
Q 3003 3519 2839 3656 
Q 2675 3794 2297 3794 
L 1791 3794 
L 1791 2597 
L 2297 2597 
z
M 1791 1766 
L 1791 0 
L 588 0 
L 588 4666 
L 2425 4666 
Q 3347 4666 3776 4356 
Q 4206 4047 4206 3378 
Q 4206 2916 3982 2619 
Q 3759 2322 3309 2181 
Q 3556 2125 3751 1926 
Q 3947 1728 4147 1325 
L 4800 0 
L 3519 0 
L 2950 1159 
Q 2778 1509 2601 1637 
Q 2425 1766 2131 1766 
L 1791 1766 
z
" transform="scale(0.015625)"/>
      <path id="DejaVuSans-Bold-53" d="M 3834 4519 
L 3834 3531 
Q 3450 3703 3084 3790 
Q 2719 3878 2394 3878 
Q 1963 3878 1756 3759 
Q 1550 3641 1550 3391 
Q 1550 3203 1689 3098 
Q 1828 2994 2194 2919 
L 2706 2816 
Q 3484 2659 3812 2340 
Q 4141 2022 4141 1434 
Q 4141 663 3683 286 
Q 3225 -91 2284 -91 
Q 1841 -91 1394 -6 
Q 947 78 500 244 
L 500 1259 
Q 947 1022 1364 901 
Q 1781 781 2169 781 
Q 2563 781 2772 912 
Q 2981 1044 2981 1288 
Q 2981 1506 2839 1625 
Q 2697 1744 2272 1838 
L 1806 1941 
Q 1106 2091 782 2419 
Q 459 2747 459 3303 
Q 459 4000 909 4375 
Q 1359 4750 2203 4750 
Q 2588 4750 2994 4692 
Q 3400 4634 3834 4519 
z
" transform="scale(0.015625)"/>
      <path id="DejaVuSans-Bold-54" d="M 31 4666 
L 4331 4666 
L 4331 3756 
L 2784 3756 
L 2784 0 
L 1581 0 
L 1581 3756 
L 31 3756 
L 31 4666 
z
" transform="scale(0.015625)"/>
     </defs>
     <use xlink:href="#DejaVuSans-Bold-4e"/>
     <use xlink:href="#DejaVuSans-Bold-45" x="83.691406"/>
     <use xlink:href="#DejaVuSans-Bold-56" x="152.001953"/>
     <use xlink:href="#DejaVuSans-Bold-45" x="229.394531"/>
     <use xlink:href="#DejaVuSans-Bold-52" x="297.705078"/>
     <use xlink:href="#DejaVuSans-Bold-20" x="374.707031"/>
     <use xlink:href="#DejaVuSans-Bold-53" x="409.521484"/>
     <use xlink:href="#DejaVuSans-Bold-54" x="481.542969"/>
     <use xlink:href="#DejaVuSans-Bold-4f" x="549.755859"/>
     <use xlink:href="#DejaVuSans-Bold-52" x="634.765625"/>
     <use xlink:href="#DejaVuSans-Bold-45" x="711.767578"/>
     <use xlink:href="#DejaVuSans-Bold-44" x="780.078125"/>
    </g>
    <!-- (Excluded by Design) -->
    <g transform="translate(289.253125 90.223492) scale(0.065 -0.065)">
     <defs>
      <path id="DejaVuSans-Bold-78" d="M 1422 1791 
L 159 3500 
L 1344 3500 
L 2059 2463 
L 2784 3500 
L 3969 3500 
L 2706 1797 
L 4031 0 
L 2847 0 
L 2059 1106 
L 1281 0 
L 97 0 
L 1422 1791 
z
" transform="scale(0.015625)"/>
      <path id="DejaVuSans-Bold-73" d="M 3272 3391 
L 3272 2541 
Q 2913 2691 2578 2766 
Q 2244 2841 1947 2841 
Q 1628 2841 1473 2761 
Q 1319 2681 1319 2516 
Q 1319 2381 1436 2309 
Q 1553 2238 1856 2203 
L 2053 2175 
Q 2913 2066 3209 1816 
Q 3506 1566 3506 1031 
Q 3506 472 3093 190 
Q 2681 -91 1863 -91 
Q 1516 -91 1145 -36 
Q 775 19 384 128 
L 384 978 
Q 719 816 1070 734 
Q 1422 653 1784 653 
Q 2113 653 2278 743 
Q 2444 834 2444 1013 
Q 2444 1163 2330 1236 
Q 2216 1309 1875 1350 
L 1678 1375 
Q 931 1469 631 1722 
Q 331 1975 331 2491 
Q 331 3047 712 3315 
Q 1094 3584 1881 3584 
Q 2191 3584 2531 3537 
Q 2872 3491 3272 3391 
z
" transform="scale(0.015625)"/>
      <path id="DejaVuSans-Bold-67" d="M 2919 594 
Q 2688 288 2409 144 
Q 2131 0 1766 0 
Q 1125 0 706 504 
Q 288 1009 288 1791 
Q 288 2575 706 3076 
Q 1125 3578 1766 3578 
Q 2131 3578 2409 3434 
Q 2688 3291 2919 2981 
L 2919 3500 
L 4044 3500 
L 4044 353 
Q 4044 -491 3511 -936 
Q 2978 -1381 1966 -1381 
Q 1638 -1381 1331 -1331 
Q 1025 -1281 716 -1178 
L 716 -306 
Q 1009 -475 1290 -558 
Q 1572 -641 1856 -641 
Q 2406 -641 2662 -400 
Q 2919 -159 2919 353 
L 2919 594 
z
M 2181 2772 
Q 1834 2772 1640 2515 
Q 1447 2259 1447 1791 
Q 1447 1309 1634 1061 
Q 1822 813 2181 813 
Q 2531 813 2725 1069 
Q 2919 1325 2919 1791 
Q 2919 2259 2725 2515 
Q 2531 2772 2181 2772 
z
" transform="scale(0.015625)"/>
     </defs>
     <use xlink:href="#DejaVuSans-Bold-28"/>
     <use xlink:href="#DejaVuSans-Bold-45" x="45.703125"/>
     <use xlink:href="#DejaVuSans-Bold-78" x="114.013672"/>
     <use xlink:href="#DejaVuSans-Bold-63" x="178.515625"/>
     <use xlink:href="#DejaVuSans-Bold-6c" x="237.792969"/>
     <use xlink:href="#DejaVuSans-Bold-75" x="272.070312"/>
     <use xlink:href="#DejaVuSans-Bold-64" x="343.261719"/>
     <use xlink:href="#DejaVuSans-Bold-65" x="414.84375"/>
     <use xlink:href="#DejaVuSans-Bold-64" x="482.666016"/>
     <use xlink:href="#DejaVuSans-Bold-20" x="554.248047"/>
     <use xlink:href="#DejaVuSans-Bold-62" x="589.0625"/>
     <use xlink:href="#DejaVuSans-Bold-79" x="660.644531"/>
     <use xlink:href="#DejaVuSans-Bold-20" x="725.830078"/>
     <use xlink:href="#DejaVuSans-Bold-44" x="760.644531"/>
     <use xlink:href="#DejaVuSans-Bold-65" x="843.652344"/>
     <use xlink:href="#DejaVuSans-Bold-73" x="911.474609"/>
     <use xlink:href="#DejaVuSans-Bold-69" x="970.996094"/>
     <use xlink:href="#DejaVuSans-Bold-67" x="1005.273438"/>
     <use xlink:href="#DejaVuSans-Bold-6e" x="1076.855469"/>
     <use xlink:href="#DejaVuSans-Bold-29" x="1148.046875"/>
    </g>
   </g>
   <g id="text_7">
    <!-- • Real names -->
    <g transform="translate(277.83 122.259141) scale(0.055 -0.055)">
     <defs>
      <path id="DejaVuSans-52" d="M 2841 2188 
Q 3044 2119 3236 1894 
Q 3428 1669 3622 1275 
L 4263 0 
L 3584 0 
L 2988 1197 
Q 2756 1666 2539 1819 
Q 2322 1972 1947 1972 
L 1259 1972 
L 1259 0 
L 628 0 
L 628 4666 
L 2053 4666 
Q 2853 4666 3247 4331 
Q 3641 3997 3641 3322 
Q 3641 2881 3436 2590 
Q 3231 2300 2841 2188 
z
M 1259 4147 
L 1259 2491 
L 2053 2491 
Q 2509 2491 2742 2702 
Q 2975 2913 2975 3322 
Q 2975 3731 2742 3939 
Q 2509 4147 2053 4147 
L 1259 4147 
z
" transform="scale(0.015625)"/>
     </defs>
     <use xlink:href="#DejaVuSans-2022"/>
     <use xlink:href="#DejaVuSans-20" x="58.984375"/>
     <use xlink:href="#DejaVuSans-52" x="90.771484"/>
     <use xlink:href="#DejaVuSans-65" x="155.753906"/>
     <use xlink:href="#DejaVuSans-61" x="217.277344"/>
     <use xlink:href="#DejaVuSans-6c" x="278.556641"/>
     <use xlink:href="#DejaVuSans-20" x="306.339844"/>
     <use xlink:href="#DejaVuSans-6e" x="338.126953"/>
     <use xlink:href="#DejaVuSans-61" x="401.505859"/>
     <use xlink:href="#DejaVuSans-6d" x="462.785156"/>
     <use xlink:href="#DejaVuSans-65" x="560.197266"/>
     <use xlink:href="#DejaVuSans-73" x="621.720703"/>
    </g>
    <!-- • Government IDs -->
    <g transform="translate(277.83 129.253766) scale(0.055 -0.055)">
     <defs>
      <path id="DejaVuSans-47" d="M 3809 666 
L 3809 1919 
L 2778 1919 
L 2778 2438 
L 4434 2438 
L 4434 434 
Q 4069 175 3628 42 
Q 3188 -91 2688 -91 
Q 1594 -91 976 548 
Q 359 1188 359 2328 
Q 359 3472 976 4111 
Q 1594 4750 2688 4750 
Q 3144 4750 3555 4637 
Q 3966 4525 4313 4306 
L 4313 3634 
Q 3963 3931 3569 4081 
Q 3175 4231 2741 4231 
Q 1884 4231 1454 3753 
Q 1025 3275 1025 2328 
Q 1025 1384 1454 906 
Q 1884 428 2741 428 
Q 3075 428 3337 486 
Q 3600 544 3809 666 
z
" transform="scale(0.015625)"/>
      <path id="DejaVuSans-44" d="M 1259 4147 
L 1259 519 
L 2022 519 
Q 2988 519 3436 956 
Q 3884 1394 3884 2338 
Q 3884 3275 3436 3711 
Q 2988 4147 2022 4147 
L 1259 4147 
z
M 628 4666 
L 1925 4666 
Q 3281 4666 3915 4102 
Q 4550 3538 4550 2338 
Q 4550 1131 3912 565 
Q 3275 0 1925 0 
L 628 0 
L 628 4666 
z
" transform="scale(0.015625)"/>
     </defs>
     <use xlink:href="#DejaVuSans-2022"/>
     <use xlink:href="#DejaVuSans-20" x="58.984375"/>
     <use xlink:href="#DejaVuSans-47" x="90.771484"/>
     <use xlink:href="#DejaVuSans-6f" x="168.261719"/>
     <use xlink:href="#DejaVuSans-76" x="229.443359"/>
     <use xlink:href="#DejaVuSans-65" x="288.623047"/>
     <use xlink:href="#DejaVuSans-72" x="350.146484"/>
     <use xlink:href="#DejaVuSans-6e" x="389.509766"/>
     <use xlink:href="#DejaVuSans-6d" x="452.888672"/>
     <use xlink:href="#DejaVuSans-65" x="550.300781"/>
     <use xlink:href="#DejaVuSans-6e" x="611.824219"/>
     <use xlink:href="#DejaVuSans-74" x="675.203125"/>
     <use xlink:href="#DejaVuSans-20" x="714.412109"/>
     <use xlink:href="#DejaVuSans-49" x="746.199219"/>
     <use xlink:href="#DejaVuSans-44" x="775.691406"/>
     <use xlink:href="#DejaVuSans-73" x="852.693359"/>
    </g>
    <!-- • Clinical diagnoses -->
    <g transform="translate(277.83 136.248391) scale(0.055 -0.055)">
     <use xlink:href="#DejaVuSans-2022"/>
     <use xlink:href="#DejaVuSans-20" x="58.984375"/>
     <use xlink:href="#DejaVuSans-43" x="90.771484"/>
     <use xlink:href="#DejaVuSans-6c" x="160.595703"/>
     <use xlink:href="#DejaVuSans-69" x="188.378906"/>
     <use xlink:href="#DejaVuSans-6e" x="216.162109"/>
     <use xlink:href="#DejaVuSans-69" x="279.541016"/>
     <use xlink:href="#DejaVuSans-63" x="307.324219"/>
     <use xlink:href="#DejaVuSans-61" x="362.304688"/>
     <use xlink:href="#DejaVuSans-6c" x="423.583984"/>
     <use xlink:href="#DejaVuSans-20" x="451.367188"/>
     <use xlink:href="#DejaVuSans-64" x="483.154297"/>
     <use xlink:href="#DejaVuSans-69" x="546.630859"/>
     <use xlink:href="#DejaVuSans-61" x="574.414062"/>
     <use xlink:href="#DejaVuSans-67" x="635.693359"/>
     <use xlink:href="#DejaVuSans-6e" x="699.169922"/>
     <use xlink:href="#DejaVuSans-6f" x="762.548828"/>
     <use xlink:href="#DejaVuSans-73" x="823.730469"/>
     <use xlink:href="#DejaVuSans-65" x="875.830078"/>
     <use xlink:href="#DejaVuSans-73" x="937.353516"/>
    </g>
    <!-- • Treatment plans -->
    <g transform="translate(277.83 143.243016) scale(0.055 -0.055)">
     <defs>
      <path id="DejaVuSans-54" d="M -19 4666 
L 3928 4666 
L 3928 4134 
L 2272 4134 
L 2272 0 
L 1638 0 
L 1638 4134 
L -19 4134 
L -19 4666 
z
" transform="scale(0.015625)"/>
     </defs>
     <use xlink:href="#DejaVuSans-2022"/>
     <use xlink:href="#DejaVuSans-20" x="58.984375"/>
     <use xlink:href="#DejaVuSans-54" x="90.771484"/>
     <use xlink:href="#DejaVuSans-72" x="137.105469"/>
     <use xlink:href="#DejaVuSans-65" x="175.96875"/>
     <use xlink:href="#DejaVuSans-61" x="237.492188"/>
     <use xlink:href="#DejaVuSans-74" x="298.771484"/>
     <use xlink:href="#DejaVuSans-6d" x="337.980469"/>
     <use xlink:href="#DejaVuSans-65" x="435.392578"/>
     <use xlink:href="#DejaVuSans-6e" x="496.916016"/>
     <use xlink:href="#DejaVuSans-74" x="560.294922"/>
     <use xlink:href="#DejaVuSans-20" x="599.503906"/>
     <use xlink:href="#DejaVuSans-70" x="631.291016"/>
     <use xlink:href="#DejaVuSans-6c" x="694.767578"/>
     <use xlink:href="#DejaVuSans-61" x="722.550781"/>
     <use xlink:href="#DejaVuSans-6e" x="783.830078"/>
     <use xlink:href="#DejaVuSans-73" x="847.208984"/>
    </g>
    <!-- • Insurance identifiers -->
    <g transform="translate(277.83 150.237641) scale(0.055 -0.055)">
     <defs>
      <path id="DejaVuSans-66" d="M 2375 4863 
L 2375 4384 
L 1825 4384 
Q 1516 4384 1395 4259 
Q 1275 4134 1275 3809 
L 1275 3500 
L 2222 3500 
L 2222 3053 
L 1275 3053 
L 1275 0 
L 697 0 
L 697 3053 
L 147 3053 
L 147 3500 
L 697 3500 
L 697 3744 
Q 697 4328 969 4595 
Q 1241 4863 1831 4863 
L 2375 4863 
z
" transform="scale(0.015625)"/>
     </defs>
     <use xlink:href="#DejaVuSans-2022"/>
     <use xlink:href="#DejaVuSans-20" x="58.984375"/>
     <use xlink:href="#DejaVuSans-49" x="90.771484"/>
     <use xlink:href="#DejaVuSans-6e" x="120.263672"/>
     <use xlink:href="#DejaVuSans-73" x="183.642578"/>
     <use xlink:href="#DejaVuSans-75" x="235.742188"/>
     <use xlink:href="#DejaVuSans-72" x="299.121094"/>
     <use xlink:href="#DejaVuSans-61" x="340.234375"/>
     <use xlink:href="#DejaVuSans-6e" x="401.513672"/>
     <use xlink:href="#DejaVuSans-63" x="464.892578"/>
     <use xlink:href="#DejaVuSans-65" x="519.873047"/>
     <use xlink:href="#DejaVuSans-20" x="581.396484"/>
     <use xlink:href="#DejaVuSans-69" x="613.183594"/>
     <use xlink:href="#DejaVuSans-64" x="640.966797"/>
     <use xlink:href="#DejaVuSans-65" x="704.443359"/>
     <use xlink:href="#DejaVuSans-6e" x="765.966797"/>
     <use xlink:href="#DejaVuSans-74" x="829.345703"/>
     <use xlink:href="#DejaVuSans-69" x="868.554688"/>
     <use xlink:href="#DejaVuSans-66" x="896.337891"/>
     <use xlink:href="#DejaVuSans-69" x="931.542969"/>
     <use xlink:href="#DejaVuSans-65" x="959.326172"/>
     <use xlink:href="#DejaVuSans-72" x="1020.849609"/>
     <use xlink:href="#DejaVuSans-73" x="1061.962891"/>
    </g>
    <!-- • Clinical assessments -->
    <g transform="translate(277.83 157.232266) scale(0.055 -0.055)">
     <use xlink:href="#DejaVuSans-2022"/>
     <use xlink:href="#DejaVuSans-20" x="58.984375"/>
     <use xlink:href="#DejaVuSans-43" x="90.771484"/>
     <use xlink:href="#DejaVuSans-6c" x="160.595703"/>
     <use xlink:href="#DejaVuSans-69" x="188.378906"/>
     <use xlink:href="#DejaVuSans-6e" x="216.162109"/>
     <use xlink:href="#DejaVuSans-69" x="279.541016"/>
     <use xlink:href="#DejaVuSans-63" x="307.324219"/>
     <use xlink:href="#DejaVuSans-61" x="362.304688"/>
     <use xlink:href="#DejaVuSans-6c" x="423.583984"/>
     <use xlink:href="#DejaVuSans-20" x="451.367188"/>
     <use xlink:href="#DejaVuSans-61" x="483.154297"/>
     <use xlink:href="#DejaVuSans-73" x="544.433594"/>
     <use xlink:href="#DejaVuSans-73" x="596.533203"/>
     <use xlink:href="#DejaVuSans-65" x="648.632812"/>
     <use xlink:href="#DejaVuSans-73" x="710.15625"/>
     <use xlink:href="#DejaVuSans-73" x="762.255859"/>
     <use xlink:href="#DejaVuSans-6d" x="814.355469"/>
     <use xlink:href="#DejaVuSans-65" x="911.767578"/>
     <use xlink:href="#DejaVuSans-6e" x="973.291016"/>
     <use xlink:href="#DejaVuSans-74" x="1036.669922"/>
     <use xlink:href="#DejaVuSans-73" x="1075.878906"/>
    </g>
   </g>
   <g id="text_8">
    <!-- HIPAA SCOPE BOUNDARY -->
    <g transform="translate(146.0225 362.016) scale(0.08 -0.08)">
     <defs>
      <path id="DejaVuSans-Bold-42" d="M 2456 2859 
Q 2741 2859 2887 2984 
Q 3034 3109 3034 3353 
Q 3034 3594 2887 3720 
Q 2741 3847 2456 3847 
L 1791 3847 
L 1791 2859 
L 2456 2859 
z
M 2497 819 
Q 2859 819 3042 972 
Q 3225 1125 3225 1434 
Q 3225 1738 3044 1889 
Q 2863 2041 2497 2041 
L 1791 2041 
L 1791 819 
L 2497 819 
z
M 3616 2497 
Q 4003 2384 4215 2081 
Q 4428 1778 4428 1338 
Q 4428 663 3972 331 
Q 3516 0 2584 0 
L 588 0 
L 588 4666 
L 2394 4666 
Q 3366 4666 3802 4372 
Q 4238 4078 4238 3431 
Q 4238 3091 4078 2852 
Q 3919 2613 3616 2497 
z
" transform="scale(0.015625)"/>
      <path id="DejaVuSans-Bold-55" d="M 588 4666 
L 1791 4666 
L 1791 1869 
Q 1791 1291 1980 1042 
Q 2169 794 2597 794 
Q 3028 794 3217 1042 
Q 3406 1291 3406 1869 
L 3406 4666 
L 4609 4666 
L 4609 1869 
Q 4609 878 4112 393 
Q 3616 -91 2597 -91 
Q 1581 -91 1084 393 
Q 588 878 588 1869 
L 588 4666 
z
" transform="scale(0.015625)"/>
      <path id="DejaVuSans-Bold-59" d="M -63 4666 
L 1253 4666 
L 2316 3003 
L 3378 4666 
L 4697 4666 
L 2919 1966 
L 2919 0 
L 1716 0 
L 1716 1966 
L -63 4666 
z
" transform="scale(0.015625)"/>
     </defs>
     <use xlink:href="#DejaVuSans-Bold-48"/>
     <use xlink:href="#DejaVuSans-Bold-49" x="83.691406"/>
     <use xlink:href="#DejaVuSans-Bold-50" x="120.898438"/>
     <use xlink:href="#DejaVuSans-Bold-41" x="185.064453"/>
     <use xlink:href="#DejaVuSans-Bold-41" x="262.457031"/>
     <use xlink:href="#DejaVuSans-Bold-20" x="339.849609"/>
     <use xlink:href="#DejaVuSans-Bold-53" x="374.664062"/>
     <use xlink:href="#DejaVuSans-Bold-43" x="446.685547"/>
     <use xlink:href="#DejaVuSans-Bold-4f" x="520.074219"/>
     <use xlink:href="#DejaVuSans-Bold-50" x="605.083984"/>
     <use xlink:href="#DejaVuSans-Bold-45" x="678.375"/>
     <use xlink:href="#DejaVuSans-Bold-20" x="746.685547"/>
     <use xlink:href="#DejaVuSans-Bold-42" x="781.5"/>
     <use xlink:href="#DejaVuSans-Bold-4f" x="857.720703"/>
     <use xlink:href="#DejaVuSans-Bold-55" x="942.730469"/>
     <use xlink:href="#DejaVuSans-Bold-4e" x="1023.931641"/>
     <use xlink:href="#DejaVuSans-Bold-44" x="1107.623047"/>
     <use xlink:href="#DejaVuSans-Bold-41" x="1190.630859"/>
     <use xlink:href="#DejaVuSans-Bold-52" x="1268.023438"/>
     <use xlink:href="#DejaVuSans-Bold-59" x="1339.525391"/>
    </g>
   </g>
   <g id="text_9">
    <!-- System operates outside HIPAA regulatory scope -->
    <g transform="translate(116.706797 381.897531) scale(0.07 -0.07)">
     <defs>
      <path id="DejaVuSans-Oblique-53" d="M 3859 4513 
L 3738 3897 
Q 3422 4066 3111 4152 
Q 2800 4238 2509 4238 
Q 1944 4238 1609 3991 
Q 1275 3744 1275 3334 
Q 1275 3109 1398 2989 
Q 1522 2869 2034 2731 
L 2413 2638 
Q 3053 2472 3303 2217 
Q 3553 1963 3553 1503 
Q 3553 797 2998 353 
Q 2444 -91 1538 -91 
Q 1166 -91 791 -17 
Q 416 56 38 206 
L 166 856 
Q 513 641 861 531 
Q 1209 422 1556 422 
Q 2147 422 2503 684 
Q 2859 947 2859 1369 
Q 2859 1650 2717 1795 
Q 2575 1941 2106 2059 
L 1728 2156 
Q 1081 2325 845 2545 
Q 609 2766 609 3163 
Q 609 3859 1145 4304 
Q 1681 4750 2541 4750 
Q 2875 4750 3203 4690 
Q 3531 4631 3859 4513 
z
" transform="scale(0.015625)"/>
      <path id="DejaVuSans-Oblique-70" d="M 3175 2156 
Q 3175 2616 2975 2859 
Q 2775 3103 2400 3103 
Q 2144 3103 1911 2972 
Q 1678 2841 1497 2591 
Q 1319 2344 1212 1994 
Q 1106 1644 1106 1300 
Q 1106 863 1306 627 
Q 1506 391 1875 391 
Q 2147 391 2380 519 
Q 2613 647 2778 891 
Q 2956 1147 3065 1494 
Q 3175 1841 3175 2156 
z
M 1394 2969 
Q 1625 3272 1939 3428 
Q 2253 3584 2638 3584 
Q 3175 3584 3472 3232 
Q 3769 2881 3769 2247 
Q 3769 1728 3584 1258 
Q 3400 788 3053 416 
Q 2822 169 2531 39 
Q 2241 -91 1919 -91 
Q 1547 -91 1294 64 
Q 1041 219 916 525 
L 556 -1331 
L -19 -1331 
L 922 3500 
L 1497 3500 
L 1394 2969 
z
" transform="scale(0.015625)"/>
      <path id="DejaVuSans-Oblique-41" d="M 2356 4666 
L 3072 4666 
L 3938 0 
L 3278 0 
L 3084 1197 
L 984 1197 
L 325 0 
L -341 0 
L 2356 4666 
z
M 2584 4044 
L 1275 1722 
L 2988 1722 
L 2584 4044 
z
" transform="scale(0.015625)"/>
     </defs>
     <use xlink:href="#DejaVuSans-Oblique-53"/>
     <use xlink:href="#DejaVuSans-Oblique-79" x="63.476562"/>
     <use xlink:href="#DejaVuSans-Oblique-73" x="122.65625"/>
     <use xlink:href="#DejaVuSans-Oblique-74" x="174.755859"/>
     <use xlink:href="#DejaVuSans-Oblique-65" x="213.964844"/>
     <use xlink:href="#DejaVuSans-Oblique-6d" x="275.488281"/>
     <use xlink:href="#DejaVuSans-Oblique-20" x="372.900391"/>
     <use xlink:href="#DejaVuSans-Oblique-6f" x="404.6875"/>
     <use xlink:href="#DejaVuSans-Oblique-70" x="465.869141"/>
     <use xlink:href="#DejaVuSans-Oblique-65" x="529.345703"/>
     <use xlink:href="#DejaVuSans-Oblique-72" x="590.869141"/>
     <use xlink:href="#DejaVuSans-Oblique-61" x="631.982422"/>
     <use xlink:href="#DejaVuSans-Oblique-74" x="693.261719"/>
     <use xlink:href="#DejaVuSans-Oblique-65" x="732.470703"/>
     <use xlink:href="#DejaVuSans-Oblique-73" x="793.994141"/>
     <use xlink:href="#DejaVuSans-Oblique-20" x="846.09375"/>
     <use xlink:href="#DejaVuSans-Oblique-6f" x="877.880859"/>
     <use xlink:href="#DejaVuSans-Oblique-75" x="939.0625"/>
     <use xlink:href="#DejaVuSans-Oblique-74" x="1002.441406"/>
     <use xlink:href="#DejaVuSans-Oblique-73" x="1041.650391"/>
     <use xlink:href="#DejaVuSans-Oblique-69" x="1093.75"/>
     <use xlink:href="#DejaVuSans-Oblique-64" x="1121.533203"/>
     <use xlink:href="#DejaVuSans-Oblique-65" x="1185.009766"/>
     <use xlink:href="#DejaVuSans-Oblique-20" x="1246.533203"/>
     <use xlink:href="#DejaVuSans-Oblique-48" x="1278.320312"/>
     <use xlink:href="#DejaVuSans-Oblique-49" x="1353.515625"/>
     <use xlink:href="#DejaVuSans-Oblique-50" x="1383.007812"/>
     <use xlink:href="#DejaVuSans-Oblique-41" x="1438.310547"/>
     <use xlink:href="#DejaVuSans-Oblique-41" x="1506.71875"/>
     <use xlink:href="#DejaVuSans-Oblique-20" x="1575.126953"/>
     <use xlink:href="#DejaVuSans-Oblique-72" x="1606.914062"/>
     <use xlink:href="#DejaVuSans-Oblique-65" x="1648.027344"/>
     <use xlink:href="#DejaVuSans-Oblique-67" x="1709.550781"/>
     <use xlink:href="#DejaVuSans-Oblique-75" x="1773.027344"/>
     <use xlink:href="#DejaVuSans-Oblique-6c" x="1836.40625"/>
     <use xlink:href="#DejaVuSans-Oblique-61" x="1864.189453"/>
     <use xlink:href="#DejaVuSans-Oblique-74" x="1925.46875"/>
     <use xlink:href="#DejaVuSans-Oblique-6f" x="1964.677734"/>
     <use xlink:href="#DejaVuSans-Oblique-72" x="2025.859375"/>
     <use xlink:href="#DejaVuSans-Oblique-79" x="2066.972656"/>
     <use xlink:href="#DejaVuSans-Oblique-20" x="2126.152344"/>
     <use xlink:href="#DejaVuSans-Oblique-73" x="2157.939453"/>
     <use xlink:href="#DejaVuSans-Oblique-63" x="2210.039062"/>
     <use xlink:href="#DejaVuSans-Oblique-6f" x="2265.019531"/>
     <use xlink:href="#DejaVuSans-Oblique-70" x="2326.201172"/>
     <use xlink:href="#DejaVuSans-Oblique-65" x="2389.677734"/>
    </g>
    <!-- by architectural design (zero PHI) -->
    <g transform="translate(143.773828 389.736) scale(0.07 -0.07)">
     <defs>
      <path id="DejaVuSans-Oblique-62" d="M 3169 2138 
Q 3169 2591 2961 2847 
Q 2753 3103 2388 3103 
Q 2122 3103 1889 2973 
Q 1656 2844 1484 2597 
Q 1303 2338 1198 1995 
Q 1094 1653 1094 1313 
Q 1094 881 1298 636 
Q 1503 391 1863 391 
Q 2134 391 2365 517 
Q 2597 644 2772 891 
Q 2950 1147 3059 1487 
Q 3169 1828 3169 2138 
z
M 1381 2969 
Q 1594 3256 1914 3420 
Q 2234 3584 2584 3584 
Q 3122 3584 3439 3221 
Q 3756 2859 3756 2241 
Q 3756 1734 3570 1259 
Q 3384 784 3041 416 
Q 2816 172 2522 40 
Q 2228 -91 1906 -91 
Q 1566 -91 1316 65 
Q 1066 222 909 531 
L 806 0 
L 231 0 
L 1178 4863 
L 1753 4863 
L 1381 2969 
z
" transform="scale(0.015625)"/>
      <path id="DejaVuSans-Oblique-68" d="M 3566 2113 
L 3156 0 
L 2578 0 
L 2988 2091 
Q 3016 2238 3031 2350 
Q 3047 2463 3047 2528 
Q 3047 2791 2881 2937 
Q 2716 3084 2419 3084 
Q 1956 3084 1617 2771 
Q 1278 2459 1178 1941 
L 800 0 
L 225 0 
L 1172 4863 
L 1747 4863 
L 1375 2950 
Q 1594 3244 1934 3414 
Q 2275 3584 2650 3584 
Q 3113 3584 3367 3334 
Q 3622 3084 3622 2631 
Q 3622 2519 3608 2391 
Q 3594 2263 3566 2113 
z
" transform="scale(0.015625)"/>
      <path id="DejaVuSans-Oblique-28" d="M 2731 4856 
Q 1903 3822 1495 2892 
Q 1088 1963 1088 1100 
Q 1088 606 1206 120 
Q 1325 -366 1563 -844 
L 1063 -844 
Q 775 -306 634 201 
Q 494 709 494 1197 
Q 494 2125 923 3036 
Q 1353 3947 2222 4856 
L 2731 4856 
z
" transform="scale(0.015625)"/>
      <path id="DejaVuSans-Oblique-7a" d="M 744 3500 
L 3475 3500 
L 3372 2975 
L 738 459 
L 2913 459 
L 2822 0 
L -19 0 
L 84 525 
L 2719 3041 
L 653 3041 
L 744 3500 
z
" transform="scale(0.015625)"/>
      <path id="DejaVuSans-Oblique-29" d="M -397 -844 
Q 434 191 840 1120 
Q 1247 2050 1247 2913 
Q 1247 3406 1130 3892 
Q 1013 4378 775 4856 
L 1275 4856 
Q 1563 4316 1703 3812 
Q 1844 3309 1844 2822 
Q 1844 1891 1411 973 
Q 978 56 116 -844 
L -397 -844 
z
" transform="scale(0.015625)"/>
     </defs>
     <use xlink:href="#DejaVuSans-Oblique-62"/>
     <use xlink:href="#DejaVuSans-Oblique-79" x="63.476562"/>
     <use xlink:href="#DejaVuSans-Oblique-20" x="122.65625"/>
     <use xlink:href="#DejaVuSans-Oblique-61" x="154.443359"/>
     <use xlink:href="#DejaVuSans-Oblique-72" x="215.722656"/>
     <use xlink:href="#DejaVuSans-Oblique-63" x="256.835938"/>
     <use xlink:href="#DejaVuSans-Oblique-68" x="311.816406"/>
     <use xlink:href="#DejaVuSans-Oblique-69" x="375.195312"/>
     <use xlink:href="#DejaVuSans-Oblique-74" x="402.978516"/>
     <use xlink:href="#DejaVuSans-Oblique-65" x="442.1875"/>
     <use xlink:href="#DejaVuSans-Oblique-63" x="503.710938"/>
     <use xlink:href="#DejaVuSans-Oblique-74" x="558.691406"/>
     <use xlink:href="#DejaVuSans-Oblique-75" x="597.900391"/>
     <use xlink:href="#DejaVuSans-Oblique-72" x="661.279297"/>
     <use xlink:href="#DejaVuSans-Oblique-61" x="702.392578"/>
     <use xlink:href="#DejaVuSans-Oblique-6c" x="763.671875"/>
     <use xlink:href="#DejaVuSans-Oblique-20" x="791.455078"/>
     <use xlink:href="#DejaVuSans-Oblique-64" x="823.242188"/>
     <use xlink:href="#DejaVuSans-Oblique-65" x="886.71875"/>
     <use xlink:href="#DejaVuSans-Oblique-73" x="948.242188"/>
     <use xlink:href="#DejaVuSans-Oblique-69" x="1000.341797"/>
     <use xlink:href="#DejaVuSans-Oblique-67" x="1028.125"/>
     <use xlink:href="#DejaVuSans-Oblique-6e" x="1091.601562"/>
     <use xlink:href="#DejaVuSans-Oblique-20" x="1154.980469"/>
     <use xlink:href="#DejaVuSans-Oblique-28" x="1186.767578"/>
     <use xlink:href="#DejaVuSans-Oblique-7a" x="1225.78125"/>
     <use xlink:href="#DejaVuSans-Oblique-65" x="1278.271484"/>
     <use xlink:href="#DejaVuSans-Oblique-72" x="1339.794922"/>
     <use xlink:href="#DejaVuSans-Oblique-6f" x="1380.908203"/>
     <use xlink:href="#DejaVuSans-Oblique-20" x="1442.089844"/>
     <use xlink:href="#DejaVuSans-Oblique-50" x="1473.876953"/>
     <use xlink:href="#DejaVuSans-Oblique-48" x="1534.179688"/>
     <use xlink:href="#DejaVuSans-Oblique-49" x="1609.375"/>
     <use xlink:href="#DejaVuSans-Oblique-29" x="1638.867188"/>
    </g>
   </g>
  </g>
 </g>
 <defs>
  <clipPath id="pf8b7c4fba3">
   <rect x="7.2" y="7.2" width="390.6" height="443.52"/>
  </clipPath>
 </defs>
</svg>
