<?xml version="1.0" encoding="utf-8" standalone="no"?>
<!DOCTYPE svg PUBLIC "-//W3C//DTD SVG 1.1//EN"
  "http://www.w3.org/Graphics/SVG/1.1/DTD/svg11.dtd">
<svg xmlns:xlink="http://www.w3.org/1999/xlink" width="405pt" height="457.92pt" viewBox="0 0 405 457.92" xmlns="http://www.w3.org/2000/svg" version="1.1">
 <metadata>
  <rdf:RDF xmlns:dc="http://purl.org/dc/elements/1.1/" xmlns:cc="http://creativecommons.org/ns#" xmlns:rdf="http://www.w3.org/1999/02/22-rdf-syntax-ns#">
   <cc:Work>
    <dc:type rdf:resource="http://purl.org/dc/dcmitype/StillImage"/>
    <dc:date>2026-05-12T06:12:21.573916</dc:date>
    <dc:format>image/svg+xml</dc:format>
    <dc:creator>
     <cc:Agent>
      <dc:title>Matplotlib v3.9.4, https://matplotlib.org/</dc:title>
     </cc:Agent>
    </dc:creator>
   </cc:Work>
  </rdf:RDF>
 </metadata>
 <defs>
  <style type="text/css">*{stroke-linejoin: round; stroke-linecap: butt}</style>
 </defs>
 <g id="figure_1">
  <g id="patch_1">
   <path d="M 0 457.92 
L 405 457.92 
L 405 0 
L 0 0 
z
" style="fill: #ffffff"/>
  </g>
  <g id="axes_1">
   <g id="line2d_1">
    <path d="M 51.84 423 
L 51.84 79.272 
" clip-path="url(#p0d4c2a1117)" style="fill: none; stroke-dasharray: 0.3,0.495; stroke-dashoffset: 0; stroke: #000000; stroke-opacity: 0.3; stroke-width: 0.3"/>
   </g>
   <g id="line2d_2">
    <path d="M 129.96 423 
L 129.96 79.272 
" clip-path="url(#p0d4c2a1117)" style="fill: none; stroke-dasharray: 0.3,0.495; stroke-dashoffset: 0; stroke: #000000; stroke-opacity: 0.3; stroke-width: 0.3"/>
   </g>
   <g id="line2d_3">
    <path d="M 208.08 423 
L 208.08 79.272 
" clip-path="url(#p0d4c2a1117)" style="fill: none; stroke-dasharray: 0.3,0.495; stroke-dashoffset: 0; stroke: #000000; stroke-opacity: 0.3; stroke-width: 0.3"/>
   </g>
   <g id="line2d_4">
    <path d="M 286.2 423 
L 286.2 79.272 
" clip-path="url(#p0d4c2a1117)" style="fill: none; stroke-dasharray: 0.3,0.495; stroke-dashoffset: 0; stroke: #000000; stroke-opacity: 0.3; stroke-width: 0.3"/>
   </g>
   <g id="line2d_5">
    <path d="M 353.16 423 
L 353.16 79.272 
" clip-path="url(#p0d4c2a1117)" style="fill: none; stroke-dasharray: 0.3,0.495; stroke-dashoffset: 0; stroke: #000000; stroke-opacity: 0.3; stroke-width: 0.3"/>
   </g>
   <g id="text_1">
    <!-- Figure 2. EIP-191 wallet-signed consent attestation sequence. -->
    <g transform="translate(78.608125 29.376) scale(0.08 -0.08)">
     <defs>
      <path id="DejaVuSans-Oblique-46" d="M 1081 4666 
L 3756 4666 
L 3653 4134 
L 1606 4134 
L 1338 2759 
L 3188 2759 
L 3084 2228 
L 1234 2228 
L 800 0 
L 172 0 
L 1081 4666 
z
" transform="scale(0.015625)"/>
      <path id="DejaVuSans-Oblique-69" d="M 1172 4863 
L 1747 4863 
L 1606 4134 
L 1031 4134 
L 1172 4863 
z
M 909 3500 
L 1484 3500 
L 800 0 
L 225 0 
L 909 3500 
z
" transform="scale(0.015625)"/>
      <path id="DejaVuSans-Oblique-67" d="M 3816 3500 
L 3219 434 
Q 3047 -456 2561 -893 
Q 2075 -1331 1253 -1331 
Q 950 -1331 690 -1286 
Q 431 -1241 206 -1147 
L 313 -588 
Q 525 -725 762 -790 
Q 1000 -856 1269 -856 
Q 1816 -856 2167 -557 
Q 2519 -259 2631 300 
L 2681 563 
Q 2441 288 2122 144 
Q 1803 0 1434 0 
Q 903 0 598 351 
Q 294 703 294 1319 
Q 294 1803 478 2267 
Q 663 2731 997 3091 
Q 1219 3328 1514 3456 
Q 1809 3584 2131 3584 
Q 2484 3584 2746 3420 
Q 3009 3256 3138 2956 
L 3238 3500 
L 3816 3500 
z
M 2950 2216 
Q 2950 2641 2750 2872 
Q 2550 3103 2181 3103 
Q 1953 3103 1747 3012 
Q 1541 2922 1394 2759 
Q 1156 2491 1023 2127 
Q 891 1763 891 1375 
Q 891 944 1092 712 
Q 1294 481 1672 481 
Q 2219 481 2584 976 
Q 2950 1472 2950 2216 
z
" transform="scale(0.015625)"/>
      <path id="DejaVuSans-Oblique-75" d="M 428 1388 
L 838 3500 
L 1416 3500 
L 1006 1409 
Q 975 1256 961 1147 
Q 947 1038 947 966 
Q 947 700 1109 554 
Q 1272 409 1569 409 
Q 2031 409 2368 721 
Q 2706 1034 2809 1563 
L 3194 3500 
L 3769 3500 
L 3091 0 
L 2516 0 
L 2631 550 
Q 2388 244 2052 76 
Q 1716 -91 1338 -91 
Q 878 -91 622 161 
Q 366 413 366 863 
Q 366 956 381 1097 
Q 397 1238 428 1388 
z
" transform="scale(0.015625)"/>
      <path id="DejaVuSans-Oblique-72" d="M 2853 2969 
Q 2766 3016 2653 3041 
Q 2541 3066 2413 3066 
Q 1953 3066 1609 2717 
Q 1266 2369 1153 1784 
L 800 0 
L 225 0 
L 909 3500 
L 1484 3500 
L 1375 2956 
Q 1603 3259 1920 3421 
Q 2238 3584 2597 3584 
Q 2691 3584 2781 3573 
Q 2872 3563 2963 3538 
L 2853 2969 
z
" transform="scale(0.015625)"/>
      <path id="DejaVuSans-Oblique-65" d="M 3078 2063 
Q 3088 2113 3092 2166 
Q 3097 2219 3097 2272 
Q 3097 2653 2873 2875 
Q 2650 3097 2266 3097 
Q 1838 3097 1509 2826 
Q 1181 2556 1013 2059 
L 3078 2063 
z
M 3578 1613 
L 903 1613 
Q 884 1494 878 1425 
Q 872 1356 872 1306 
Q 872 872 1139 634 
Q 1406 397 1894 397 
Q 2269 397 2603 481 
Q 2938 566 3225 728 
L 3116 159 
Q 2806 34 2476 -28 
Q 2147 -91 1806 -91 
Q 1078 -91 686 257 
Q 294 606 294 1247 
Q 294 1794 489 2264 
Q 684 2734 1063 3103 
Q 1306 3334 1642 3459 
Q 1978 3584 2356 3584 
Q 2950 3584 3301 3228 
Q 3653 2872 3653 2272 
Q 3653 2128 3634 1964 
Q 3616 1800 3578 1613 
z
" transform="scale(0.015625)"/>
      <path id="DejaVuSans-Oblique-20" transform="scale(0.015625)"/>
      <path id="DejaVuSans-Oblique-32" d="M 2950 2253 
L 934 525 
L 3163 525 
L 3053 0 
L 25 0 
L 128 531 
L 2234 2338 
Q 2656 2703 2832 2979 
Q 3009 3256 3009 3547 
Q 3009 3850 2796 4040 
Q 2584 4231 2241 4231 
Q 1944 4231 1581 4125 
Q 1219 4019 806 3816 
L 922 4441 
Q 1309 4594 1662 4672 
Q 2016 4750 2316 4750 
Q 2928 4750 3301 4425 
Q 3675 4100 3675 3572 
Q 3675 3216 3497 2892 
Q 3319 2569 2950 2253 
z
" transform="scale(0.015625)"/>
      <path id="DejaVuSans-Oblique-2e" d="M 525 794 
L 1184 794 
L 1031 0 
L 372 0 
L 525 794 
z
" transform="scale(0.015625)"/>
      <path id="DejaVuSans-Oblique-45" d="M 1081 4666 
L 4031 4666 
L 3928 4134 
L 1606 4134 
L 1338 2753 
L 3566 2753 
L 3463 2222 
L 1234 2222 
L 909 531 
L 3284 531 
L 3181 0 
L 172 0 
L 1081 4666 
z
" transform="scale(0.015625)"/>
      <path id="DejaVuSans-Oblique-49" d="M 1081 4666 
L 1716 4666 
L 806 0 
L 172 0 
L 1081 4666 
z
" transform="scale(0.015625)"/>
      <path id="DejaVuSans-Oblique-50" d="M 1081 4666 
L 2541 4666 
Q 3178 4666 3512 4369 
Q 3847 4072 3847 3500 
Q 3847 2731 3353 2303 
Q 2859 1875 1966 1875 
L 1172 1875 
L 806 0 
L 172 0 
L 1081 4666 
z
M 1613 4147 
L 1275 2394 
L 2069 2394 
Q 2606 2394 2893 2669 
Q 3181 2944 3181 3456 
Q 3181 3784 2986 3965 
Q 2791 4147 2438 4147 
L 1613 4147 
z
" transform="scale(0.015625)"/>
      <path id="DejaVuSans-Oblique-2d" d="M 391 2009 
L 2075 2009 
L 1978 1497 
L 288 1497 
L 391 2009 
z
" transform="scale(0.015625)"/>
      <path id="DejaVuSans-Oblique-31" d="M 416 531 
L 1447 531 
L 2144 4122 
L 978 3897 
L 1088 4441 
L 2247 4666 
L 2881 4666 
L 2075 531 
L 3103 531 
L 3003 0 
L 313 0 
L 416 531 
z
" transform="scale(0.015625)"/>
      <path id="DejaVuSans-Oblique-39" d="M 281 103 
L 397 678 
Q 578 559 809 496 
Q 1041 434 1306 434 
Q 1953 434 2348 843 
Q 2744 1253 2938 2119 
Q 2706 1853 2401 1714 
Q 2097 1575 1747 1575 
Q 1178 1575 842 1904 
Q 506 2234 506 2791 
Q 506 3247 672 3639 
Q 838 4031 1159 4325 
Q 1378 4531 1665 4640 
Q 1953 4750 2278 4750 
Q 2925 4750 3300 4339 
Q 3675 3928 3675 3219 
Q 3675 2559 3501 1943 
Q 3328 1328 3022 878 
Q 2697 403 2240 156 
Q 1784 -91 1228 -91 
Q 988 -91 748 -42 
Q 509 6 281 103 
z
M 1131 2938 
Q 1131 2541 1337 2308 
Q 1544 2075 1894 2075 
Q 2378 2075 2706 2447 
Q 3034 2819 3034 3372 
Q 3034 3784 2831 4017 
Q 2628 4250 2272 4250 
Q 1788 4250 1459 3870 
Q 1131 3491 1131 2938 
z
" transform="scale(0.015625)"/>
      <path id="DejaVuSans-Oblique-77" d="M 544 3500 
L 1113 3500 
L 1259 684 
L 2566 3500 
L 3231 3500 
L 3425 684 
L 4666 3500 
L 5241 3500 
L 3641 0 
L 2969 0 
L 2797 2900 
L 1459 0 
L 781 0 
L 544 3500 
z
" transform="scale(0.015625)"/>
      <path id="DejaVuSans-Oblique-61" d="M 3438 1997 
L 3047 0 
L 2472 0 
L 2578 531 
Q 2325 219 2001 64 
Q 1678 -91 1281 -91 
Q 834 -91 548 182 
Q 263 456 263 884 
Q 263 1497 752 1853 
Q 1241 2209 2100 2209 
L 2900 2209 
L 2931 2363 
Q 2938 2388 2941 2417 
Q 2944 2447 2944 2509 
Q 2944 2788 2717 2942 
Q 2491 3097 2081 3097 
Q 1800 3097 1504 3025 
Q 1209 2953 897 2809 
L 997 3341 
Q 1322 3463 1633 3523 
Q 1944 3584 2234 3584 
Q 2853 3584 3176 3315 
Q 3500 3047 3500 2534 
Q 3500 2431 3484 2292 
Q 3469 2153 3438 1997 
z
M 2816 1759 
L 2241 1759 
Q 1534 1759 1195 1570 
Q 856 1381 856 984 
Q 856 709 1029 553 
Q 1203 397 1509 397 
Q 1978 397 2328 733 
Q 2678 1069 2791 1631 
L 2816 1759 
z
" transform="scale(0.015625)"/>
      <path id="DejaVuSans-Oblique-6c" d="M 1172 4863 
L 1747 4863 
L 800 0 
L 225 0 
L 1172 4863 
z
" transform="scale(0.015625)"/>
      <path id="DejaVuSans-Oblique-74" d="M 2706 3500 
L 2619 3053 
L 1472 3053 
L 1100 1153 
Q 1081 1047 1072 975 
Q 1063 903 1063 863 
Q 1063 663 1183 572 
Q 1303 481 1569 481 
L 2150 481 
L 2053 0 
L 1503 0 
Q 991 0 739 200 
Q 488 400 488 806 
Q 488 878 497 964 
Q 506 1050 525 1153 
L 897 3053 
L 409 3053 
L 500 3500 
L 978 3500 
L 1172 4494 
L 1747 4494 
L 1556 3500 
L 2706 3500 
z
" transform="scale(0.015625)"/>
      <path id="DejaVuSans-Oblique-73" d="M 3200 3397 
L 3091 2853 
Q 2863 2978 2609 3040 
Q 2356 3103 2088 3103 
Q 1634 3103 1373 2948 
Q 1113 2794 1113 2528 
Q 1113 2219 1719 2053 
Q 1766 2041 1788 2034 
L 1972 1978 
Q 2547 1819 2739 1644 
Q 2931 1469 2931 1166 
Q 2931 609 2489 259 
Q 2047 -91 1331 -91 
Q 1053 -91 747 -37 
Q 441 16 72 128 
L 184 722 
Q 500 559 806 475 
Q 1113 391 1394 391 
Q 1816 391 2080 572 
Q 2344 753 2344 1031 
Q 2344 1331 1650 1516 
L 1591 1531 
L 1394 1581 
Q 956 1697 753 1886 
Q 550 2075 550 2369 
Q 550 2928 970 3256 
Q 1391 3584 2113 3584 
Q 2397 3584 2667 3537 
Q 2938 3491 3200 3397 
z
" transform="scale(0.015625)"/>
      <path id="DejaVuSans-Oblique-6e" d="M 3566 2113 
L 3156 0 
L 2578 0 
L 2988 2091 
Q 3016 2238 3031 2350 
Q 3047 2463 3047 2528 
Q 3047 2791 2881 2937 
Q 2716 3084 2419 3084 
Q 1956 3084 1622 2776 
Q 1288 2469 1184 1941 
L 800 0 
L 225 0 
L 903 3500 
L 1478 3500 
L 1363 2950 
Q 1603 3253 1940 3418 
Q 2278 3584 2650 3584 
Q 3113 3584 3367 3334 
Q 3622 3084 3622 2631 
Q 3622 2519 3608 2391 
Q 3594 2263 3566 2113 
z
" transform="scale(0.015625)"/>
      <path id="DejaVuSans-Oblique-64" d="M 2675 525 
Q 2444 222 2128 65 
Q 1813 -91 1428 -91 
Q 903 -91 598 267 
Q 294 625 294 1247 
Q 294 1766 478 2236 
Q 663 2706 1013 3078 
Q 1244 3325 1534 3454 
Q 1825 3584 2144 3584 
Q 2481 3584 2739 3421 
Q 2997 3259 3138 2956 
L 3513 4863 
L 4091 4863 
L 3144 0 
L 2566 0 
L 2675 525 
z
M 891 1350 
Q 891 897 1095 644 
Q 1300 391 1663 391 
Q 1931 391 2161 520 
Q 2391 650 2566 903 
Q 2750 1166 2856 1509 
Q 2963 1853 2963 2188 
Q 2963 2622 2758 2865 
Q 2553 3109 2194 3109 
Q 1922 3109 1687 2981 
Q 1453 2853 1288 2613 
Q 1106 2353 998 2009 
Q 891 1666 891 1350 
z
" transform="scale(0.015625)"/>
      <path id="DejaVuSans-Oblique-63" d="M 3431 3366 
L 3316 2797 
Q 3109 2947 2876 3022 
Q 2644 3097 2394 3097 
Q 2119 3097 1870 3000 
Q 1622 2903 1453 2725 
Q 1184 2453 1037 2087 
Q 891 1722 891 1331 
Q 891 859 1127 628 
Q 1363 397 1844 397 
Q 2081 397 2348 469 
Q 2616 541 2906 684 
L 2797 116 
Q 2547 13 2283 -39 
Q 2019 -91 1741 -91 
Q 1044 -91 669 257 
Q 294 606 294 1253 
Q 294 1797 489 2255 
Q 684 2713 1069 3078 
Q 1331 3328 1684 3456 
Q 2038 3584 2456 3584 
Q 2700 3584 2940 3529 
Q 3181 3475 3431 3366 
z
" transform="scale(0.015625)"/>
      <path id="DejaVuSans-Oblique-6f" d="M 1625 -91 
Q 1009 -91 651 289 
Q 294 669 294 1325 
Q 294 1706 417 2101 
Q 541 2497 738 2766 
Q 1047 3184 1428 3384 
Q 1809 3584 2291 3584 
Q 2888 3584 3255 3212 
Q 3622 2841 3622 2241 
Q 3622 1825 3500 1412 
Q 3378 1000 3181 728 
Q 2875 309 2494 109 
Q 2113 -91 1625 -91 
z
M 891 1344 
Q 891 869 1089 633 
Q 1288 397 1691 397 
Q 2269 397 2648 901 
Q 3028 1406 3028 2181 
Q 3028 2634 2825 2865 
Q 2622 3097 2228 3097 
Q 1903 3097 1650 2945 
Q 1397 2794 1197 2484 
Q 1050 2253 970 1956 
Q 891 1659 891 1344 
z
" transform="scale(0.015625)"/>
      <path id="DejaVuSans-Oblique-71" d="M 2669 525 
Q 2438 222 2123 65 
Q 1809 -91 1428 -91 
Q 897 -91 595 267 
Q 294 625 294 1253 
Q 294 1759 480 2231 
Q 666 2703 1013 3078 
Q 1238 3322 1530 3453 
Q 1822 3584 2144 3584 
Q 2531 3584 2781 3431 
Q 3031 3278 3144 2969 
L 3244 3494 
L 3822 3494 
L 2888 -1319 
L 2309 -1319 
L 2669 525 
z
M 891 1338 
Q 891 875 1084 633 
Q 1278 391 1644 391 
Q 2188 391 2572 911 
Q 2956 1431 2956 2175 
Q 2956 2625 2757 2864 
Q 2559 3103 2188 3103 
Q 1916 3103 1684 2976 
Q 1453 2850 1281 2606 
Q 1100 2350 995 2006 
Q 891 1663 891 1338 
z
" transform="scale(0.015625)"/>
     </defs>
     <use xlink:href="#DejaVuSans-Oblique-46"/>
     <use xlink:href="#DejaVuSans-Oblique-69" x="57.519531"/>
     <use xlink:href="#DejaVuSans-Oblique-67" x="85.302734"/>
     <use xlink:href="#DejaVuSans-Oblique-75" x="148.779297"/>
     <use xlink:href="#DejaVuSans-Oblique-72" x="212.158203"/>
     <use xlink:href="#DejaVuSans-Oblique-65" x="253.271484"/>
     <use xlink:href="#DejaVuSans-Oblique-20" x="314.794922"/>
     <use xlink:href="#DejaVuSans-Oblique-32" x="346.582031"/>
     <use xlink:href="#DejaVuSans-Oblique-2e" x="410.205078"/>
     <use xlink:href="#DejaVuSans-Oblique-20" x="441.992188"/>
     <use xlink:href="#DejaVuSans-Oblique-45" x="473.779297"/>
     <use xlink:href="#DejaVuSans-Oblique-49" x="536.962891"/>
     <use xlink:href="#DejaVuSans-Oblique-50" x="566.455078"/>
     <use xlink:href="#DejaVuSans-Oblique-2d" x="621.257812"/>
     <use xlink:href="#DejaVuSans-Oblique-31" x="657.341797"/>
     <use xlink:href="#DejaVuSans-Oblique-39" x="720.964844"/>
     <use xlink:href="#DejaVuSans-Oblique-31" x="784.587891"/>
     <use xlink:href="#DejaVuSans-Oblique-20" x="848.210938"/>
     <use xlink:href="#DejaVuSans-Oblique-77" x="879.998047"/>
     <use xlink:href="#DejaVuSans-Oblique-61" x="961.785156"/>
     <use xlink:href="#DejaVuSans-Oblique-6c" x="1023.064453"/>
     <use xlink:href="#DejaVuSans-Oblique-6c" x="1050.847656"/>
     <use xlink:href="#DejaVuSans-Oblique-65" x="1078.630859"/>
     <use xlink:href="#DejaVuSans-Oblique-74" x="1140.154297"/>
     <use xlink:href="#DejaVuSans-Oblique-2d" x="1179.363281"/>
     <use xlink:href="#DejaVuSans-Oblique-73" x="1215.447266"/>
     <use xlink:href="#DejaVuSans-Oblique-69" x="1267.546875"/>
     <use xlink:href="#DejaVuSans-Oblique-67" x="1295.330078"/>
     <use xlink:href="#DejaVuSans-Oblique-6e" x="1358.806641"/>
     <use xlink:href="#DejaVuSans-Oblique-65" x="1422.185547"/>
     <use xlink:href="#DejaVuSans-Oblique-64" x="1483.708984"/>
     <use xlink:href="#DejaVuSans-Oblique-20" x="1547.185547"/>
     <use xlink:href="#DejaVuSans-Oblique-63" x="1578.972656"/>
     <use xlink:href="#DejaVuSans-Oblique-6f" x="1633.953125"/>
     <use xlink:href="#DejaVuSans-Oblique-6e" x="1695.134766"/>
     <use xlink:href="#DejaVuSans-Oblique-73" x="1758.513672"/>
     <use xlink:href="#DejaVuSans-Oblique-65" x="1810.613281"/>
     <use xlink:href="#DejaVuSans-Oblique-6e" x="1872.136719"/>
     <use xlink:href="#DejaVuSans-Oblique-74" x="1935.515625"/>
     <use xlink:href="#DejaVuSans-Oblique-20" x="1974.724609"/>
     <use xlink:href="#DejaVuSans-Oblique-61" x="2006.511719"/>
     <use xlink:href="#DejaVuSans-Oblique-74" x="2067.791016"/>
     <use xlink:href="#DejaVuSans-Oblique-74" x="2107"/>
     <use xlink:href="#DejaVuSans-Oblique-65" x="2146.208984"/>
     <use xlink:href="#DejaVuSans-Oblique-73" x="2207.732422"/>
     <use xlink:href="#DejaVuSans-Oblique-74" x="2259.832031"/>
     <use xlink:href="#DejaVuSans-Oblique-61" x="2299.041016"/>
     <use xlink:href="#DejaVuSans-Oblique-74" x="2360.320312"/>
     <use xlink:href="#DejaVuSans-Oblique-69" x="2399.529297"/>
     <use xlink:href="#DejaVuSans-Oblique-6f" x="2427.3125"/>
     <use xlink:href="#DejaVuSans-Oblique-6e" x="2488.494141"/>
     <use xlink:href="#DejaVuSans-Oblique-20" x="2551.873047"/>
     <use xlink:href="#DejaVuSans-Oblique-73" x="2583.660156"/>
     <use xlink:href="#DejaVuSans-Oblique-65" x="2635.759766"/>
     <use xlink:href="#DejaVuSans-Oblique-71" x="2697.283203"/>
     <use xlink:href="#DejaVuSans-Oblique-75" x="2760.759766"/>
     <use xlink:href="#DejaVuSans-Oblique-65" x="2824.138672"/>
     <use xlink:href="#DejaVuSans-Oblique-6e" x="2885.662109"/>
     <use xlink:href="#DejaVuSans-Oblique-63" x="2949.041016"/>
     <use xlink:href="#DejaVuSans-Oblique-65" x="3004.021484"/>
     <use xlink:href="#DejaVuSans-Oblique-2e" x="3065.544922"/>
    </g>
   </g>
   <g id="text_2">
    <g id="patch_2">
     <path d="M 31.652422 61.541391 
L 72.027578 61.541391 
Q 73.327578 61.541391 73.327578 60.241391 
L 73.327578 53.950609 
Q 73.327578 52.650609 72.027578 52.650609 
L 31.652422 52.650609 
Q 30.352422 52.650609 30.352422 53.950609 
L 30.352422 60.241391 
Q 30.352422 61.541391 31.652422 61.541391 
z
" style="fill: #ecf0f1; stroke: #000000; stroke-width: 0.6; stroke-linejoin: miter"/>
    </g>
    <!-- Participant -->
    <g transform="translate(31.652422 58.889594) scale(0.065 -0.065)">
     <defs>
      <path id="DejaVuSans-Bold-50" d="M 588 4666 
L 2584 4666 
Q 3475 4666 3951 4270 
Q 4428 3875 4428 3144 
Q 4428 2409 3951 2014 
Q 3475 1619 2584 1619 
L 1791 1619 
L 1791 0 
L 588 0 
L 588 4666 
z
M 1791 3794 
L 1791 2491 
L 2456 2491 
Q 2806 2491 2997 2661 
Q 3188 2831 3188 3144 
Q 3188 3456 2997 3625 
Q 2806 3794 2456 3794 
L 1791 3794 
z
" transform="scale(0.015625)"/>
      <path id="DejaVuSans-Bold-61" d="M 2106 1575 
Q 1756 1575 1579 1456 
Q 1403 1338 1403 1106 
Q 1403 894 1545 773 
Q 1688 653 1941 653 
Q 2256 653 2472 879 
Q 2688 1106 2688 1447 
L 2688 1575 
L 2106 1575 
z
M 3816 1997 
L 3816 0 
L 2688 0 
L 2688 519 
Q 2463 200 2181 54 
Q 1900 -91 1497 -91 
Q 953 -91 614 226 
Q 275 544 275 1050 
Q 275 1666 698 1953 
Q 1122 2241 2028 2241 
L 2688 2241 
L 2688 2328 
Q 2688 2594 2478 2717 
Q 2269 2841 1825 2841 
Q 1466 2841 1156 2769 
Q 847 2697 581 2553 
L 581 3406 
Q 941 3494 1303 3539 
Q 1666 3584 2028 3584 
Q 2975 3584 3395 3211 
Q 3816 2838 3816 1997 
z
" transform="scale(0.015625)"/>
      <path id="DejaVuSans-Bold-72" d="M 3138 2547 
Q 2991 2616 2845 2648 
Q 2700 2681 2553 2681 
Q 2122 2681 1889 2404 
Q 1656 2128 1656 1613 
L 1656 0 
L 538 0 
L 538 3500 
L 1656 3500 
L 1656 2925 
Q 1872 3269 2151 3426 
Q 2431 3584 2822 3584 
Q 2878 3584 2943 3579 
Q 3009 3575 3134 3559 
L 3138 2547 
z
" transform="scale(0.015625)"/>
      <path id="DejaVuSans-Bold-74" d="M 1759 4494 
L 1759 3500 
L 2913 3500 
L 2913 2700 
L 1759 2700 
L 1759 1216 
Q 1759 972 1856 886 
Q 1953 800 2241 800 
L 2816 800 
L 2816 0 
L 1856 0 
Q 1194 0 917 276 
Q 641 553 641 1216 
L 641 2700 
L 84 2700 
L 84 3500 
L 641 3500 
L 641 4494 
L 1759 4494 
z
" transform="scale(0.015625)"/>
      <path id="DejaVuSans-Bold-69" d="M 538 3500 
L 1656 3500 
L 1656 0 
L 538 0 
L 538 3500 
z
M 538 4863 
L 1656 4863 
L 1656 3950 
L 538 3950 
L 538 4863 
z
" transform="scale(0.015625)"/>
      <path id="DejaVuSans-Bold-63" d="M 3366 3391 
L 3366 2478 
Q 3138 2634 2908 2709 
Q 2678 2784 2431 2784 
Q 1963 2784 1702 2511 
Q 1441 2238 1441 1747 
Q 1441 1256 1702 982 
Q 1963 709 2431 709 
Q 2694 709 2930 787 
Q 3166 866 3366 1019 
L 3366 103 
Q 3103 6 2833 -42 
Q 2563 -91 2291 -91 
Q 1344 -91 809 395 
Q 275 881 275 1747 
Q 275 2613 809 3098 
Q 1344 3584 2291 3584 
Q 2566 3584 2833 3536 
Q 3100 3488 3366 3391 
z
" transform="scale(0.015625)"/>
      <path id="DejaVuSans-Bold-70" d="M 1656 506 
L 1656 -1331 
L 538 -1331 
L 538 3500 
L 1656 3500 
L 1656 2988 
Q 1888 3294 2169 3439 
Q 2450 3584 2816 3584 
Q 3463 3584 3878 3070 
Q 4294 2556 4294 1747 
Q 4294 938 3878 423 
Q 3463 -91 2816 -91 
Q 2450 -91 2169 54 
Q 1888 200 1656 506 
z
M 2400 2772 
Q 2041 2772 1848 2508 
Q 1656 2244 1656 1747 
Q 1656 1250 1848 986 
Q 2041 722 2400 722 
Q 2759 722 2948 984 
Q 3138 1247 3138 1747 
Q 3138 2247 2948 2509 
Q 2759 2772 2400 2772 
z
" transform="scale(0.015625)"/>
      <path id="DejaVuSans-Bold-6e" d="M 4056 2131 
L 4056 0 
L 2931 0 
L 2931 347 
L 2931 1631 
Q 2931 2084 2911 2256 
Q 2891 2428 2841 2509 
Q 2775 2619 2662 2680 
Q 2550 2741 2406 2741 
Q 2056 2741 1856 2470 
Q 1656 2200 1656 1722 
L 1656 0 
L 538 0 
L 538 3500 
L 1656 3500 
L 1656 2988 
Q 1909 3294 2193 3439 
Q 2478 3584 2822 3584 
Q 3428 3584 3742 3212 
Q 4056 2841 4056 2131 
z
" transform="scale(0.015625)"/>
     </defs>
     <use xlink:href="#DejaVuSans-Bold-50"/>
     <use xlink:href="#DejaVuSans-Bold-61" x="70.666016"/>
     <use xlink:href="#DejaVuSans-Bold-72" x="138.146484"/>
     <use xlink:href="#DejaVuSans-Bold-74" x="187.462891"/>
     <use xlink:href="#DejaVuSans-Bold-69" x="235.265625"/>
     <use xlink:href="#DejaVuSans-Bold-63" x="269.542969"/>
     <use xlink:href="#DejaVuSans-Bold-69" x="328.820312"/>
     <use xlink:href="#DejaVuSans-Bold-70" x="363.097656"/>
     <use xlink:href="#DejaVuSans-Bold-61" x="434.679688"/>
     <use xlink:href="#DejaVuSans-Bold-6e" x="502.160156"/>
     <use xlink:href="#DejaVuSans-Bold-74" x="573.351562"/>
    </g>
   </g>
   <g id="text_3">
    <g id="patch_3">
     <path d="M 118.313828 61.541391 
L 141.606172 61.541391 
Q 142.906172 61.541391 142.906172 60.241391 
L 142.906172 53.950609 
Q 142.906172 52.650609 141.606172 52.650609 
L 118.313828 52.650609 
Q 117.013828 52.650609 117.013828 53.950609 
L 117.013828 60.241391 
Q 117.013828 61.541391 118.313828 61.541391 
z
" style="fill: #ecf0f1; stroke: #000000; stroke-width: 0.6; stroke-linejoin: miter"/>
    </g>
    <!-- Wallet -->
    <g transform="translate(118.313828 58.889594) scale(0.065 -0.065)">
     <defs>
      <path id="DejaVuSans-Bold-57" d="M 191 4666 
L 1344 4666 
L 2150 1275 
L 2950 4666 
L 4109 4666 
L 4909 1275 
L 5716 4666 
L 6859 4666 
L 5759 0 
L 4372 0 
L 3525 3547 
L 2688 0 
L 1300 0 
L 191 4666 
z
" transform="scale(0.015625)"/>
      <path id="DejaVuSans-Bold-6c" d="M 538 4863 
L 1656 4863 
L 1656 0 
L 538 0 
L 538 4863 
z
" transform="scale(0.015625)"/>
      <path id="DejaVuSans-Bold-65" d="M 4031 1759 
L 4031 1441 
L 1416 1441 
Q 1456 1047 1700 850 
Q 1944 653 2381 653 
Q 2734 653 3104 758 
Q 3475 863 3866 1075 
L 3866 213 
Q 3469 63 3072 -14 
Q 2675 -91 2278 -91 
Q 1328 -91 801 392 
Q 275 875 275 1747 
Q 275 2603 792 3093 
Q 1309 3584 2216 3584 
Q 3041 3584 3536 3087 
Q 4031 2591 4031 1759 
z
M 2881 2131 
Q 2881 2450 2695 2645 
Q 2509 2841 2209 2841 
Q 1884 2841 1681 2658 
Q 1478 2475 1428 2131 
L 2881 2131 
z
" transform="scale(0.015625)"/>
     </defs>
     <use xlink:href="#DejaVuSans-Bold-57"/>
     <use xlink:href="#DejaVuSans-Bold-61" x="106.677734"/>
     <use xlink:href="#DejaVuSans-Bold-6c" x="174.158203"/>
     <use xlink:href="#DejaVuSans-Bold-6c" x="208.435547"/>
     <use xlink:href="#DejaVuSans-Bold-65" x="242.712891"/>
     <use xlink:href="#DejaVuSans-Bold-74" x="310.535156"/>
    </g>
   </g>
   <g id="text_4">
    <g id="patch_4">
     <path d="M 189.095937 61.541391 
L 227.064063 61.541391 
Q 228.364062 61.541391 228.364062 60.241391 
L 228.364062 53.950609 
Q 228.364062 52.650609 227.064063 52.650609 
L 189.095937 52.650609 
Q 187.795937 52.650609 187.795937 53.950609 
L 187.795937 60.241391 
Q 187.795937 61.541391 189.095937 61.541391 
z
" style="fill: #ecf0f1; stroke: #000000; stroke-width: 0.6; stroke-linejoin: miter"/>
    </g>
    <!-- Client App -->
    <g transform="translate(189.095937 58.889594) scale(0.065 -0.065)">
     <defs>
      <path id="DejaVuSans-Bold-43" d="M 4288 256 
Q 3956 84 3597 -3 
Q 3238 -91 2847 -91 
Q 1681 -91 1000 561 
Q 319 1213 319 2328 
Q 319 3447 1000 4098 
Q 1681 4750 2847 4750 
Q 3238 4750 3597 4662 
Q 3956 4575 4288 4403 
L 4288 3438 
Q 3953 3666 3628 3772 
Q 3303 3878 2944 3878 
Q 2300 3878 1931 3465 
Q 1563 3053 1563 2328 
Q 1563 1606 1931 1193 
Q 2300 781 2944 781 
Q 3303 781 3628 887 
Q 3953 994 4288 1222 
L 4288 256 
z
" transform="scale(0.015625)"/>
      <path id="DejaVuSans-Bold-20" transform="scale(0.015625)"/>
      <path id="DejaVuSans-Bold-41" d="M 3419 850 
L 1538 850 
L 1241 0 
L 31 0 
L 1759 4666 
L 3194 4666 
L 4922 0 
L 3713 0 
L 3419 850 
z
M 1838 1716 
L 3116 1716 
L 2478 3572 
L 1838 1716 
z
" transform="scale(0.015625)"/>
     </defs>
     <use xlink:href="#DejaVuSans-Bold-43"/>
     <use xlink:href="#DejaVuSans-Bold-6c" x="73.388672"/>
     <use xlink:href="#DejaVuSans-Bold-69" x="107.666016"/>
     <use xlink:href="#DejaVuSans-Bold-65" x="141.943359"/>
     <use xlink:href="#DejaVuSans-Bold-6e" x="209.765625"/>
     <use xlink:href="#DejaVuSans-Bold-74" x="280.957031"/>
     <use xlink:href="#DejaVuSans-Bold-20" x="328.759766"/>
     <use xlink:href="#DejaVuSans-Bold-41" x="363.574219"/>
     <use xlink:href="#DejaVuSans-Bold-70" x="440.966797"/>
     <use xlink:href="#DejaVuSans-Bold-70" x="512.548828"/>
    </g>
   </g>
   <g id="text_5">
    <g id="patch_5">
     <path d="M 274.126758 61.541391 
L 298.273242 61.541391 
Q 299.573242 61.541391 299.573242 60.241391 
L 299.573242 53.950609 
Q 299.573242 52.650609 298.273242 52.650609 
L 274.126758 52.650609 
Q 272.826758 52.650609 272.826758 53.950609 
L 272.826758 60.241391 
Q 272.826758 61.541391 274.126758 61.541391 
z
" style="fill: #ecf0f1; stroke: #000000; stroke-width: 0.6; stroke-linejoin: miter"/>
    </g>
    <!-- Server -->
    <g transform="translate(274.126758 58.889594) scale(0.065 -0.065)">
     <defs>
      <path id="DejaVuSans-Bold-53" d="M 3834 4519 
L 3834 3531 
Q 3450 3703 3084 3790 
Q 2719 3878 2394 3878 
Q 1963 3878 1756 3759 
Q 1550 3641 1550 3391 
Q 1550 3203 1689 3098 
Q 1828 2994 2194 2919 
L 2706 2816 
Q 3484 2659 3812 2340 
Q 4141 2022 4141 1434 
Q 4141 663 3683 286 
Q 3225 -91 2284 -91 
Q 1841 -91 1394 -6 
Q 947 78 500 244 
L 500 1259 
Q 947 1022 1364 901 
Q 1781 781 2169 781 
Q 2563 781 2772 912 
Q 2981 1044 2981 1288 
Q 2981 1506 2839 1625 
Q 2697 1744 2272 1838 
L 1806 1941 
Q 1106 2091 782 2419 
Q 459 2747 459 3303 
Q 459 4000 909 4375 
Q 1359 4750 2203 4750 
Q 2588 4750 2994 4692 
Q 3400 4634 3834 4519 
z
" transform="scale(0.015625)"/>
      <path id="DejaVuSans-Bold-76" d="M 97 3500 
L 1216 3500 
L 2088 1081 
L 2956 3500 
L 4078 3500 
L 2700 0 
L 1472 0 
L 97 3500 
z
" transform="scale(0.015625)"/>
     </defs>
     <use xlink:href="#DejaVuSans-Bold-53"/>
     <use xlink:href="#DejaVuSans-Bold-65" x="72.021484"/>
     <use xlink:href="#DejaVuSans-Bold-72" x="139.84375"/>
     <use xlink:href="#DejaVuSans-Bold-76" x="189.160156"/>
     <use xlink:href="#DejaVuSans-Bold-65" x="254.345703"/>
     <use xlink:href="#DejaVuSans-Bold-72" x="322.167969"/>
    </g>
   </g>
   <g id="text_6">
    <g id="patch_6">
     <path d="M 342.840234 61.541391 
L 363.479766 61.541391 
Q 364.779766 61.541391 364.779766 60.241391 
L 364.779766 53.950609 
Q 364.779766 52.650609 363.479766 52.650609 
L 342.840234 52.650609 
Q 341.540234 52.650609 341.540234 53.950609 
L 341.540234 60.241391 
Q 341.540234 61.541391 342.840234 61.541391 
z
" style="fill: #ecf0f1; stroke: #000000; stroke-width: 0.6; stroke-linejoin: miter"/>
    </g>
    <!-- Chain -->
    <g transform="translate(342.840234 58.889594) scale(0.065 -0.065)">
     <defs>
      <path id="DejaVuSans-Bold-68" d="M 4056 2131 
L 4056 0 
L 2931 0 
L 2931 347 
L 2931 1625 
Q 2931 2084 2911 2256 
Q 2891 2428 2841 2509 
Q 2775 2619 2662 2680 
Q 2550 2741 2406 2741 
Q 2056 2741 1856 2470 
Q 1656 2200 1656 1722 
L 1656 0 
L 538 0 
L 538 4863 
L 1656 4863 
L 1656 2988 
Q 1909 3294 2193 3439 
Q 2478 3584 2822 3584 
Q 3428 3584 3742 3212 
Q 4056 2841 4056 2131 
z
" transform="scale(0.015625)"/>
     </defs>
     <use xlink:href="#DejaVuSans-Bold-43"/>
     <use xlink:href="#DejaVuSans-Bold-68" x="73.388672"/>
     <use xlink:href="#DejaVuSans-Bold-61" x="144.580078"/>
     <use xlink:href="#DejaVuSans-Bold-69" x="212.060547"/>
     <use xlink:href="#DejaVuSans-Bold-6e" x="246.337891"/>
    </g>
   </g>
   <g id="patch_7">
    <path d="M 206.08218 101.448 
Q 169.022331 101.448 132.633302 101.448 
" style="fill: none; stroke: #2c3e50; stroke-width: 0.6; stroke-linecap: round"/>
    <path d="M 136.633302 103.448 
L 132.633302 101.448 
L 136.633302 99.448 
" style="fill: none; stroke: #2c3e50; stroke-width: 0.6; stroke-linecap: round"/>
   </g>
   <g id="text_7">
    <!-- 1. eth_requestAccounts -->
    <g transform="translate(139.589141 90.289894) scale(0.05 -0.05)">
     <defs>
      <path id="DejaVuSans-31" d="M 794 531 
L 1825 531 
L 1825 4091 
L 703 3866 
L 703 4441 
L 1819 4666 
L 2450 4666 
L 2450 531 
L 3481 531 
L 3481 0 
L 794 0 
L 794 531 
z
" transform="scale(0.015625)"/>
      <path id="DejaVuSans-2e" d="M 684 794 
L 1344 794 
L 1344 0 
L 684 0 
L 684 794 
z
" transform="scale(0.015625)"/>
      <path id="DejaVuSans-20" transform="scale(0.015625)"/>
      <path id="DejaVuSans-65" d="M 3597 1894 
L 3597 1613 
L 953 1613 
Q 991 1019 1311 708 
Q 1631 397 2203 397 
Q 2534 397 2845 478 
Q 3156 559 3463 722 
L 3463 178 
Q 3153 47 2828 -22 
Q 2503 -91 2169 -91 
Q 1331 -91 842 396 
Q 353 884 353 1716 
Q 353 2575 817 3079 
Q 1281 3584 2069 3584 
Q 2775 3584 3186 3129 
Q 3597 2675 3597 1894 
z
M 3022 2063 
Q 3016 2534 2758 2815 
Q 2500 3097 2075 3097 
Q 1594 3097 1305 2825 
Q 1016 2553 972 2059 
L 3022 2063 
z
" transform="scale(0.015625)"/>
      <path id="DejaVuSans-74" d="M 1172 4494 
L 1172 3500 
L 2356 3500 
L 2356 3053 
L 1172 3053 
L 1172 1153 
Q 1172 725 1289 603 
Q 1406 481 1766 481 
L 2356 481 
L 2356 0 
L 1766 0 
Q 1100 0 847 248 
Q 594 497 594 1153 
L 594 3053 
L 172 3053 
L 172 3500 
L 594 3500 
L 594 4494 
L 1172 4494 
z
" transform="scale(0.015625)"/>
      <path id="DejaVuSans-68" d="M 3513 2113 
L 3513 0 
L 2938 0 
L 2938 2094 
Q 2938 2591 2744 2837 
Q 2550 3084 2163 3084 
Q 1697 3084 1428 2787 
Q 1159 2491 1159 1978 
L 1159 0 
L 581 0 
L 581 4863 
L 1159 4863 
L 1159 2956 
Q 1366 3272 1645 3428 
Q 1925 3584 2291 3584 
Q 2894 3584 3203 3211 
Q 3513 2838 3513 2113 
z
" transform="scale(0.015625)"/>
      <path id="DejaVuSans-5f" d="M 3263 -1063 
L 3263 -1509 
L -63 -1509 
L -63 -1063 
L 3263 -1063 
z
" transform="scale(0.015625)"/>
      <path id="DejaVuSans-72" d="M 2631 2963 
Q 2534 3019 2420 3045 
Q 2306 3072 2169 3072 
Q 1681 3072 1420 2755 
Q 1159 2438 1159 1844 
L 1159 0 
L 581 0 
L 581 3500 
L 1159 3500 
L 1159 2956 
Q 1341 3275 1631 3429 
Q 1922 3584 2338 3584 
Q 2397 3584 2469 3576 
Q 2541 3569 2628 3553 
L 2631 2963 
z
" transform="scale(0.015625)"/>
      <path id="DejaVuSans-71" d="M 947 1747 
Q 947 1113 1208 752 
Q 1469 391 1925 391 
Q 2381 391 2643 752 
Q 2906 1113 2906 1747 
Q 2906 2381 2643 2742 
Q 2381 3103 1925 3103 
Q 1469 3103 1208 2742 
Q 947 2381 947 1747 
z
M 2906 525 
Q 2725 213 2448 61 
Q 2172 -91 1784 -91 
Q 1150 -91 751 415 
Q 353 922 353 1747 
Q 353 2572 751 3078 
Q 1150 3584 1784 3584 
Q 2172 3584 2448 3432 
Q 2725 3281 2906 2969 
L 2906 3500 
L 3481 3500 
L 3481 -1331 
L 2906 -1331 
L 2906 525 
z
" transform="scale(0.015625)"/>
      <path id="DejaVuSans-75" d="M 544 1381 
L 544 3500 
L 1119 3500 
L 1119 1403 
Q 1119 906 1312 657 
Q 1506 409 1894 409 
Q 2359 409 2629 706 
Q 2900 1003 2900 1516 
L 2900 3500 
L 3475 3500 
L 3475 0 
L 2900 0 
L 2900 538 
Q 2691 219 2414 64 
Q 2138 -91 1772 -91 
Q 1169 -91 856 284 
Q 544 659 544 1381 
z
M 1991 3584 
L 1991 3584 
z
" transform="scale(0.015625)"/>
      <path id="DejaVuSans-73" d="M 2834 3397 
L 2834 2853 
Q 2591 2978 2328 3040 
Q 2066 3103 1784 3103 
Q 1356 3103 1142 2972 
Q 928 2841 928 2578 
Q 928 2378 1081 2264 
Q 1234 2150 1697 2047 
L 1894 2003 
Q 2506 1872 2764 1633 
Q 3022 1394 3022 966 
Q 3022 478 2636 193 
Q 2250 -91 1575 -91 
Q 1294 -91 989 -36 
Q 684 19 347 128 
L 347 722 
Q 666 556 975 473 
Q 1284 391 1588 391 
Q 1994 391 2212 530 
Q 2431 669 2431 922 
Q 2431 1156 2273 1281 
Q 2116 1406 1581 1522 
L 1381 1569 
Q 847 1681 609 1914 
Q 372 2147 372 2553 
Q 372 3047 722 3315 
Q 1072 3584 1716 3584 
Q 2034 3584 2315 3537 
Q 2597 3491 2834 3397 
z
" transform="scale(0.015625)"/>
      <path id="DejaVuSans-41" d="M 2188 4044 
L 1331 1722 
L 3047 1722 
L 2188 4044 
z
M 1831 4666 
L 2547 4666 
L 4325 0 
L 3669 0 
L 3244 1197 
L 1141 1197 
L 716 0 
L 50 0 
L 1831 4666 
z
" transform="scale(0.015625)"/>
      <path id="DejaVuSans-63" d="M 3122 3366 
L 3122 2828 
Q 2878 2963 2633 3030 
Q 2388 3097 2138 3097 
Q 1578 3097 1268 2742 
Q 959 2388 959 1747 
Q 959 1106 1268 751 
Q 1578 397 2138 397 
Q 2388 397 2633 464 
Q 2878 531 3122 666 
L 3122 134 
Q 2881 22 2623 -34 
Q 2366 -91 2075 -91 
Q 1284 -91 818 406 
Q 353 903 353 1747 
Q 353 2603 823 3093 
Q 1294 3584 2113 3584 
Q 2378 3584 2631 3529 
Q 2884 3475 3122 3366 
z
" transform="scale(0.015625)"/>
      <path id="DejaVuSans-6f" d="M 1959 3097 
Q 1497 3097 1228 2736 
Q 959 2375 959 1747 
Q 959 1119 1226 758 
Q 1494 397 1959 397 
Q 2419 397 2687 759 
Q 2956 1122 2956 1747 
Q 2956 2369 2687 2733 
Q 2419 3097 1959 3097 
z
M 1959 3584 
Q 2709 3584 3137 3096 
Q 3566 2609 3566 1747 
Q 3566 888 3137 398 
Q 2709 -91 1959 -91 
Q 1206 -91 779 398 
Q 353 888 353 1747 
Q 353 2609 779 3096 
Q 1206 3584 1959 3584 
z
" transform="scale(0.015625)"/>
      <path id="DejaVuSans-6e" d="M 3513 2113 
L 3513 0 
L 2938 0 
L 2938 2094 
Q 2938 2591 2744 2837 
Q 2550 3084 2163 3084 
Q 1697 3084 1428 2787 
Q 1159 2491 1159 1978 
L 1159 0 
L 581 0 
L 581 3500 
L 1159 3500 
L 1159 2956 
Q 1366 3272 1645 3428 
Q 1925 3584 2291 3584 
Q 2894 3584 3203 3211 
Q 3513 2838 3513 2113 
z
" transform="scale(0.015625)"/>
     </defs>
     <use xlink:href="#DejaVuSans-31"/>
     <use xlink:href="#DejaVuSans-2e" x="63.623047"/>
     <use xlink:href="#DejaVuSans-20" x="95.410156"/>
     <use xlink:href="#DejaVuSans-65" x="127.197266"/>
     <use xlink:href="#DejaVuSans-74" x="188.720703"/>
     <use xlink:href="#DejaVuSans-68" x="227.929688"/>
     <use xlink:href="#DejaVuSans-5f" x="291.308594"/>
     <use xlink:href="#DejaVuSans-72" x="341.308594"/>
     <use xlink:href="#DejaVuSans-65" x="380.171875"/>
     <use xlink:href="#DejaVuSans-71" x="441.695312"/>
     <use xlink:href="#DejaVuSans-75" x="505.171875"/>
     <use xlink:href="#DejaVuSans-65" x="568.550781"/>
     <use xlink:href="#DejaVuSans-73" x="630.074219"/>
     <use xlink:href="#DejaVuSans-74" x="682.173828"/>
     <use xlink:href="#DejaVuSans-41" x="721.382812"/>
     <use xlink:href="#DejaVuSans-63" x="788.041016"/>
     <use xlink:href="#DejaVuSans-63" x="843.021484"/>
     <use xlink:href="#DejaVuSans-6f" x="898.001953"/>
     <use xlink:href="#DejaVuSans-75" x="959.183594"/>
     <use xlink:href="#DejaVuSans-6e" x="1022.5625"/>
     <use xlink:href="#DejaVuSans-74" x="1085.941406"/>
     <use xlink:href="#DejaVuSans-73" x="1125.150391"/>
    </g>
   </g>
   <g id="patch_8">
    <path d="M 210.07782 134.712 
Q 247.137669 134.712 283.526698 134.712 
" style="fill: none; stroke: #2c3e50; stroke-width: 0.6; stroke-linecap: round"/>
    <path d="M 279.526698 132.712 
L 283.526698 134.712 
L 279.526698 136.712 
" style="fill: none; stroke: #2c3e50; stroke-width: 0.6; stroke-linecap: round"/>
   </g>
   <g id="text_8">
    <!-- 2. Request nonce -->
    <g transform="translate(225.399375 123.692956) scale(0.05 -0.05)">
     <defs>
      <path id="DejaVuSans-32" d="M 1228 531 
L 3431 531 
L 3431 0 
L 469 0 
L 469 531 
Q 828 903 1448 1529 
Q 2069 2156 2228 2338 
Q 2531 2678 2651 2914 
Q 2772 3150 2772 3378 
Q 2772 3750 2511 3984 
Q 2250 4219 1831 4219 
Q 1534 4219 1204 4116 
Q 875 4013 500 3803 
L 500 4441 
Q 881 4594 1212 4672 
Q 1544 4750 1819 4750 
Q 2544 4750 2975 4387 
Q 3406 4025 3406 3419 
Q 3406 3131 3298 2873 
Q 3191 2616 2906 2266 
Q 2828 2175 2409 1742 
Q 1991 1309 1228 531 
z
" transform="scale(0.015625)"/>
      <path id="DejaVuSans-52" d="M 2841 2188 
Q 3044 2119 3236 1894 
Q 3428 1669 3622 1275 
L 4263 0 
L 3584 0 
L 2988 1197 
Q 2756 1666 2539 1819 
Q 2322 1972 1947 1972 
L 1259 1972 
L 1259 0 
L 628 0 
L 628 4666 
L 2053 4666 
Q 2853 4666 3247 4331 
Q 3641 3997 3641 3322 
Q 3641 2881 3436 2590 
Q 3231 2300 2841 2188 
z
M 1259 4147 
L 1259 2491 
L 2053 2491 
Q 2509 2491 2742 2702 
Q 2975 2913 2975 3322 
Q 2975 3731 2742 3939 
Q 2509 4147 2053 4147 
L 1259 4147 
z
" transform="scale(0.015625)"/>
     </defs>
     <use xlink:href="#DejaVuSans-32"/>
     <use xlink:href="#DejaVuSans-2e" x="63.623047"/>
     <use xlink:href="#DejaVuSans-20" x="95.410156"/>
     <use xlink:href="#DejaVuSans-52" x="127.197266"/>
     <use xlink:href="#DejaVuSans-65" x="192.179688"/>
     <use xlink:href="#DejaVuSans-71" x="253.703125"/>
     <use xlink:href="#DejaVuSans-75" x="317.179688"/>
     <use xlink:href="#DejaVuSans-65" x="380.558594"/>
     <use xlink:href="#DejaVuSans-73" x="442.082031"/>
     <use xlink:href="#DejaVuSans-74" x="494.181641"/>
     <use xlink:href="#DejaVuSans-20" x="533.390625"/>
     <use xlink:href="#DejaVuSans-6e" x="565.177734"/>
     <use xlink:href="#DejaVuSans-6f" x="628.556641"/>
     <use xlink:href="#DejaVuSans-6e" x="689.738281"/>
     <use xlink:href="#DejaVuSans-63" x="753.117188"/>
     <use xlink:href="#DejaVuSans-65" x="808.097656"/>
    </g>
   </g>
   <g id="patch_9">
    <path d="M 284.20218 167.976 
Q 247.142331 167.976 210.753302 167.976 
" style="fill: none; stroke: #2c3e50; stroke-width: 0.6; stroke-linecap: round"/>
    <path d="M 214.753302 169.976 
L 210.753302 167.976 
L 214.753302 165.976 
" style="fill: none; stroke: #2c3e50; stroke-width: 0.6; stroke-linecap: round"/>
   </g>
   <g id="text_9">
    <!-- 3. Return nonce -->
    <g transform="translate(227.25875 156.956956) scale(0.05 -0.05)">
     <defs>
      <path id="DejaVuSans-33" d="M 2597 2516 
Q 3050 2419 3304 2112 
Q 3559 1806 3559 1356 
Q 3559 666 3084 287 
Q 2609 -91 1734 -91 
Q 1441 -91 1130 -33 
Q 819 25 488 141 
L 488 750 
Q 750 597 1062 519 
Q 1375 441 1716 441 
Q 2309 441 2620 675 
Q 2931 909 2931 1356 
Q 2931 1769 2642 2001 
Q 2353 2234 1838 2234 
L 1294 2234 
L 1294 2753 
L 1863 2753 
Q 2328 2753 2575 2939 
Q 2822 3125 2822 3475 
Q 2822 3834 2567 4026 
Q 2313 4219 1838 4219 
Q 1578 4219 1281 4162 
Q 984 4106 628 3988 
L 628 4550 
Q 988 4650 1302 4700 
Q 1616 4750 1894 4750 
Q 2613 4750 3031 4423 
Q 3450 4097 3450 3541 
Q 3450 3153 3228 2886 
Q 3006 2619 2597 2516 
z
" transform="scale(0.015625)"/>
     </defs>
     <use xlink:href="#DejaVuSans-33"/>
     <use xlink:href="#DejaVuSans-2e" x="63.623047"/>
     <use xlink:href="#DejaVuSans-20" x="95.410156"/>
     <use xlink:href="#DejaVuSans-52" x="127.197266"/>
     <use xlink:href="#DejaVuSans-65" x="192.179688"/>
     <use xlink:href="#DejaVuSans-74" x="253.703125"/>
     <use xlink:href="#DejaVuSans-75" x="292.912109"/>
     <use xlink:href="#DejaVuSans-72" x="356.291016"/>
     <use xlink:href="#DejaVuSans-6e" x="395.654297"/>
     <use xlink:href="#DejaVuSans-20" x="459.033203"/>
     <use xlink:href="#DejaVuSans-6e" x="490.820312"/>
     <use xlink:href="#DejaVuSans-6f" x="554.199219"/>
     <use xlink:href="#DejaVuSans-6e" x="615.380859"/>
     <use xlink:href="#DejaVuSans-63" x="678.759766"/>
     <use xlink:href="#DejaVuSans-65" x="733.740234"/>
    </g>
   </g>
   <g id="text_10">
    <!-- 4. Construct consent message -->
    <g transform="translate(203.552969 190.220956) scale(0.05 -0.05)">
     <defs>
      <path id="DejaVuSans-34" d="M 2419 4116 
L 825 1625 
L 2419 1625 
L 2419 4116 
z
M 2253 4666 
L 3047 4666 
L 3047 1625 
L 3713 1625 
L 3713 1100 
L 3047 1100 
L 3047 0 
L 2419 0 
L 2419 1100 
L 313 1100 
L 313 1709 
L 2253 4666 
z
" transform="scale(0.015625)"/>
      <path id="DejaVuSans-43" d="M 4122 4306 
L 4122 3641 
Q 3803 3938 3442 4084 
Q 3081 4231 2675 4231 
Q 1875 4231 1450 3742 
Q 1025 3253 1025 2328 
Q 1025 1406 1450 917 
Q 1875 428 2675 428 
Q 3081 428 3442 575 
Q 3803 722 4122 1019 
L 4122 359 
Q 3791 134 3420 21 
Q 3050 -91 2638 -91 
Q 1578 -91 968 557 
Q 359 1206 359 2328 
Q 359 3453 968 4101 
Q 1578 4750 2638 4750 
Q 3056 4750 3426 4639 
Q 3797 4528 4122 4306 
z
" transform="scale(0.015625)"/>
      <path id="DejaVuSans-6d" d="M 3328 2828 
Q 3544 3216 3844 3400 
Q 4144 3584 4550 3584 
Q 5097 3584 5394 3201 
Q 5691 2819 5691 2113 
L 5691 0 
L 5113 0 
L 5113 2094 
Q 5113 2597 4934 2840 
Q 4756 3084 4391 3084 
Q 3944 3084 3684 2787 
Q 3425 2491 3425 1978 
L 3425 0 
L 2847 0 
L 2847 2094 
Q 2847 2600 2669 2842 
Q 2491 3084 2119 3084 
Q 1678 3084 1418 2786 
Q 1159 2488 1159 1978 
L 1159 0 
L 581 0 
L 581 3500 
L 1159 3500 
L 1159 2956 
Q 1356 3278 1631 3431 
Q 1906 3584 2284 3584 
Q 2666 3584 2933 3390 
Q 3200 3197 3328 2828 
z
" transform="scale(0.015625)"/>
      <path id="DejaVuSans-61" d="M 2194 1759 
Q 1497 1759 1228 1600 
Q 959 1441 959 1056 
Q 959 750 1161 570 
Q 1363 391 1709 391 
Q 2188 391 2477 730 
Q 2766 1069 2766 1631 
L 2766 1759 
L 2194 1759 
z
M 3341 1997 
L 3341 0 
L 2766 0 
L 2766 531 
Q 2569 213 2275 61 
Q 1981 -91 1556 -91 
Q 1019 -91 701 211 
Q 384 513 384 1019 
Q 384 1609 779 1909 
Q 1175 2209 1959 2209 
L 2766 2209 
L 2766 2266 
Q 2766 2663 2505 2880 
Q 2244 3097 1772 3097 
Q 1472 3097 1187 3025 
Q 903 2953 641 2809 
L 641 3341 
Q 956 3463 1253 3523 
Q 1550 3584 1831 3584 
Q 2591 3584 2966 3190 
Q 3341 2797 3341 1997 
z
" transform="scale(0.015625)"/>
      <path id="DejaVuSans-67" d="M 2906 1791 
Q 2906 2416 2648 2759 
Q 2391 3103 1925 3103 
Q 1463 3103 1205 2759 
Q 947 2416 947 1791 
Q 947 1169 1205 825 
Q 1463 481 1925 481 
Q 2391 481 2648 825 
Q 2906 1169 2906 1791 
z
M 3481 434 
Q 3481 -459 3084 -895 
Q 2688 -1331 1869 -1331 
Q 1566 -1331 1297 -1286 
Q 1028 -1241 775 -1147 
L 775 -588 
Q 1028 -725 1275 -790 
Q 1522 -856 1778 -856 
Q 2344 -856 2625 -561 
Q 2906 -266 2906 331 
L 2906 616 
Q 2728 306 2450 153 
Q 2172 0 1784 0 
Q 1141 0 747 490 
Q 353 981 353 1791 
Q 353 2603 747 3093 
Q 1141 3584 1784 3584 
Q 2172 3584 2450 3431 
Q 2728 3278 2906 2969 
L 2906 3500 
L 3481 3500 
L 3481 434 
z
" transform="scale(0.015625)"/>
     </defs>
     <use xlink:href="#DejaVuSans-34"/>
     <use xlink:href="#DejaVuSans-2e" x="63.623047"/>
     <use xlink:href="#DejaVuSans-20" x="95.410156"/>
     <use xlink:href="#DejaVuSans-43" x="127.197266"/>
     <use xlink:href="#DejaVuSans-6f" x="197.021484"/>
     <use xlink:href="#DejaVuSans-6e" x="258.203125"/>
     <use xlink:href="#DejaVuSans-73" x="321.582031"/>
     <use xlink:href="#DejaVuSans-74" x="373.681641"/>
     <use xlink:href="#DejaVuSans-72" x="412.890625"/>
     <use xlink:href="#DejaVuSans-75" x="454.003906"/>
     <use xlink:href="#DejaVuSans-63" x="517.382812"/>
     <use xlink:href="#DejaVuSans-74" x="572.363281"/>
     <use xlink:href="#DejaVuSans-20" x="611.572266"/>
     <use xlink:href="#DejaVuSans-63" x="643.359375"/>
     <use xlink:href="#DejaVuSans-6f" x="698.339844"/>
     <use xlink:href="#DejaVuSans-6e" x="759.521484"/>
     <use xlink:href="#DejaVuSans-73" x="822.900391"/>
     <use xlink:href="#DejaVuSans-65" x="875"/>
     <use xlink:href="#DejaVuSans-6e" x="936.523438"/>
     <use xlink:href="#DejaVuSans-74" x="999.902344"/>
     <use xlink:href="#DejaVuSans-20" x="1039.111328"/>
     <use xlink:href="#DejaVuSans-6d" x="1070.898438"/>
     <use xlink:href="#DejaVuSans-65" x="1168.310547"/>
     <use xlink:href="#DejaVuSans-73" x="1229.833984"/>
     <use xlink:href="#DejaVuSans-73" x="1281.933594"/>
     <use xlink:href="#DejaVuSans-61" x="1334.033203"/>
     <use xlink:href="#DejaVuSans-67" x="1395.3125"/>
     <use xlink:href="#DejaVuSans-65" x="1458.789062"/>
    </g>
   </g>
   <g id="patch_10">
    <path d="M 206.08218 234.504 
Q 169.022331 234.504 132.633302 234.504 
" style="fill: none; stroke: #2c3e50; stroke-width: 0.6; stroke-linecap: round"/>
    <path d="M 136.633302 236.504 
L 132.633302 234.504 
L 136.633302 232.504 
" style="fill: none; stroke: #2c3e50; stroke-width: 0.6; stroke-linecap: round"/>
   </g>
   <g id="text_11">
    <!-- 5. personal_sign(msg) -->
    <g transform="translate(141.350469 223.345894) scale(0.05 -0.05)">
     <defs>
      <path id="DejaVuSans-35" d="M 691 4666 
L 3169 4666 
L 3169 4134 
L 1269 4134 
L 1269 2991 
Q 1406 3038 1543 3061 
Q 1681 3084 1819 3084 
Q 2600 3084 3056 2656 
Q 3513 2228 3513 1497 
Q 3513 744 3044 326 
Q 2575 -91 1722 -91 
Q 1428 -91 1123 -41 
Q 819 9 494 109 
L 494 744 
Q 775 591 1075 516 
Q 1375 441 1709 441 
Q 2250 441 2565 725 
Q 2881 1009 2881 1497 
Q 2881 1984 2565 2268 
Q 2250 2553 1709 2553 
Q 1456 2553 1204 2497 
Q 953 2441 691 2322 
L 691 4666 
z
" transform="scale(0.015625)"/>
      <path id="DejaVuSans-70" d="M 1159 525 
L 1159 -1331 
L 581 -1331 
L 581 3500 
L 1159 3500 
L 1159 2969 
Q 1341 3281 1617 3432 
Q 1894 3584 2278 3584 
Q 2916 3584 3314 3078 
Q 3713 2572 3713 1747 
Q 3713 922 3314 415 
Q 2916 -91 2278 -91 
Q 1894 -91 1617 61 
Q 1341 213 1159 525 
z
M 3116 1747 
Q 3116 2381 2855 2742 
Q 2594 3103 2138 3103 
Q 1681 3103 1420 2742 
Q 1159 2381 1159 1747 
Q 1159 1113 1420 752 
Q 1681 391 2138 391 
Q 2594 391 2855 752 
Q 3116 1113 3116 1747 
z
" transform="scale(0.015625)"/>
      <path id="DejaVuSans-6c" d="M 603 4863 
L 1178 4863 
L 1178 0 
L 603 0 
L 603 4863 
z
" transform="scale(0.015625)"/>
      <path id="DejaVuSans-69" d="M 603 3500 
L 1178 3500 
L 1178 0 
L 603 0 
L 603 3500 
z
M 603 4863 
L 1178 4863 
L 1178 4134 
L 603 4134 
L 603 4863 
z
" transform="scale(0.015625)"/>
      <path id="DejaVuSans-28" d="M 1984 4856 
Q 1566 4138 1362 3434 
Q 1159 2731 1159 2009 
Q 1159 1288 1364 580 
Q 1569 -128 1984 -844 
L 1484 -844 
Q 1016 -109 783 600 
Q 550 1309 550 2009 
Q 550 2706 781 3412 
Q 1013 4119 1484 4856 
L 1984 4856 
z
" transform="scale(0.015625)"/>
      <path id="DejaVuSans-29" d="M 513 4856 
L 1013 4856 
Q 1481 4119 1714 3412 
Q 1947 2706 1947 2009 
Q 1947 1309 1714 600 
Q 1481 -109 1013 -844 
L 513 -844 
Q 928 -128 1133 580 
Q 1338 1288 1338 2009 
Q 1338 2731 1133 3434 
Q 928 4138 513 4856 
z
" transform="scale(0.015625)"/>
     </defs>
     <use xlink:href="#DejaVuSans-35"/>
     <use xlink:href="#DejaVuSans-2e" x="63.623047"/>
     <use xlink:href="#DejaVuSans-20" x="95.410156"/>
     <use xlink:href="#DejaVuSans-70" x="127.197266"/>
     <use xlink:href="#DejaVuSans-65" x="190.673828"/>
     <use xlink:href="#DejaVuSans-72" x="252.197266"/>
     <use xlink:href="#DejaVuSans-73" x="293.310547"/>
     <use xlink:href="#DejaVuSans-6f" x="345.410156"/>
     <use xlink:href="#DejaVuSans-6e" x="406.591797"/>
     <use xlink:href="#DejaVuSans-61" x="469.970703"/>
     <use xlink:href="#DejaVuSans-6c" x="531.25"/>
     <use xlink:href="#DejaVuSans-5f" x="559.033203"/>
     <use xlink:href="#DejaVuSans-73" x="609.033203"/>
     <use xlink:href="#DejaVuSans-69" x="661.132812"/>
     <use xlink:href="#DejaVuSans-67" x="688.916016"/>
     <use xlink:href="#DejaVuSans-6e" x="752.392578"/>
     <use xlink:href="#DejaVuSans-28" x="815.771484"/>
     <use xlink:href="#DejaVuSans-6d" x="854.785156"/>
     <use xlink:href="#DejaVuSans-73" x="952.197266"/>
     <use xlink:href="#DejaVuSans-67" x="1004.296875"/>
     <use xlink:href="#DejaVuSans-29" x="1067.773438"/>
    </g>
   </g>
   <g id="patch_11">
    <path d="M 127.96218 267.768 
Q 90.902331 267.768 54.513302 267.768 
" style="fill: none; stroke: #2c3e50; stroke-width: 0.6; stroke-linecap: round"/>
    <path d="M 58.513302 269.768 
L 54.513302 267.768 
L 58.513302 265.768 
" style="fill: none; stroke: #2c3e50; stroke-width: 0.6; stroke-linecap: round"/>
   </g>
   <g id="text_12">
    <!-- 6. User reviews &amp; approves -->
    <g transform="translate(56.592187 256.748956) scale(0.05 -0.05)">
     <defs>
      <path id="DejaVuSans-36" d="M 2113 2584 
Q 1688 2584 1439 2293 
Q 1191 2003 1191 1497 
Q 1191 994 1439 701 
Q 1688 409 2113 409 
Q 2538 409 2786 701 
Q 3034 994 3034 1497 
Q 3034 2003 2786 2293 
Q 2538 2584 2113 2584 
z
M 3366 4563 
L 3366 3988 
Q 3128 4100 2886 4159 
Q 2644 4219 2406 4219 
Q 1781 4219 1451 3797 
Q 1122 3375 1075 2522 
Q 1259 2794 1537 2939 
Q 1816 3084 2150 3084 
Q 2853 3084 3261 2657 
Q 3669 2231 3669 1497 
Q 3669 778 3244 343 
Q 2819 -91 2113 -91 
Q 1303 -91 875 529 
Q 447 1150 447 2328 
Q 447 3434 972 4092 
Q 1497 4750 2381 4750 
Q 2619 4750 2861 4703 
Q 3103 4656 3366 4563 
z
" transform="scale(0.015625)"/>
      <path id="DejaVuSans-55" d="M 556 4666 
L 1191 4666 
L 1191 1831 
Q 1191 1081 1462 751 
Q 1734 422 2344 422 
Q 2950 422 3222 751 
Q 3494 1081 3494 1831 
L 3494 4666 
L 4128 4666 
L 4128 1753 
Q 4128 841 3676 375 
Q 3225 -91 2344 -91 
Q 1459 -91 1007 375 
Q 556 841 556 1753 
L 556 4666 
z
" transform="scale(0.015625)"/>
      <path id="DejaVuSans-76" d="M 191 3500 
L 800 3500 
L 1894 563 
L 2988 3500 
L 3597 3500 
L 2284 0 
L 1503 0 
L 191 3500 
z
" transform="scale(0.015625)"/>
      <path id="DejaVuSans-77" d="M 269 3500 
L 844 3500 
L 1563 769 
L 2278 3500 
L 2956 3500 
L 3675 769 
L 4391 3500 
L 4966 3500 
L 4050 0 
L 3372 0 
L 2619 2869 
L 1863 0 
L 1184 0 
L 269 3500 
z
" transform="scale(0.015625)"/>
      <path id="DejaVuSans-26" d="M 1556 2509 
Q 1272 2256 1139 2004 
Q 1006 1753 1006 1478 
Q 1006 1022 1337 719 
Q 1669 416 2169 416 
Q 2466 416 2725 514 
Q 2984 613 3213 813 
L 1556 2509 
z
M 1997 2859 
L 3584 1234 
Q 3769 1513 3872 1830 
Q 3975 2147 3994 2503 
L 4575 2503 
Q 4538 2091 4375 1687 
Q 4213 1284 3922 891 
L 4794 0 
L 4006 0 
L 3559 459 
Q 3234 181 2878 45 
Q 2522 -91 2113 -91 
Q 1359 -91 881 339 
Q 403 769 403 1441 
Q 403 1841 612 2192 
Q 822 2544 1241 2853 
Q 1091 3050 1012 3245 
Q 934 3441 934 3628 
Q 934 4134 1281 4442 
Q 1628 4750 2203 4750 
Q 2463 4750 2720 4694 
Q 2978 4638 3244 4525 
L 3244 3956 
Q 2972 4103 2725 4179 
Q 2478 4256 2266 4256 
Q 1938 4256 1733 4082 
Q 1528 3909 1528 3634 
Q 1528 3475 1620 3314 
Q 1713 3153 1997 2859 
z
" transform="scale(0.015625)"/>
     </defs>
     <use xlink:href="#DejaVuSans-36"/>
     <use xlink:href="#DejaVuSans-2e" x="63.623047"/>
     <use xlink:href="#DejaVuSans-20" x="95.410156"/>
     <use xlink:href="#DejaVuSans-55" x="127.197266"/>
     <use xlink:href="#DejaVuSans-73" x="200.390625"/>
     <use xlink:href="#DejaVuSans-65" x="252.490234"/>
     <use xlink:href="#DejaVuSans-72" x="314.013672"/>
     <use xlink:href="#DejaVuSans-20" x="355.126953"/>
     <use xlink:href="#DejaVuSans-72" x="386.914062"/>
     <use xlink:href="#DejaVuSans-65" x="425.777344"/>
     <use xlink:href="#DejaVuSans-76" x="487.300781"/>
     <use xlink:href="#DejaVuSans-69" x="546.480469"/>
     <use xlink:href="#DejaVuSans-65" x="574.263672"/>
     <use xlink:href="#DejaVuSans-77" x="635.787109"/>
     <use xlink:href="#DejaVuSans-73" x="717.574219"/>
     <use xlink:href="#DejaVuSans-20" x="769.673828"/>
     <use xlink:href="#DejaVuSans-26" x="801.460938"/>
     <use xlink:href="#DejaVuSans-20" x="879.439453"/>
     <use xlink:href="#DejaVuSans-61" x="911.226562"/>
     <use xlink:href="#DejaVuSans-70" x="972.505859"/>
     <use xlink:href="#DejaVuSans-70" x="1035.982422"/>
     <use xlink:href="#DejaVuSans-72" x="1099.458984"/>
     <use xlink:href="#DejaVuSans-6f" x="1138.322266"/>
     <use xlink:href="#DejaVuSans-76" x="1199.503906"/>
     <use xlink:href="#DejaVuSans-65" x="1258.683594"/>
     <use xlink:href="#DejaVuSans-73" x="1320.207031"/>
    </g>
   </g>
   <g id="patch_12">
    <path d="M 53.83782 301.032 
Q 129.958652 301.032 205.408663 301.032 
" style="fill: none; stroke: #2c3e50; stroke-width: 0.6; stroke-linecap: round"/>
    <path d="M 201.408663 299.032 
L 205.408663 301.032 
L 201.408663 303.032 
" style="fill: none; stroke: #2c3e50; stroke-width: 0.6; stroke-linecap: round"/>
   </g>
   <g id="text_13">
    <!-- 7. Return ECDSA signature -->
    <g transform="translate(96.526406 290.012956) scale(0.05 -0.05)">
     <defs>
      <path id="DejaVuSans-37" d="M 525 4666 
L 3525 4666 
L 3525 4397 
L 1831 0 
L 1172 0 
L 2766 4134 
L 525 4134 
L 525 4666 
z
" transform="scale(0.015625)"/>
      <path id="DejaVuSans-45" d="M 628 4666 
L 3578 4666 
L 3578 4134 
L 1259 4134 
L 1259 2753 
L 3481 2753 
L 3481 2222 
L 1259 2222 
L 1259 531 
L 3634 531 
L 3634 0 
L 628 0 
L 628 4666 
z
" transform="scale(0.015625)"/>
      <path id="DejaVuSans-44" d="M 1259 4147 
L 1259 519 
L 2022 519 
Q 2988 519 3436 956 
Q 3884 1394 3884 2338 
Q 3884 3275 3436 3711 
Q 2988 4147 2022 4147 
L 1259 4147 
z
M 628 4666 
L 1925 4666 
Q 3281 4666 3915 4102 
Q 4550 3538 4550 2338 
Q 4550 1131 3912 565 
Q 3275 0 1925 0 
L 628 0 
L 628 4666 
z
" transform="scale(0.015625)"/>
      <path id="DejaVuSans-53" d="M 3425 4513 
L 3425 3897 
Q 3066 4069 2747 4153 
Q 2428 4238 2131 4238 
Q 1616 4238 1336 4038 
Q 1056 3838 1056 3469 
Q 1056 3159 1242 3001 
Q 1428 2844 1947 2747 
L 2328 2669 
Q 3034 2534 3370 2195 
Q 3706 1856 3706 1288 
Q 3706 609 3251 259 
Q 2797 -91 1919 -91 
Q 1588 -91 1214 -16 
Q 841 59 441 206 
L 441 856 
Q 825 641 1194 531 
Q 1563 422 1919 422 
Q 2459 422 2753 634 
Q 3047 847 3047 1241 
Q 3047 1584 2836 1778 
Q 2625 1972 2144 2069 
L 1759 2144 
Q 1053 2284 737 2584 
Q 422 2884 422 3419 
Q 422 4038 858 4394 
Q 1294 4750 2059 4750 
Q 2388 4750 2728 4690 
Q 3069 4631 3425 4513 
z
" transform="scale(0.015625)"/>
     </defs>
     <use xlink:href="#DejaVuSans-37"/>
     <use xlink:href="#DejaVuSans-2e" x="63.623047"/>
     <use xlink:href="#DejaVuSans-20" x="95.410156"/>
     <use xlink:href="#DejaVuSans-52" x="127.197266"/>
     <use xlink:href="#DejaVuSans-65" x="192.179688"/>
     <use xlink:href="#DejaVuSans-74" x="253.703125"/>
     <use xlink:href="#DejaVuSans-75" x="292.912109"/>
     <use xlink:href="#DejaVuSans-72" x="356.291016"/>
     <use xlink:href="#DejaVuSans-6e" x="395.654297"/>
     <use xlink:href="#DejaVuSans-20" x="459.033203"/>
     <use xlink:href="#DejaVuSans-45" x="490.820312"/>
     <use xlink:href="#DejaVuSans-43" x="554.003906"/>
     <use xlink:href="#DejaVuSans-44" x="623.828125"/>
     <use xlink:href="#DejaVuSans-53" x="700.830078"/>
     <use xlink:href="#DejaVuSans-41" x="766.181641"/>
     <use xlink:href="#DejaVuSans-20" x="834.589844"/>
     <use xlink:href="#DejaVuSans-73" x="866.376953"/>
     <use xlink:href="#DejaVuSans-69" x="918.476562"/>
     <use xlink:href="#DejaVuSans-67" x="946.259766"/>
     <use xlink:href="#DejaVuSans-6e" x="1009.736328"/>
     <use xlink:href="#DejaVuSans-61" x="1073.115234"/>
     <use xlink:href="#DejaVuSans-74" x="1134.394531"/>
     <use xlink:href="#DejaVuSans-75" x="1173.603516"/>
     <use xlink:href="#DejaVuSans-72" x="1236.982422"/>
     <use xlink:href="#DejaVuSans-65" x="1275.845703"/>
    </g>
   </g>
   <g id="patch_13">
    <path d="M 210.07782 334.296 
Q 247.137669 334.296 283.526698 334.296 
" style="fill: none; stroke: #2c3e50; stroke-width: 0.6; stroke-linecap: round"/>
    <path d="M 279.526698 332.296 
L 283.526698 334.296 
L 279.526698 336.296 
" style="fill: none; stroke: #2c3e50; stroke-width: 0.6; stroke-linecap: round"/>
   </g>
   <g id="text_14">
    <!-- 8. {addr, sig, msg} -->
    <g transform="translate(222.958359 323.276956) scale(0.05 -0.05)">
     <defs>
      <path id="DejaVuSans-38" d="M 2034 2216 
Q 1584 2216 1326 1975 
Q 1069 1734 1069 1313 
Q 1069 891 1326 650 
Q 1584 409 2034 409 
Q 2484 409 2743 651 
Q 3003 894 3003 1313 
Q 3003 1734 2745 1975 
Q 2488 2216 2034 2216 
z
M 1403 2484 
Q 997 2584 770 2862 
Q 544 3141 544 3541 
Q 544 4100 942 4425 
Q 1341 4750 2034 4750 
Q 2731 4750 3128 4425 
Q 3525 4100 3525 3541 
Q 3525 3141 3298 2862 
Q 3072 2584 2669 2484 
Q 3125 2378 3379 2068 
Q 3634 1759 3634 1313 
Q 3634 634 3220 271 
Q 2806 -91 2034 -91 
Q 1263 -91 848 271 
Q 434 634 434 1313 
Q 434 1759 690 2068 
Q 947 2378 1403 2484 
z
M 1172 3481 
Q 1172 3119 1398 2916 
Q 1625 2713 2034 2713 
Q 2441 2713 2670 2916 
Q 2900 3119 2900 3481 
Q 2900 3844 2670 4047 
Q 2441 4250 2034 4250 
Q 1625 4250 1398 4047 
Q 1172 3844 1172 3481 
z
" transform="scale(0.015625)"/>
      <path id="DejaVuSans-7b" d="M 3272 -594 
L 3272 -1044 
L 3078 -1044 
Q 2300 -1044 2036 -812 
Q 1772 -581 1772 109 
L 1772 856 
Q 1772 1328 1603 1509 
Q 1434 1691 991 1691 
L 800 1691 
L 800 2138 
L 991 2138 
Q 1438 2138 1605 2317 
Q 1772 2497 1772 2963 
L 1772 3713 
Q 1772 4403 2036 4633 
Q 2300 4863 3078 4863 
L 3272 4863 
L 3272 4416 
L 3059 4416 
Q 2619 4416 2484 4278 
Q 2350 4141 2350 3700 
L 2350 2925 
Q 2350 2434 2208 2212 
Q 2066 1991 1722 1913 
Q 2069 1828 2209 1606 
Q 2350 1384 2350 897 
L 2350 122 
Q 2350 -319 2484 -456 
Q 2619 -594 3059 -594 
L 3272 -594 
z
" transform="scale(0.015625)"/>
      <path id="DejaVuSans-64" d="M 2906 2969 
L 2906 4863 
L 3481 4863 
L 3481 0 
L 2906 0 
L 2906 525 
Q 2725 213 2448 61 
Q 2172 -91 1784 -91 
Q 1150 -91 751 415 
Q 353 922 353 1747 
Q 353 2572 751 3078 
Q 1150 3584 1784 3584 
Q 2172 3584 2448 3432 
Q 2725 3281 2906 2969 
z
M 947 1747 
Q 947 1113 1208 752 
Q 1469 391 1925 391 
Q 2381 391 2643 752 
Q 2906 1113 2906 1747 
Q 2906 2381 2643 2742 
Q 2381 3103 1925 3103 
Q 1469 3103 1208 2742 
Q 947 2381 947 1747 
z
" transform="scale(0.015625)"/>
      <path id="DejaVuSans-2c" d="M 750 794 
L 1409 794 
L 1409 256 
L 897 -744 
L 494 -744 
L 750 256 
L 750 794 
z
" transform="scale(0.015625)"/>
      <path id="DejaVuSans-7d" d="M 800 -594 
L 1019 -594 
Q 1456 -594 1589 -459 
Q 1722 -325 1722 122 
L 1722 897 
Q 1722 1384 1862 1606 
Q 2003 1828 2350 1913 
Q 2003 1991 1862 2212 
Q 1722 2434 1722 2925 
L 1722 3700 
Q 1722 4144 1589 4280 
Q 1456 4416 1019 4416 
L 800 4416 
L 800 4863 
L 997 4863 
Q 1775 4863 2036 4633 
Q 2297 4403 2297 3713 
L 2297 2963 
Q 2297 2497 2465 2317 
Q 2634 2138 3078 2138 
L 3272 2138 
L 3272 1691 
L 3078 1691 
Q 2634 1691 2465 1509 
Q 2297 1328 2297 856 
L 2297 109 
Q 2297 -581 2036 -812 
Q 1775 -1044 997 -1044 
L 800 -1044 
L 800 -594 
z
" transform="scale(0.015625)"/>
     </defs>
     <use xlink:href="#DejaVuSans-38"/>
     <use xlink:href="#DejaVuSans-2e" x="63.623047"/>
     <use xlink:href="#DejaVuSans-20" x="95.410156"/>
     <use xlink:href="#DejaVuSans-7b" x="127.197266"/>
     <use xlink:href="#DejaVuSans-61" x="190.820312"/>
     <use xlink:href="#DejaVuSans-64" x="252.099609"/>
     <use xlink:href="#DejaVuSans-64" x="315.576172"/>
     <use xlink:href="#DejaVuSans-72" x="379.052734"/>
     <use xlink:href="#DejaVuSans-2c" x="420.166016"/>
     <use xlink:href="#DejaVuSans-20" x="451.953125"/>
     <use xlink:href="#DejaVuSans-73" x="483.740234"/>
     <use xlink:href="#DejaVuSans-69" x="535.839844"/>
     <use xlink:href="#DejaVuSans-67" x="563.623047"/>
     <use xlink:href="#DejaVuSans-2c" x="627.099609"/>
     <use xlink:href="#DejaVuSans-20" x="658.886719"/>
     <use xlink:href="#DejaVuSans-6d" x="690.673828"/>
     <use xlink:href="#DejaVuSans-73" x="788.085938"/>
     <use xlink:href="#DejaVuSans-67" x="840.185547"/>
     <use xlink:href="#DejaVuSans-7d" x="903.662109"/>
    </g>
   </g>
   <g id="text_15">
    <!-- 9. ecrecover → verify → JWT -->
    <g transform="translate(284.967109 356.540956) scale(0.05 -0.05)">
     <defs>
      <path id="DejaVuSans-39" d="M 703 97 
L 703 672 
Q 941 559 1184 500 
Q 1428 441 1663 441 
Q 2288 441 2617 861 
Q 2947 1281 2994 2138 
Q 2813 1869 2534 1725 
Q 2256 1581 1919 1581 
Q 1219 1581 811 2004 
Q 403 2428 403 3163 
Q 403 3881 828 4315 
Q 1253 4750 1959 4750 
Q 2769 4750 3195 4129 
Q 3622 3509 3622 2328 
Q 3622 1225 3098 567 
Q 2575 -91 1691 -91 
Q 1453 -91 1209 -44 
Q 966 3 703 97 
z
M 1959 2075 
Q 2384 2075 2632 2365 
Q 2881 2656 2881 3163 
Q 2881 3666 2632 3958 
Q 2384 4250 1959 4250 
Q 1534 4250 1286 3958 
Q 1038 3666 1038 3163 
Q 1038 2656 1286 2365 
Q 1534 2075 1959 2075 
z
" transform="scale(0.015625)"/>
      <path id="DejaVuSans-2192" d="M 5050 2147 
L 5050 1866 
L 3822 638 
L 3447 1013 
L 4175 1741 
L 366 1741 
L 366 2272 
L 4175 2272 
L 3447 3000 
L 3822 3375 
L 5050 2147 
z
" transform="scale(0.015625)"/>
      <path id="DejaVuSans-66" d="M 2375 4863 
L 2375 4384 
L 1825 4384 
Q 1516 4384 1395 4259 
Q 1275 4134 1275 3809 
L 1275 3500 
L 2222 3500 
L 2222 3053 
L 1275 3053 
L 1275 0 
L 697 0 
L 697 3053 
L 147 3053 
L 147 3500 
L 697 3500 
L 697 3744 
Q 697 4328 969 4595 
Q 1241 4863 1831 4863 
L 2375 4863 
z
" transform="scale(0.015625)"/>
      <path id="DejaVuSans-79" d="M 2059 -325 
Q 1816 -950 1584 -1140 
Q 1353 -1331 966 -1331 
L 506 -1331 
L 506 -850 
L 844 -850 
Q 1081 -850 1212 -737 
Q 1344 -625 1503 -206 
L 1606 56 
L 191 3500 
L 800 3500 
L 1894 763 
L 2988 3500 
L 3597 3500 
L 2059 -325 
z
" transform="scale(0.015625)"/>
      <path id="DejaVuSans-4a" d="M 628 4666 
L 1259 4666 
L 1259 325 
Q 1259 -519 939 -900 
Q 619 -1281 -91 -1281 
L -331 -1281 
L -331 -750 
L -134 -750 
Q 284 -750 456 -515 
Q 628 -281 628 325 
L 628 4666 
z
" transform="scale(0.015625)"/>
      <path id="DejaVuSans-57" d="M 213 4666 
L 850 4666 
L 1831 722 
L 2809 4666 
L 3519 4666 
L 4500 722 
L 5478 4666 
L 6119 4666 
L 4947 0 
L 4153 0 
L 3169 4050 
L 2175 0 
L 1381 0 
L 213 4666 
z
" transform="scale(0.015625)"/>
      <path id="DejaVuSans-54" d="M -19 4666 
L 3928 4666 
L 3928 4134 
L 2272 4134 
L 2272 0 
L 1638 0 
L 1638 4134 
L -19 4134 
L -19 4666 
z
" transform="scale(0.015625)"/>
     </defs>
     <use xlink:href="#DejaVuSans-39"/>
     <use xlink:href="#DejaVuSans-2e" x="63.623047"/>
     <use xlink:href="#DejaVuSans-20" x="95.410156"/>
     <use xlink:href="#DejaVuSans-65" x="127.197266"/>
     <use xlink:href="#DejaVuSans-63" x="188.720703"/>
     <use xlink:href="#DejaVuSans-72" x="243.701172"/>
     <use xlink:href="#DejaVuSans-65" x="282.564453"/>
     <use xlink:href="#DejaVuSans-63" x="344.087891"/>
     <use xlink:href="#DejaVuSans-6f" x="399.068359"/>
     <use xlink:href="#DejaVuSans-76" x="460.25"/>
     <use xlink:href="#DejaVuSans-65" x="519.429688"/>
     <use xlink:href="#DejaVuSans-72" x="580.953125"/>
     <use xlink:href="#DejaVuSans-20" x="622.066406"/>
     <use xlink:href="#DejaVuSans-2192" x="653.853516"/>
     <use xlink:href="#DejaVuSans-20" x="737.642578"/>
     <use xlink:href="#DejaVuSans-76" x="769.429688"/>
     <use xlink:href="#DejaVuSans-65" x="828.609375"/>
     <use xlink:href="#DejaVuSans-72" x="890.132812"/>
     <use xlink:href="#DejaVuSans-69" x="931.246094"/>
     <use xlink:href="#DejaVuSans-66" x="959.029297"/>
     <use xlink:href="#DejaVuSans-79" x="992.484375"/>
     <use xlink:href="#DejaVuSans-20" x="1051.664062"/>
     <use xlink:href="#DejaVuSans-2192" x="1083.451172"/>
     <use xlink:href="#DejaVuSans-20" x="1167.240234"/>
     <use xlink:href="#DejaVuSans-4a" x="1199.027344"/>
     <use xlink:href="#DejaVuSans-57" x="1228.519531"/>
     <use xlink:href="#DejaVuSans-54" x="1327.396484"/>
    </g>
   </g>
   <g id="patch_14">
    <path d="M 284.20218 400.824 
Q 247.142331 400.824 210.753302 400.824 
" style="fill: none; stroke: #2c3e50; stroke-width: 0.6; stroke-linecap: round"/>
    <path d="M 214.753302 402.824 
L 210.753302 400.824 
L 214.753302 398.824 
" style="fill: none; stroke: #2c3e50; stroke-width: 0.6; stroke-linecap: round"/>
   </g>
   <g id="text_16">
    <!-- 10. Set-Cookie (JWT) -->
    <g transform="translate(221.395078 389.804956) scale(0.05 -0.05)">
     <defs>
      <path id="DejaVuSans-30" d="M 2034 4250 
Q 1547 4250 1301 3770 
Q 1056 3291 1056 2328 
Q 1056 1369 1301 889 
Q 1547 409 2034 409 
Q 2525 409 2770 889 
Q 3016 1369 3016 2328 
Q 3016 3291 2770 3770 
Q 2525 4250 2034 4250 
z
M 2034 4750 
Q 2819 4750 3233 4129 
Q 3647 3509 3647 2328 
Q 3647 1150 3233 529 
Q 2819 -91 2034 -91 
Q 1250 -91 836 529 
Q 422 1150 422 2328 
Q 422 3509 836 4129 
Q 1250 4750 2034 4750 
z
" transform="scale(0.015625)"/>
      <path id="DejaVuSans-2d" d="M 313 2009 
L 1997 2009 
L 1997 1497 
L 313 1497 
L 313 2009 
z
" transform="scale(0.015625)"/>
      <path id="DejaVuSans-6b" d="M 581 4863 
L 1159 4863 
L 1159 1991 
L 2875 3500 
L 3609 3500 
L 1753 1863 
L 3688 0 
L 2938 0 
L 1159 1709 
L 1159 0 
L 581 0 
L 581 4863 
z
" transform="scale(0.015625)"/>
     </defs>
     <use xlink:href="#DejaVuSans-31"/>
     <use xlink:href="#DejaVuSans-30" x="63.623047"/>
     <use xlink:href="#DejaVuSans-2e" x="127.246094"/>
     <use xlink:href="#DejaVuSans-20" x="159.033203"/>
     <use xlink:href="#DejaVuSans-53" x="190.820312"/>
     <use xlink:href="#DejaVuSans-65" x="254.296875"/>
     <use xlink:href="#DejaVuSans-74" x="315.820312"/>
     <use xlink:href="#DejaVuSans-2d" x="355.029297"/>
     <use xlink:href="#DejaVuSans-43" x="391.113281"/>
     <use xlink:href="#DejaVuSans-6f" x="460.9375"/>
     <use xlink:href="#DejaVuSans-6f" x="522.119141"/>
     <use xlink:href="#DejaVuSans-6b" x="583.300781"/>
     <use xlink:href="#DejaVuSans-69" x="641.210938"/>
     <use xlink:href="#DejaVuSans-65" x="668.994141"/>
     <use xlink:href="#DejaVuSans-20" x="730.517578"/>
     <use xlink:href="#DejaVuSans-28" x="762.304688"/>
     <use xlink:href="#DejaVuSans-4a" x="801.318359"/>
     <use xlink:href="#DejaVuSans-57" x="830.810547"/>
     <use xlink:href="#DejaVuSans-54" x="929.6875"/>
     <use xlink:href="#DejaVuSans-29" x="990.771484"/>
    </g>
   </g>
  </g>
 </g>
 <defs>
  <clipPath id="p0d4c2a1117">
   <rect x="7.2" y="7.2" width="390.6" height="443.52"/>
  </clipPath>
 </defs>
</svg>
